<svg xmlns="http://www.w3.org/2000/svg" viewBox="0 0 1000 300" width="1000" height="300" shape-rendering="geometricPrecision" text-rendering="optimizeLegibility" font-rendering="optimizeLegibility">
  <defs>
    <linearGradient id="areaGrad" x1="0" y1="0" x2="0" y2="1">
      <stop offset="0%"  stop-color="#FFFFFF" stop-opacity="0.38"/>
      <stop offset="60%" stop-color="#FFFFFF" stop-opacity="0.08"/>
      <stop offset="100%" stop-color="#0D1117" stop-opacity="0"/>
    </linearGradient>
    <clipPath id="chartReveal">
      <rect x="420" y="0" width="0" height="300">
        <animate attributeName="width" from="0" to="560"
                 begin="0.2s" dur="1.8s" fill="freeze"/>
      </rect>
    </clipPath>
  </defs>

  <!-- background -->
  <rect width="1000" height="300" fill="#0D1117"/>

  <!-- left: small label -->
  <text x="210" y="95" text-anchor="middle"
        font-family='ui-monospace, "SF Mono", Menlo, Consolas, monospace' font-size="10.5" font-weight="500"
        fill="#8B949E" letter-spacing="2.4" opacity="0">
    TOKENS PROCESSED · LAST 30 DAYS
    <animate attributeName="opacity" from="0" to="1"
             begin="0.05s" dur="0.5s" fill="freeze"/>
  </text>

  <!-- left: count-up frames -->
  <g>
    <text x="210" y="160" text-anchor="middle" font-family='ui-monospace, "SF Mono", Menlo, Consolas, monospace' font-size="46" font-weight="700" fill="#FFFFFF" opacity="0" letter-spacing="-0.01em">9,618,838,032<set attributeName="opacity" to="1" begin="0.000s" fill="freeze"/><set attributeName="opacity" to="0" begin="0.044s" fill="freeze"/></text>
    <text x="210" y="160" text-anchor="middle" font-family='ui-monospace, "SF Mono", Menlo, Consolas, monospace' font-size="46" font-weight="700" fill="#FFFFFF" opacity="0" letter-spacing="-0.01em">17,553,038,488<set attributeName="opacity" to="1" begin="0.044s" fill="freeze"/><set attributeName="opacity" to="0" begin="0.089s" fill="freeze"/></text>
    <text x="210" y="160" text-anchor="middle" font-family='ui-monospace, "SF Mono", Menlo, Consolas, monospace' font-size="46" font-weight="700" fill="#FFFFFF" opacity="0" letter-spacing="-0.01em">24,097,647,792<set attributeName="opacity" to="1" begin="0.089s" fill="freeze"/><set attributeName="opacity" to="0" begin="0.133s" fill="freeze"/></text>
    <text x="210" y="160" text-anchor="middle" font-family='ui-monospace, "SF Mono", Menlo, Consolas, monospace' font-size="46" font-weight="700" fill="#FFFFFF" opacity="0" letter-spacing="-0.01em">29,496,038,112<set attributeName="opacity" to="1" begin="0.133s" fill="freeze"/><set attributeName="opacity" to="0" begin="0.178s" fill="freeze"/></text>
    <text x="210" y="160" text-anchor="middle" font-family='ui-monospace, "SF Mono", Menlo, Consolas, monospace' font-size="46" font-weight="700" fill="#FFFFFF" opacity="0" letter-spacing="-0.01em">33,948,957,559<set attributeName="opacity" to="1" begin="0.178s" fill="freeze"/><set attributeName="opacity" to="0" begin="0.222s" fill="freeze"/></text>
    <text x="210" y="160" text-anchor="middle" font-family='ui-monospace, "SF Mono", Menlo, Consolas, monospace' font-size="46" font-weight="700" fill="#FFFFFF" opacity="0" letter-spacing="-0.01em">37,621,995,342<set attributeName="opacity" to="1" begin="0.222s" fill="freeze"/><set attributeName="opacity" to="0" begin="0.267s" fill="freeze"/></text>
    <text x="210" y="160" text-anchor="middle" font-family='ui-monospace, "SF Mono", Menlo, Consolas, monospace' font-size="46" font-weight="700" fill="#FFFFFF" opacity="0" letter-spacing="-0.01em">40,651,739,470<set attributeName="opacity" to="1" begin="0.267s" fill="freeze"/><set attributeName="opacity" to="0" begin="0.311s" fill="freeze"/></text>
    <text x="210" y="160" text-anchor="middle" font-family='ui-monospace, "SF Mono", Menlo, Consolas, monospace' font-size="46" font-weight="700" fill="#FFFFFF" opacity="0" letter-spacing="-0.01em">43,150,856,012<set attributeName="opacity" to="1" begin="0.311s" fill="freeze"/><set attributeName="opacity" to="0" begin="0.356s" fill="freeze"/></text>
    <text x="210" y="160" text-anchor="middle" font-family='ui-monospace, "SF Mono", Menlo, Consolas, monospace' font-size="46" font-weight="700" fill="#FFFFFF" opacity="0" letter-spacing="-0.01em">45,212,278,768<set attributeName="opacity" to="1" begin="0.356s" fill="freeze"/><set attributeName="opacity" to="0" begin="0.400s" fill="freeze"/></text>
    <text x="210" y="160" text-anchor="middle" font-family='ui-monospace, "SF Mono", Menlo, Consolas, monospace' font-size="46" font-weight="700" fill="#FFFFFF" opacity="0" letter-spacing="-0.01em">46,912,665,168<set attributeName="opacity" to="1" begin="0.400s" fill="freeze"/><set attributeName="opacity" to="0" begin="0.444s" fill="freeze"/></text>
    <text x="210" y="160" text-anchor="middle" font-family='ui-monospace, "SF Mono", Menlo, Consolas, monospace' font-size="46" font-weight="700" fill="#FFFFFF" opacity="0" letter-spacing="-0.01em">48,315,246,904<set attributeName="opacity" to="1" begin="0.444s" fill="freeze"/><set attributeName="opacity" to="0" begin="0.489s" fill="freeze"/></text>
    <text x="210" y="160" text-anchor="middle" font-family='ui-monospace, "SF Mono", Menlo, Consolas, monospace' font-size="46" font-weight="700" fill="#FFFFFF" opacity="0" letter-spacing="-0.01em">49,472,181,309<set attributeName="opacity" to="1" begin="0.489s" fill="freeze"/><set attributeName="opacity" to="0" begin="0.533s" fill="freeze"/></text>
    <text x="210" y="160" text-anchor="middle" font-family='ui-monospace, "SF Mono", Menlo, Consolas, monospace' font-size="46" font-weight="700" fill="#FFFFFF" opacity="0" letter-spacing="-0.01em">50,426,490,910<set attributeName="opacity" to="1" begin="0.533s" fill="freeze"/><set attributeName="opacity" to="0" begin="0.578s" fill="freeze"/></text>
    <text x="210" y="160" text-anchor="middle" font-family='ui-monospace, "SF Mono", Menlo, Consolas, monospace' font-size="46" font-weight="700" fill="#FFFFFF" opacity="0" letter-spacing="-0.01em">51,213,663,294<set attributeName="opacity" to="1" begin="0.578s" fill="freeze"/><set attributeName="opacity" to="0" begin="0.622s" fill="freeze"/></text>
    <text x="210" y="160" text-anchor="middle" font-family='ui-monospace, "SF Mono", Menlo, Consolas, monospace' font-size="46" font-weight="700" fill="#FFFFFF" opacity="0" letter-spacing="-0.01em">51,862,970,775<set attributeName="opacity" to="1" begin="0.622s" fill="freeze"/><set attributeName="opacity" to="0" begin="0.667s" fill="freeze"/></text>
    <text x="210" y="160" text-anchor="middle" font-family='ui-monospace, "SF Mono", Menlo, Consolas, monospace' font-size="46" font-weight="700" fill="#FFFFFF" opacity="0" letter-spacing="-0.01em">52,398,558,930<set attributeName="opacity" to="1" begin="0.667s" fill="freeze"/><set attributeName="opacity" to="0" begin="0.711s" fill="freeze"/></text>
    <text x="210" y="160" text-anchor="middle" font-family='ui-monospace, "SF Mono", Menlo, Consolas, monospace' font-size="46" font-weight="700" fill="#FFFFFF" opacity="0" letter-spacing="-0.01em">52,840,344,493<set attributeName="opacity" to="1" begin="0.711s" fill="freeze"/><set attributeName="opacity" to="0" begin="0.756s" fill="freeze"/></text>
    <text x="210" y="160" text-anchor="middle" font-family='ui-monospace, "SF Mono", Menlo, Consolas, monospace' font-size="46" font-weight="700" fill="#FFFFFF" opacity="0" letter-spacing="-0.01em">53,204,755,996<set attributeName="opacity" to="1" begin="0.756s" fill="freeze"/><set attributeName="opacity" to="0" begin="0.800s" fill="freeze"/></text>
    <text x="210" y="160" text-anchor="middle" font-family='ui-monospace, "SF Mono", Menlo, Consolas, monospace' font-size="46" font-weight="700" fill="#FFFFFF" opacity="0" letter-spacing="-0.01em">53,505,344,684<set attributeName="opacity" to="1" begin="0.800s" fill="freeze"/><set attributeName="opacity" to="0" begin="0.844s" fill="freeze"/></text>
    <text x="210" y="160" text-anchor="middle" font-family='ui-monospace, "SF Mono", Menlo, Consolas, monospace' font-size="46" font-weight="700" fill="#FFFFFF" opacity="0" letter-spacing="-0.01em">53,753,288,448<set attributeName="opacity" to="1" begin="0.844s" fill="freeze"/><set attributeName="opacity" to="0" begin="0.889s" fill="freeze"/></text>
    <text x="210" y="160" text-anchor="middle" font-family='ui-monospace, "SF Mono", Menlo, Consolas, monospace' font-size="46" font-weight="700" fill="#FFFFFF" opacity="0" letter-spacing="-0.01em">53,957,807,489<set attributeName="opacity" to="1" begin="0.889s" fill="freeze"/><set attributeName="opacity" to="0" begin="0.933s" fill="freeze"/></text>
    <text x="210" y="160" text-anchor="middle" font-family='ui-monospace, "SF Mono", Menlo, Consolas, monospace' font-size="46" font-weight="700" fill="#FFFFFF" opacity="0" letter-spacing="-0.01em">54,126,507,187<set attributeName="opacity" to="1" begin="0.933s" fill="freeze"/><set attributeName="opacity" to="0" begin="0.978s" fill="freeze"/></text>
    <text x="210" y="160" text-anchor="middle" font-family='ui-monospace, "SF Mono", Menlo, Consolas, monospace' font-size="46" font-weight="700" fill="#FFFFFF" opacity="0" letter-spacing="-0.01em">54,265,660,919<set attributeName="opacity" to="1" begin="0.978s" fill="freeze"/><set attributeName="opacity" to="0" begin="1.022s" fill="freeze"/></text>
    <text x="210" y="160" text-anchor="middle" font-family='ui-monospace, "SF Mono", Menlo, Consolas, monospace' font-size="46" font-weight="700" fill="#FFFFFF" opacity="0" letter-spacing="-0.01em">54,380,443,350<set attributeName="opacity" to="1" begin="1.022s" fill="freeze"/><set attributeName="opacity" to="0" begin="1.067s" fill="freeze"/></text>
    <text x="210" y="160" text-anchor="middle" font-family='ui-monospace, "SF Mono", Menlo, Consolas, monospace' font-size="46" font-weight="700" fill="#FFFFFF" opacity="0" letter-spacing="-0.01em">54,475,122,854<set attributeName="opacity" to="1" begin="1.067s" fill="freeze"/><set attributeName="opacity" to="0" begin="1.111s" fill="freeze"/></text>
    <text x="210" y="160" text-anchor="middle" font-family='ui-monospace, "SF Mono", Menlo, Consolas, monospace' font-size="46" font-weight="700" fill="#FFFFFF" opacity="0" letter-spacing="-0.01em">54,553,220,246<set attributeName="opacity" to="1" begin="1.111s" fill="freeze"/><set attributeName="opacity" to="0" begin="1.156s" fill="freeze"/></text>
    <text x="210" y="160" text-anchor="middle" font-family='ui-monospace, "SF Mono", Menlo, Consolas, monospace' font-size="46" font-weight="700" fill="#FFFFFF" opacity="0" letter-spacing="-0.01em">54,617,639,707<set attributeName="opacity" to="1" begin="1.156s" fill="freeze"/><set attributeName="opacity" to="0" begin="1.200s" fill="freeze"/></text>
    <text x="210" y="160" text-anchor="middle" font-family='ui-monospace, "SF Mono", Menlo, Consolas, monospace' font-size="46" font-weight="700" fill="#FFFFFF" opacity="0" letter-spacing="-0.01em">54,670,776,782<set attributeName="opacity" to="1" begin="1.200s" fill="freeze"/><set attributeName="opacity" to="0" begin="1.244s" fill="freeze"/></text>
    <text x="210" y="160" text-anchor="middle" font-family='ui-monospace, "SF Mono", Menlo, Consolas, monospace' font-size="46" font-weight="700" fill="#FFFFFF" opacity="0" letter-spacing="-0.01em">54,714,607,461<set attributeName="opacity" to="1" begin="1.244s" fill="freeze"/><set attributeName="opacity" to="0" begin="1.289s" fill="freeze"/></text>
    <text x="210" y="160" text-anchor="middle" font-family='ui-monospace, "SF Mono", Menlo, Consolas, monospace' font-size="46" font-weight="700" fill="#FFFFFF" opacity="0" letter-spacing="-0.01em">54,750,761,661<set attributeName="opacity" to="1" begin="1.289s" fill="freeze"/><set attributeName="opacity" to="0" begin="1.333s" fill="freeze"/></text>
    <text x="210" y="160" text-anchor="middle" font-family='ui-monospace, "SF Mono", Menlo, Consolas, monospace' font-size="46" font-weight="700" fill="#FFFFFF" opacity="0" letter-spacing="-0.01em">54,780,583,836<set attributeName="opacity" to="1" begin="1.333s" fill="freeze"/><set attributeName="opacity" to="0" begin="1.378s" fill="freeze"/></text>
    <text x="210" y="160" text-anchor="middle" font-family='ui-monospace, "SF Mono", Menlo, Consolas, monospace' font-size="46" font-weight="700" fill="#FFFFFF" opacity="0" letter-spacing="-0.01em">54,805,182,973<set attributeName="opacity" to="1" begin="1.378s" fill="freeze"/><set attributeName="opacity" to="0" begin="1.422s" fill="freeze"/></text>
    <text x="210" y="160" text-anchor="middle" font-family='ui-monospace, "SF Mono", Menlo, Consolas, monospace' font-size="46" font-weight="700" fill="#FFFFFF" opacity="0" letter-spacing="-0.01em">54,825,473,832<set attributeName="opacity" to="1" begin="1.422s" fill="freeze"/><set attributeName="opacity" to="0" begin="1.467s" fill="freeze"/></text>
    <text x="210" y="160" text-anchor="middle" font-family='ui-monospace, "SF Mono", Menlo, Consolas, monospace' font-size="46" font-weight="700" fill="#FFFFFF" opacity="0" letter-spacing="-0.01em">54,842,210,962<set attributeName="opacity" to="1" begin="1.467s" fill="freeze"/><set attributeName="opacity" to="0" begin="1.511s" fill="freeze"/></text>
    <text x="210" y="160" text-anchor="middle" font-family='ui-monospace, "SF Mono", Menlo, Consolas, monospace' font-size="46" font-weight="700" fill="#FFFFFF" opacity="0" letter-spacing="-0.01em">54,856,016,761<set attributeName="opacity" to="1" begin="1.511s" fill="freeze"/><set attributeName="opacity" to="0" begin="1.556s" fill="freeze"/></text>
    <text x="210" y="160" text-anchor="middle" font-family='ui-monospace, "SF Mono", Menlo, Consolas, monospace' font-size="46" font-weight="700" fill="#FFFFFF" opacity="0" letter-spacing="-0.01em">54,921,038,447<set attributeName="opacity" to="1" begin="1.556s" fill="freeze"/></text>
  </g>

  <!-- left: caption -->
  <text x="210" y="212" text-anchor="middle"
        font-family='ui-monospace, "SF Mono", Menlo, Consolas, monospace' font-size="13" font-weight="400"
        fill="#8B949E" letter-spacing="0.02em" opacity="0">
    30 days. One developer.
    <animate attributeName="opacity" from="0" to="1"
             begin="1.45s" dur="0.5s" fill="freeze"/>
  </text>

  <!-- right: chart -->
  <g clip-path="url(#chartReveal)">
    <path d="M 420.00 259.25 C 423.10 258.89 432.41 257.70 438.62 257.11 C 444.83 256.52 451.03 256.25 457.24 255.72 C 463.45 255.19 469.66 254.75 475.86 253.93 C 482.07 253.12 488.28 251.54 494.48 250.84 C 500.69 250.14 506.90 250.13 513.10 249.74 C 519.31 249.35 525.52 248.78 531.72 248.50 C 537.93 248.22 544.14 248.16 550.34 248.06 C 556.55 247.96 562.76 248.02 568.97 247.92 C 575.17 247.81 581.38 247.72 587.59 247.45 C 593.79 247.17 600.00 247.01 606.21 246.24 C 612.41 245.48 618.62 243.52 624.83 242.87 C 631.03 242.22 637.24 242.53 643.45 242.33 C 649.66 242.13 655.86 244.85 662.07 241.67 C 668.28 238.50 674.48 235.59 680.69 223.29 C 686.90 210.99 693.10 190.29 699.31 167.88 C 705.52 145.47 711.72 102.10 717.93 88.85 C 724.14 75.60 730.34 89.41 736.55 88.36 C 742.76 87.32 748.97 84.54 755.17 82.58 C 761.38 80.61 767.59 78.43 773.79 76.57 C 780.00 74.71 786.21 72.29 792.41 71.43 C 798.62 70.57 804.83 71.45 811.03 71.43 C 817.24 71.41 823.45 72.54 829.66 71.32 C 835.86 70.09 842.07 65.34 848.28 64.08 C 854.48 62.83 860.69 64.30 866.90 63.81 C 873.10 63.32 879.31 61.64 885.52 61.15 C 891.72 60.67 897.93 61.16 904.14 60.90 C 910.34 60.65 916.55 60.11 922.76 59.63 C 928.97 59.16 935.17 58.98 941.38 58.05 C 947.59 57.11 956.90 54.67 960.00 54.00 L 960.00 260.00 L 420.00 260.00 Z" fill="url(#areaGrad)"/>
    <path d="M 420.00 259.25 C 423.10 258.89 432.41 257.70 438.62 257.11 C 444.83 256.52 451.03 256.25 457.24 255.72 C 463.45 255.19 469.66 254.75 475.86 253.93 C 482.07 253.12 488.28 251.54 494.48 250.84 C 500.69 250.14 506.90 250.13 513.10 249.74 C 519.31 249.35 525.52 248.78 531.72 248.50 C 537.93 248.22 544.14 248.16 550.34 248.06 C 556.55 247.96 562.76 248.02 568.97 247.92 C 575.17 247.81 581.38 247.72 587.59 247.45 C 593.79 247.17 600.00 247.01 606.21 246.24 C 612.41 245.48 618.62 243.52 624.83 242.87 C 631.03 242.22 637.24 242.53 643.45 242.33 C 649.66 242.13 655.86 244.85 662.07 241.67 C 668.28 238.50 674.48 235.59 680.69 223.29 C 686.90 210.99 693.10 190.29 699.31 167.88 C 705.52 145.47 711.72 102.10 717.93 88.85 C 724.14 75.60 730.34 89.41 736.55 88.36 C 742.76 87.32 748.97 84.54 755.17 82.58 C 761.38 80.61 767.59 78.43 773.79 76.57 C 780.00 74.71 786.21 72.29 792.41 71.43 C 798.62 70.57 804.83 71.45 811.03 71.43 C 817.24 71.41 823.45 72.54 829.66 71.32 C 835.86 70.09 842.07 65.34 848.28 64.08 C 854.48 62.83 860.69 64.30 866.90 63.81 C 873.10 63.32 879.31 61.64 885.52 61.15 C 891.72 60.67 897.93 61.16 904.14 60.90 C 910.34 60.65 916.55 60.11 922.76 59.63 C 928.97 59.16 935.17 58.98 941.38 58.05 C 947.59 57.11 956.90 54.67 960.00 54.00" fill="none" stroke="#FFFFFF"
          stroke-width="1.6" stroke-linecap="round" stroke-linejoin="round"/>
  </g>

  <!-- right: baseline hairline -->
  <line x1="420" y1="260" x2="960" y2="260"
        stroke="#8B949E" stroke-opacity="0.25" stroke-width="0.5"/>

  <!-- right: peak annotation -->
  <circle cx="960.00" cy="54.00" r="0" fill="#FFFFFF">
    <animate attributeName="r" from="0" to="3.5"
             begin="1.90s" dur="0.35s" fill="freeze"/>
  </circle>
  <text x="952.00" y="44.00" text-anchor="end"
        font-family='ui-monospace, "SF Mono", Menlo, Consolas, monospace' font-size="10" font-weight="500"
        fill="#FFFFFF" opacity="0">
    54,921,038,447
    <animate attributeName="opacity" from="0" to="0.85"
             begin="2.10s" dur="0.4s" fill="freeze"/>
  </text>
</svg>
