<svg xmlns="http://www.w3.org/2000/svg" viewBox="0 0 1000 300" width="1000" height="300" shape-rendering="geometricPrecision" text-rendering="optimizeLegibility" font-rendering="optimizeLegibility">
  <defs>
    <linearGradient id="areaGrad" x1="0" y1="0" x2="0" y2="1">
      <stop offset="0%"  stop-color="#FFFFFF" stop-opacity="0.38"/>
      <stop offset="60%" stop-color="#FFFFFF" stop-opacity="0.08"/>
      <stop offset="100%" stop-color="#0D1117" stop-opacity="0"/>
    </linearGradient>
    <clipPath id="chartReveal">
      <rect x="420" y="0" width="0" height="300">
        <animate attributeName="width" from="0" to="560"
                 begin="0.2s" dur="1.8s" fill="freeze"/>
      </rect>
    </clipPath>
  </defs>

  <!-- background -->
  <rect width="1000" height="300" fill="#0D1117"/>

  <!-- left: small label -->
  <text x="210" y="95" text-anchor="middle"
        font-family='ui-monospace, "SF Mono", Menlo, Consolas, monospace' font-size="10.5" font-weight="500"
        fill="#8B949E" letter-spacing="2.4" opacity="0">
    TOKENS PROCESSED · LAST 30 DAYS
    <animate attributeName="opacity" from="0" to="1"
             begin="0.05s" dur="0.5s" fill="freeze"/>
  </text>

  <!-- left: count-up frames -->
  <g>
    <text x="210" y="160" text-anchor="middle" font-family='ui-monospace, "SF Mono", Menlo, Consolas, monospace' font-size="46" font-weight="700" fill="#FFFFFF" opacity="0" letter-spacing="-0.01em">1,309,391,125<set attributeName="opacity" to="1" begin="0.000s" fill="freeze"/><set attributeName="opacity" to="0" begin="0.044s" fill="freeze"/></text>
    <text x="210" y="160" text-anchor="middle" font-family='ui-monospace, "SF Mono", Menlo, Consolas, monospace' font-size="46" font-weight="700" fill="#FFFFFF" opacity="0" letter-spacing="-0.01em">2,389,456,267<set attributeName="opacity" to="1" begin="0.044s" fill="freeze"/><set attributeName="opacity" to="0" begin="0.089s" fill="freeze"/></text>
    <text x="210" y="160" text-anchor="middle" font-family='ui-monospace, "SF Mono", Menlo, Consolas, monospace' font-size="46" font-weight="700" fill="#FFFFFF" opacity="0" letter-spacing="-0.01em">3,280,359,442<set attributeName="opacity" to="1" begin="0.089s" fill="freeze"/><set attributeName="opacity" to="0" begin="0.133s" fill="freeze"/></text>
    <text x="210" y="160" text-anchor="middle" font-family='ui-monospace, "SF Mono", Menlo, Consolas, monospace' font-size="46" font-weight="700" fill="#FFFFFF" opacity="0" letter-spacing="-0.01em">4,015,230,364<set attributeName="opacity" to="1" begin="0.133s" fill="freeze"/><set attributeName="opacity" to="0" begin="0.178s" fill="freeze"/></text>
    <text x="210" y="160" text-anchor="middle" font-family='ui-monospace, "SF Mono", Menlo, Consolas, monospace' font-size="46" font-weight="700" fill="#FFFFFF" opacity="0" letter-spacing="-0.01em">4,621,396,430<set attributeName="opacity" to="1" begin="0.178s" fill="freeze"/><set attributeName="opacity" to="0" begin="0.222s" fill="freeze"/></text>
    <text x="210" y="160" text-anchor="middle" font-family='ui-monospace, "SF Mono", Menlo, Consolas, monospace' font-size="46" font-weight="700" fill="#FFFFFF" opacity="0" letter-spacing="-0.01em">5,121,398,931<set attributeName="opacity" to="1" begin="0.222s" fill="freeze"/><set attributeName="opacity" to="0" begin="0.267s" fill="freeze"/></text>
    <text x="210" y="160" text-anchor="middle" font-family='ui-monospace, "SF Mono", Menlo, Consolas, monospace' font-size="46" font-weight="700" fill="#FFFFFF" opacity="0" letter-spacing="-0.01em">5,533,831,291<set attributeName="opacity" to="1" begin="0.267s" fill="freeze"/><set attributeName="opacity" to="0" begin="0.311s" fill="freeze"/></text>
    <text x="210" y="160" text-anchor="middle" font-family='ui-monospace, "SF Mono", Menlo, Consolas, monospace' font-size="46" font-weight="700" fill="#FFFFFF" opacity="0" letter-spacing="-0.01em">5,874,030,493<set attributeName="opacity" to="1" begin="0.311s" fill="freeze"/><set attributeName="opacity" to="0" begin="0.356s" fill="freeze"/></text>
    <text x="210" y="160" text-anchor="middle" font-family='ui-monospace, "SF Mono", Menlo, Consolas, monospace' font-size="46" font-weight="700" fill="#FFFFFF" opacity="0" letter-spacing="-0.01em">6,154,647,409<set attributeName="opacity" to="1" begin="0.356s" fill="freeze"/><set attributeName="opacity" to="0" begin="0.400s" fill="freeze"/></text>
    <text x="210" y="160" text-anchor="middle" font-family='ui-monospace, "SF Mono", Menlo, Consolas, monospace' font-size="46" font-weight="700" fill="#FFFFFF" opacity="0" letter-spacing="-0.01em">6,386,117,245<set attributeName="opacity" to="1" begin="0.400s" fill="freeze"/><set attributeName="opacity" to="0" begin="0.444s" fill="freeze"/></text>
    <text x="210" y="160" text-anchor="middle" font-family='ui-monospace, "SF Mono", Menlo, Consolas, monospace' font-size="46" font-weight="700" fill="#FFFFFF" opacity="0" letter-spacing="-0.01em">6,577,047,591<set attributeName="opacity" to="1" begin="0.444s" fill="freeze"/><set attributeName="opacity" to="0" begin="0.489s" fill="freeze"/></text>
    <text x="210" y="160" text-anchor="middle" font-family='ui-monospace, "SF Mono", Menlo, Consolas, monospace' font-size="46" font-weight="700" fill="#FFFFFF" opacity="0" letter-spacing="-0.01em">6,734,538,511<set attributeName="opacity" to="1" begin="0.489s" fill="freeze"/><set attributeName="opacity" to="0" begin="0.533s" fill="freeze"/></text>
    <text x="210" y="160" text-anchor="middle" font-family='ui-monospace, "SF Mono", Menlo, Consolas, monospace' font-size="46" font-weight="700" fill="#FFFFFF" opacity="0" letter-spacing="-0.01em">6,864,446,564<set attributeName="opacity" to="1" begin="0.533s" fill="freeze"/><set attributeName="opacity" to="0" begin="0.578s" fill="freeze"/></text>
    <text x="210" y="160" text-anchor="middle" font-family='ui-monospace, "SF Mono", Menlo, Consolas, monospace' font-size="46" font-weight="700" fill="#FFFFFF" opacity="0" letter-spacing="-0.01em">6,971,602,598<set attributeName="opacity" to="1" begin="0.578s" fill="freeze"/><set attributeName="opacity" to="0" begin="0.622s" fill="freeze"/></text>
    <text x="210" y="160" text-anchor="middle" font-family='ui-monospace, "SF Mono", Menlo, Consolas, monospace' font-size="46" font-weight="700" fill="#FFFFFF" opacity="0" letter-spacing="-0.01em">7,059,991,387<set attributeName="opacity" to="1" begin="0.622s" fill="freeze"/><set attributeName="opacity" to="0" begin="0.667s" fill="freeze"/></text>
    <text x="210" y="160" text-anchor="middle" font-family='ui-monospace, "SF Mono", Menlo, Consolas, monospace' font-size="46" font-weight="700" fill="#FFFFFF" opacity="0" letter-spacing="-0.01em">7,132,899,817<set attributeName="opacity" to="1" begin="0.667s" fill="freeze"/><set attributeName="opacity" to="0" begin="0.711s" fill="freeze"/></text>
    <text x="210" y="160" text-anchor="middle" font-family='ui-monospace, "SF Mono", Menlo, Consolas, monospace' font-size="46" font-weight="700" fill="#FFFFFF" opacity="0" letter-spacing="-0.01em">7,193,039,108<set attributeName="opacity" to="1" begin="0.711s" fill="freeze"/><set attributeName="opacity" to="0" begin="0.756s" fill="freeze"/></text>
    <text x="210" y="160" text-anchor="middle" font-family='ui-monospace, "SF Mono", Menlo, Consolas, monospace' font-size="46" font-weight="700" fill="#FFFFFF" opacity="0" letter-spacing="-0.01em">7,242,645,639<set attributeName="opacity" to="1" begin="0.756s" fill="freeze"/><set attributeName="opacity" to="0" begin="0.800s" fill="freeze"/></text>
    <text x="210" y="160" text-anchor="middle" font-family='ui-monospace, "SF Mono", Menlo, Consolas, monospace' font-size="46" font-weight="700" fill="#FFFFFF" opacity="0" letter-spacing="-0.01em">7,283,564,111<set attributeName="opacity" to="1" begin="0.800s" fill="freeze"/><set attributeName="opacity" to="0" begin="0.844s" fill="freeze"/></text>
    <text x="210" y="160" text-anchor="middle" font-family='ui-monospace, "SF Mono", Menlo, Consolas, monospace' font-size="46" font-weight="700" fill="#FFFFFF" opacity="0" letter-spacing="-0.01em">7,317,316,147<set attributeName="opacity" to="1" begin="0.844s" fill="freeze"/><set attributeName="opacity" to="0" begin="0.889s" fill="freeze"/></text>
    <text x="210" y="160" text-anchor="middle" font-family='ui-monospace, "SF Mono", Menlo, Consolas, monospace' font-size="46" font-weight="700" fill="#FFFFFF" opacity="0" letter-spacing="-0.01em">7,345,156,871<set attributeName="opacity" to="1" begin="0.889s" fill="freeze"/><set attributeName="opacity" to="0" begin="0.933s" fill="freeze"/></text>
    <text x="210" y="160" text-anchor="middle" font-family='ui-monospace, "SF Mono", Menlo, Consolas, monospace' font-size="46" font-weight="700" fill="#FFFFFF" opacity="0" letter-spacing="-0.01em">7,368,121,588<set attributeName="opacity" to="1" begin="0.933s" fill="freeze"/><set attributeName="opacity" to="0" begin="0.978s" fill="freeze"/></text>
    <text x="210" y="160" text-anchor="middle" font-family='ui-monospace, "SF Mono", Menlo, Consolas, monospace' font-size="46" font-weight="700" fill="#FFFFFF" opacity="0" letter-spacing="-0.01em">7,387,064,277<set attributeName="opacity" to="1" begin="0.978s" fill="freeze"/><set attributeName="opacity" to="0" begin="1.022s" fill="freeze"/></text>
    <text x="210" y="160" text-anchor="middle" font-family='ui-monospace, "SF Mono", Menlo, Consolas, monospace' font-size="46" font-weight="700" fill="#FFFFFF" opacity="0" letter-spacing="-0.01em">7,402,689,355<set attributeName="opacity" to="1" begin="1.022s" fill="freeze"/><set attributeName="opacity" to="0" begin="1.067s" fill="freeze"/></text>
    <text x="210" y="160" text-anchor="middle" font-family='ui-monospace, "SF Mono", Menlo, Consolas, monospace' font-size="46" font-weight="700" fill="#FFFFFF" opacity="0" letter-spacing="-0.01em">7,415,577,867<set attributeName="opacity" to="1" begin="1.067s" fill="freeze"/><set attributeName="opacity" to="0" begin="1.111s" fill="freeze"/></text>
    <text x="210" y="160" text-anchor="middle" font-family='ui-monospace, "SF Mono", Menlo, Consolas, monospace' font-size="46" font-weight="700" fill="#FFFFFF" opacity="0" letter-spacing="-0.01em">7,426,209,092<set attributeName="opacity" to="1" begin="1.111s" fill="freeze"/><set attributeName="opacity" to="0" begin="1.156s" fill="freeze"/></text>
    <text x="210" y="160" text-anchor="middle" font-family='ui-monospace, "SF Mono", Menlo, Consolas, monospace' font-size="46" font-weight="700" fill="#FFFFFF" opacity="0" letter-spacing="-0.01em">7,434,978,370<set attributeName="opacity" to="1" begin="1.156s" fill="freeze"/><set attributeName="opacity" to="0" begin="1.200s" fill="freeze"/></text>
    <text x="210" y="160" text-anchor="middle" font-family='ui-monospace, "SF Mono", Menlo, Consolas, monospace' font-size="46" font-weight="700" fill="#FFFFFF" opacity="0" letter-spacing="-0.01em">7,442,211,803<set attributeName="opacity" to="1" begin="1.200s" fill="freeze"/><set attributeName="opacity" to="0" begin="1.244s" fill="freeze"/></text>
    <text x="210" y="160" text-anchor="middle" font-family='ui-monospace, "SF Mono", Menlo, Consolas, monospace' font-size="46" font-weight="700" fill="#FFFFFF" opacity="0" letter-spacing="-0.01em">7,448,178,376<set attributeName="opacity" to="1" begin="1.244s" fill="freeze"/><set attributeName="opacity" to="0" begin="1.289s" fill="freeze"/></text>
    <text x="210" y="160" text-anchor="middle" font-family='ui-monospace, "SF Mono", Menlo, Consolas, monospace' font-size="46" font-weight="700" fill="#FFFFFF" opacity="0" letter-spacing="-0.01em">7,453,099,967<set attributeName="opacity" to="1" begin="1.289s" fill="freeze"/><set attributeName="opacity" to="0" begin="1.333s" fill="freeze"/></text>
    <text x="210" y="160" text-anchor="middle" font-family='ui-monospace, "SF Mono", Menlo, Consolas, monospace' font-size="46" font-weight="700" fill="#FFFFFF" opacity="0" letter-spacing="-0.01em">7,457,159,594<set attributeName="opacity" to="1" begin="1.333s" fill="freeze"/><set attributeName="opacity" to="0" begin="1.378s" fill="freeze"/></text>
    <text x="210" y="160" text-anchor="middle" font-family='ui-monospace, "SF Mono", Menlo, Consolas, monospace' font-size="46" font-weight="700" fill="#FFFFFF" opacity="0" letter-spacing="-0.01em">7,460,508,220<set attributeName="opacity" to="1" begin="1.378s" fill="freeze"/><set attributeName="opacity" to="0" begin="1.422s" fill="freeze"/></text>
    <text x="210" y="160" text-anchor="middle" font-family='ui-monospace, "SF Mono", Menlo, Consolas, monospace' font-size="46" font-weight="700" fill="#FFFFFF" opacity="0" letter-spacing="-0.01em">7,463,270,370<set attributeName="opacity" to="1" begin="1.422s" fill="freeze"/><set attributeName="opacity" to="0" begin="1.467s" fill="freeze"/></text>
    <text x="210" y="160" text-anchor="middle" font-family='ui-monospace, "SF Mono", Menlo, Consolas, monospace' font-size="46" font-weight="700" fill="#FFFFFF" opacity="0" letter-spacing="-0.01em">7,465,548,758<set attributeName="opacity" to="1" begin="1.467s" fill="freeze"/><set attributeName="opacity" to="0" begin="1.511s" fill="freeze"/></text>
    <text x="210" y="160" text-anchor="middle" font-family='ui-monospace, "SF Mono", Menlo, Consolas, monospace' font-size="46" font-weight="700" fill="#FFFFFF" opacity="0" letter-spacing="-0.01em">7,467,428,111<set attributeName="opacity" to="1" begin="1.511s" fill="freeze"/><set attributeName="opacity" to="0" begin="1.556s" fill="freeze"/></text>
    <text x="210" y="160" text-anchor="middle" font-family='ui-monospace, "SF Mono", Menlo, Consolas, monospace' font-size="46" font-weight="700" fill="#FFFFFF" opacity="0" letter-spacing="-0.01em">7,476,279,369<set attributeName="opacity" to="1" begin="1.556s" fill="freeze"/></text>
  </g>

  <!-- left: caption -->
  <text x="210" y="212" text-anchor="middle"
        font-family='ui-monospace, "SF Mono", Menlo, Consolas, monospace' font-size="13" font-weight="400"
        fill="#8B949E" letter-spacing="0.02em" opacity="0">
    30 days. One developer.
    <animate attributeName="opacity" from="0" to="1"
             begin="1.45s" dur="0.5s" fill="freeze"/>
  </text>

  <!-- right: chart -->
  <g clip-path="url(#chartReveal)">
    <path d="M 420.00 255.53 C 423.10 254.01 432.41 248.13 438.62 246.41 C 444.83 244.69 451.03 247.93 457.24 245.19 C 463.45 242.46 469.66 233.26 475.86 229.99 C 482.07 226.72 488.28 227.69 494.48 225.57 C 500.69 223.45 506.90 219.59 513.10 217.27 C 519.31 214.94 525.52 216.27 531.72 211.63 C 537.93 206.99 544.14 193.86 550.34 189.43 C 556.55 184.99 562.76 187.17 568.97 185.02 C 575.17 182.88 581.38 180.90 587.59 176.56 C 593.79 172.22 600.00 161.95 606.21 158.96 C 612.41 155.97 618.62 158.92 624.83 158.62 C 631.03 158.32 637.24 158.74 643.45 157.19 C 649.66 155.63 655.86 151.17 662.07 149.28 C 668.28 147.40 674.48 146.53 680.69 145.88 C 686.90 145.23 693.10 145.72 699.31 145.39 C 705.52 145.05 711.72 146.93 717.93 143.89 C 724.14 140.84 730.34 130.12 736.55 127.12 C 742.76 124.12 748.97 127.16 755.17 125.90 C 761.38 124.64 767.59 121.23 773.79 119.57 C 780.00 117.91 786.21 117.31 792.41 115.94 C 798.62 114.57 804.83 114.58 811.03 111.34 C 817.24 108.09 823.45 99.05 829.66 96.48 C 835.86 93.91 842.07 98.11 848.28 95.92 C 854.48 93.72 860.69 86.00 866.90 83.32 C 873.10 80.64 879.31 83.66 885.52 79.83 C 891.72 76.01 897.93 63.72 904.14 60.39 C 910.34 57.06 916.55 60.73 922.76 59.84 C 928.97 58.95 935.17 56.01 941.38 55.04 C 947.59 54.06 956.90 54.17 960.00 54.00 L 960.00 260.00 L 420.00 260.00 Z" fill="url(#areaGrad)"/>
    <path d="M 420.00 255.53 C 423.10 254.01 432.41 248.13 438.62 246.41 C 444.83 244.69 451.03 247.93 457.24 245.19 C 463.45 242.46 469.66 233.26 475.86 229.99 C 482.07 226.72 488.28 227.69 494.48 225.57 C 500.69 223.45 506.90 219.59 513.10 217.27 C 519.31 214.94 525.52 216.27 531.72 211.63 C 537.93 206.99 544.14 193.86 550.34 189.43 C 556.55 184.99 562.76 187.17 568.97 185.02 C 575.17 182.88 581.38 180.90 587.59 176.56 C 593.79 172.22 600.00 161.95 606.21 158.96 C 612.41 155.97 618.62 158.92 624.83 158.62 C 631.03 158.32 637.24 158.74 643.45 157.19 C 649.66 155.63 655.86 151.17 662.07 149.28 C 668.28 147.40 674.48 146.53 680.69 145.88 C 686.90 145.23 693.10 145.72 699.31 145.39 C 705.52 145.05 711.72 146.93 717.93 143.89 C 724.14 140.84 730.34 130.12 736.55 127.12 C 742.76 124.12 748.97 127.16 755.17 125.90 C 761.38 124.64 767.59 121.23 773.79 119.57 C 780.00 117.91 786.21 117.31 792.41 115.94 C 798.62 114.57 804.83 114.58 811.03 111.34 C 817.24 108.09 823.45 99.05 829.66 96.48 C 835.86 93.91 842.07 98.11 848.28 95.92 C 854.48 93.72 860.69 86.00 866.90 83.32 C 873.10 80.64 879.31 83.66 885.52 79.83 C 891.72 76.01 897.93 63.72 904.14 60.39 C 910.34 57.06 916.55 60.73 922.76 59.84 C 928.97 58.95 935.17 56.01 941.38 55.04 C 947.59 54.06 956.90 54.17 960.00 54.00" fill="none" stroke="#FFFFFF"
          stroke-width="1.6" stroke-linecap="round" stroke-linejoin="round"/>
  </g>

  <!-- right: baseline hairline -->
  <line x1="420" y1="260" x2="960" y2="260"
        stroke="#8B949E" stroke-opacity="0.25" stroke-width="0.5"/>

  <!-- right: peak annotation -->
  <circle cx="960.00" cy="54.00" r="0" fill="#FFFFFF">
    <animate attributeName="r" from="0" to="3.5"
             begin="1.90s" dur="0.35s" fill="freeze"/>
  </circle>
  <text x="952.00" y="44.00" text-anchor="end"
        font-family='ui-monospace, "SF Mono", Menlo, Consolas, monospace' font-size="10" font-weight="500"
        fill="#FFFFFF" opacity="0">
    7,476,279,369
    <animate attributeName="opacity" from="0" to="0.85"
             begin="2.10s" dur="0.4s" fill="freeze"/>
  </text>
</svg>
