<svg xmlns="http://www.w3.org/2000/svg" viewBox="0 0 1000 300" width="1000" height="300" shape-rendering="geometricPrecision" text-rendering="optimizeLegibility" font-rendering="optimizeLegibility">
  <defs>
    <linearGradient id="areaGrad" x1="0" y1="0" x2="0" y2="1">
      <stop offset="0%"  stop-color="#FFFFFF" stop-opacity="0.38"/>
      <stop offset="60%" stop-color="#FFFFFF" stop-opacity="0.08"/>
      <stop offset="100%" stop-color="#0D1117" stop-opacity="0"/>
    </linearGradient>
    <clipPath id="chartReveal">
      <rect x="420" y="0" width="0" height="300">
        <animate attributeName="width" from="0" to="560"
                 begin="0.2s" dur="1.8s" fill="freeze"/>
      </rect>
    </clipPath>
  </defs>

  <!-- background -->
  <rect width="1000" height="300" fill="#0D1117"/>

  <!-- left: small label -->
  <text x="210" y="95" text-anchor="middle"
        font-family='ui-monospace, "SF Mono", Menlo, Consolas, monospace' font-size="10.5" font-weight="500"
        fill="#8B949E" letter-spacing="2.4" opacity="0">
    TOKENS PROCESSED · LAST 60 DAYS
    <animate attributeName="opacity" from="0" to="1"
             begin="0.05s" dur="0.5s" fill="freeze"/>
  </text>

  <!-- left: count-up frames -->
  <g>
    <text x="210" y="160" text-anchor="middle" font-family='ui-monospace, "SF Mono", Menlo, Consolas, monospace' font-size="46" font-weight="700" fill="#FFFFFF" opacity="0" letter-spacing="-0.01em">602,795,107<set attributeName="opacity" to="1" begin="0.000s" fill="freeze"/><set attributeName="opacity" to="0" begin="0.044s" fill="freeze"/></text>
    <text x="210" y="160" text-anchor="middle" font-family='ui-monospace, "SF Mono", Menlo, Consolas, monospace' font-size="46" font-weight="700" fill="#FFFFFF" opacity="0" letter-spacing="-0.01em">1,100,017,038<set attributeName="opacity" to="1" begin="0.044s" fill="freeze"/><set attributeName="opacity" to="0" begin="0.089s" fill="freeze"/></text>
    <text x="210" y="160" text-anchor="middle" font-family='ui-monospace, "SF Mono", Menlo, Consolas, monospace' font-size="46" font-weight="700" fill="#FFFFFF" opacity="0" letter-spacing="-0.01em">1,510,155,815<set attributeName="opacity" to="1" begin="0.089s" fill="freeze"/><set attributeName="opacity" to="0" begin="0.133s" fill="freeze"/></text>
    <text x="210" y="160" text-anchor="middle" font-family='ui-monospace, "SF Mono", Menlo, Consolas, monospace' font-size="46" font-weight="700" fill="#FFFFFF" opacity="0" letter-spacing="-0.01em">1,848,463,130<set attributeName="opacity" to="1" begin="0.133s" fill="freeze"/><set attributeName="opacity" to="0" begin="0.178s" fill="freeze"/></text>
    <text x="210" y="160" text-anchor="middle" font-family='ui-monospace, "SF Mono", Menlo, Consolas, monospace' font-size="46" font-weight="700" fill="#FFFFFF" opacity="0" letter-spacing="-0.01em">2,127,519,504<set attributeName="opacity" to="1" begin="0.178s" fill="freeze"/><set attributeName="opacity" to="0" begin="0.222s" fill="freeze"/></text>
    <text x="210" y="160" text-anchor="middle" font-family='ui-monospace, "SF Mono", Menlo, Consolas, monospace' font-size="46" font-weight="700" fill="#FFFFFF" opacity="0" letter-spacing="-0.01em">2,357,702,109<set attributeName="opacity" to="1" begin="0.222s" fill="freeze"/><set attributeName="opacity" to="0" begin="0.267s" fill="freeze"/></text>
    <text x="210" y="160" text-anchor="middle" font-family='ui-monospace, "SF Mono", Menlo, Consolas, monospace' font-size="46" font-weight="700" fill="#FFFFFF" opacity="0" letter-spacing="-0.01em">2,547,570,671<set attributeName="opacity" to="1" begin="0.267s" fill="freeze"/><set attributeName="opacity" to="0" begin="0.311s" fill="freeze"/></text>
    <text x="210" y="160" text-anchor="middle" font-family='ui-monospace, "SF Mono", Menlo, Consolas, monospace' font-size="46" font-weight="700" fill="#FFFFFF" opacity="0" letter-spacing="-0.01em">2,704,185,765<set attributeName="opacity" to="1" begin="0.311s" fill="freeze"/><set attributeName="opacity" to="0" begin="0.356s" fill="freeze"/></text>
    <text x="210" y="160" text-anchor="middle" font-family='ui-monospace, "SF Mono", Menlo, Consolas, monospace' font-size="46" font-weight="700" fill="#FFFFFF" opacity="0" letter-spacing="-0.01em">2,833,371,384<set attributeName="opacity" to="1" begin="0.356s" fill="freeze"/><set attributeName="opacity" to="0" begin="0.400s" fill="freeze"/></text>
    <text x="210" y="160" text-anchor="middle" font-family='ui-monospace, "SF Mono", Menlo, Consolas, monospace' font-size="46" font-weight="700" fill="#FFFFFF" opacity="0" letter-spacing="-0.01em">2,939,931,511<set attributeName="opacity" to="1" begin="0.400s" fill="freeze"/><set attributeName="opacity" to="0" begin="0.444s" fill="freeze"/></text>
    <text x="210" y="160" text-anchor="middle" font-family='ui-monospace, "SF Mono", Menlo, Consolas, monospace' font-size="46" font-weight="700" fill="#FFFFFF" opacity="0" letter-spacing="-0.01em">3,027,828,761<set attributeName="opacity" to="1" begin="0.444s" fill="freeze"/><set attributeName="opacity" to="0" begin="0.489s" fill="freeze"/></text>
    <text x="210" y="160" text-anchor="middle" font-family='ui-monospace, "SF Mono", Menlo, Consolas, monospace' font-size="46" font-weight="700" fill="#FFFFFF" opacity="0" letter-spacing="-0.01em">3,100,331,739<set attributeName="opacity" to="1" begin="0.489s" fill="freeze"/><set attributeName="opacity" to="0" begin="0.533s" fill="freeze"/></text>
    <text x="210" y="160" text-anchor="middle" font-family='ui-monospace, "SF Mono", Menlo, Consolas, monospace' font-size="46" font-weight="700" fill="#FFFFFF" opacity="0" letter-spacing="-0.01em">3,160,136,588<set attributeName="opacity" to="1" begin="0.533s" fill="freeze"/><set attributeName="opacity" to="0" begin="0.578s" fill="freeze"/></text>
    <text x="210" y="160" text-anchor="middle" font-family='ui-monospace, "SF Mono", Menlo, Consolas, monospace' font-size="46" font-weight="700" fill="#FFFFFF" opacity="0" letter-spacing="-0.01em">3,209,467,251<set attributeName="opacity" to="1" begin="0.578s" fill="freeze"/><set attributeName="opacity" to="0" begin="0.622s" fill="freeze"/></text>
    <text x="210" y="160" text-anchor="middle" font-family='ui-monospace, "SF Mono", Menlo, Consolas, monospace' font-size="46" font-weight="700" fill="#FFFFFF" opacity="0" letter-spacing="-0.01em">3,250,158,172<set attributeName="opacity" to="1" begin="0.622s" fill="freeze"/><set attributeName="opacity" to="0" begin="0.667s" fill="freeze"/></text>
    <text x="210" y="160" text-anchor="middle" font-family='ui-monospace, "SF Mono", Menlo, Consolas, monospace' font-size="46" font-weight="700" fill="#FFFFFF" opacity="0" letter-spacing="-0.01em">3,283,722,509<set attributeName="opacity" to="1" begin="0.667s" fill="freeze"/><set attributeName="opacity" to="0" begin="0.711s" fill="freeze"/></text>
    <text x="210" y="160" text-anchor="middle" font-family='ui-monospace, "SF Mono", Menlo, Consolas, monospace' font-size="46" font-weight="700" fill="#FFFFFF" opacity="0" letter-spacing="-0.01em">3,311,408,407<set attributeName="opacity" to="1" begin="0.711s" fill="freeze"/><set attributeName="opacity" to="0" begin="0.756s" fill="freeze"/></text>
    <text x="210" y="160" text-anchor="middle" font-family='ui-monospace, "SF Mono", Menlo, Consolas, monospace' font-size="46" font-weight="700" fill="#FFFFFF" opacity="0" letter-spacing="-0.01em">3,334,245,414<set attributeName="opacity" to="1" begin="0.756s" fill="freeze"/><set attributeName="opacity" to="0" begin="0.800s" fill="freeze"/></text>
    <text x="210" y="160" text-anchor="middle" font-family='ui-monospace, "SF Mono", Menlo, Consolas, monospace' font-size="46" font-weight="700" fill="#FFFFFF" opacity="0" letter-spacing="-0.01em">3,353,082,761<set attributeName="opacity" to="1" begin="0.800s" fill="freeze"/><set attributeName="opacity" to="0" begin="0.844s" fill="freeze"/></text>
    <text x="210" y="160" text-anchor="middle" font-family='ui-monospace, "SF Mono", Menlo, Consolas, monospace' font-size="46" font-weight="700" fill="#FFFFFF" opacity="0" letter-spacing="-0.01em">3,368,620,947<set attributeName="opacity" to="1" begin="0.844s" fill="freeze"/><set attributeName="opacity" to="0" begin="0.889s" fill="freeze"/></text>
    <text x="210" y="160" text-anchor="middle" font-family='ui-monospace, "SF Mono", Menlo, Consolas, monospace' font-size="46" font-weight="700" fill="#FFFFFF" opacity="0" letter-spacing="-0.01em">3,381,437,784<set attributeName="opacity" to="1" begin="0.889s" fill="freeze"/><set attributeName="opacity" to="0" begin="0.933s" fill="freeze"/></text>
    <text x="210" y="160" text-anchor="middle" font-family='ui-monospace, "SF Mono", Menlo, Consolas, monospace' font-size="46" font-weight="700" fill="#FFFFFF" opacity="0" letter-spacing="-0.01em">3,392,009,887<set attributeName="opacity" to="1" begin="0.933s" fill="freeze"/><set attributeName="opacity" to="0" begin="0.978s" fill="freeze"/></text>
    <text x="210" y="160" text-anchor="middle" font-family='ui-monospace, "SF Mono", Menlo, Consolas, monospace' font-size="46" font-weight="700" fill="#FFFFFF" opacity="0" letter-spacing="-0.01em">3,400,730,399<set attributeName="opacity" to="1" begin="0.978s" fill="freeze"/><set attributeName="opacity" to="0" begin="1.022s" fill="freeze"/></text>
    <text x="210" y="160" text-anchor="middle" font-family='ui-monospace, "SF Mono", Menlo, Consolas, monospace' font-size="46" font-weight="700" fill="#FFFFFF" opacity="0" letter-spacing="-0.01em">3,407,923,605<set attributeName="opacity" to="1" begin="1.022s" fill="freeze"/><set attributeName="opacity" to="0" begin="1.067s" fill="freeze"/></text>
    <text x="210" y="160" text-anchor="middle" font-family='ui-monospace, "SF Mono", Menlo, Consolas, monospace' font-size="46" font-weight="700" fill="#FFFFFF" opacity="0" letter-spacing="-0.01em">3,413,856,998<set attributeName="opacity" to="1" begin="1.067s" fill="freeze"/><set attributeName="opacity" to="0" begin="1.111s" fill="freeze"/></text>
    <text x="210" y="160" text-anchor="middle" font-family='ui-monospace, "SF Mono", Menlo, Consolas, monospace' font-size="46" font-weight="700" fill="#FFFFFF" opacity="0" letter-spacing="-0.01em">3,418,751,219<set attributeName="opacity" to="1" begin="1.111s" fill="freeze"/><set attributeName="opacity" to="0" begin="1.156s" fill="freeze"/></text>
    <text x="210" y="160" text-anchor="middle" font-family='ui-monospace, "SF Mono", Menlo, Consolas, monospace' font-size="46" font-weight="700" fill="#FFFFFF" opacity="0" letter-spacing="-0.01em">3,422,788,270<set attributeName="opacity" to="1" begin="1.156s" fill="freeze"/><set attributeName="opacity" to="0" begin="1.200s" fill="freeze"/></text>
    <text x="210" y="160" text-anchor="middle" font-family='ui-monospace, "SF Mono", Menlo, Consolas, monospace' font-size="46" font-weight="700" fill="#FFFFFF" opacity="0" letter-spacing="-0.01em">3,426,118,274<set attributeName="opacity" to="1" begin="1.200s" fill="freeze"/><set attributeName="opacity" to="0" begin="1.244s" fill="freeze"/></text>
    <text x="210" y="160" text-anchor="middle" font-family='ui-monospace, "SF Mono", Menlo, Consolas, monospace' font-size="46" font-weight="700" fill="#FFFFFF" opacity="0" letter-spacing="-0.01em">3,428,865,063<set attributeName="opacity" to="1" begin="1.244s" fill="freeze"/><set attributeName="opacity" to="0" begin="1.289s" fill="freeze"/></text>
    <text x="210" y="160" text-anchor="middle" font-family='ui-monospace, "SF Mono", Menlo, Consolas, monospace' font-size="46" font-weight="700" fill="#FFFFFF" opacity="0" letter-spacing="-0.01em">3,431,130,781<set attributeName="opacity" to="1" begin="1.289s" fill="freeze"/><set attributeName="opacity" to="0" begin="1.333s" fill="freeze"/></text>
    <text x="210" y="160" text-anchor="middle" font-family='ui-monospace, "SF Mono", Menlo, Consolas, monospace' font-size="46" font-weight="700" fill="#FFFFFF" opacity="0" letter-spacing="-0.01em">3,432,999,683<set attributeName="opacity" to="1" begin="1.333s" fill="freeze"/><set attributeName="opacity" to="0" begin="1.378s" fill="freeze"/></text>
    <text x="210" y="160" text-anchor="middle" font-family='ui-monospace, "SF Mono", Menlo, Consolas, monospace' font-size="46" font-weight="700" fill="#FFFFFF" opacity="0" letter-spacing="-0.01em">3,434,541,266<set attributeName="opacity" to="1" begin="1.378s" fill="freeze"/><set attributeName="opacity" to="0" begin="1.422s" fill="freeze"/></text>
    <text x="210" y="160" text-anchor="middle" font-family='ui-monospace, "SF Mono", Menlo, Consolas, monospace' font-size="46" font-weight="700" fill="#FFFFFF" opacity="0" letter-spacing="-0.01em">3,435,812,857<set attributeName="opacity" to="1" begin="1.422s" fill="freeze"/><set attributeName="opacity" to="0" begin="1.467s" fill="freeze"/></text>
    <text x="210" y="160" text-anchor="middle" font-family='ui-monospace, "SF Mono", Menlo, Consolas, monospace' font-size="46" font-weight="700" fill="#FFFFFF" opacity="0" letter-spacing="-0.01em">3,436,861,743<set attributeName="opacity" to="1" begin="1.467s" fill="freeze"/><set attributeName="opacity" to="0" begin="1.511s" fill="freeze"/></text>
    <text x="210" y="160" text-anchor="middle" font-family='ui-monospace, "SF Mono", Menlo, Consolas, monospace' font-size="46" font-weight="700" fill="#FFFFFF" opacity="0" letter-spacing="-0.01em">3,437,726,927<set attributeName="opacity" to="1" begin="1.511s" fill="freeze"/><set attributeName="opacity" to="0" begin="1.556s" fill="freeze"/></text>
    <text x="210" y="160" text-anchor="middle" font-family='ui-monospace, "SF Mono", Menlo, Consolas, monospace' font-size="46" font-weight="700" fill="#FFFFFF" opacity="0" letter-spacing="-0.01em">3,441,801,718<set attributeName="opacity" to="1" begin="1.556s" fill="freeze"/></text>
  </g>

  <!-- left: caption -->
  <text x="210" y="212" text-anchor="middle"
        font-family='ui-monospace, "SF Mono", Menlo, Consolas, monospace' font-size="13" font-weight="400"
        fill="#8B949E" letter-spacing="0.02em" opacity="0">
    60 days. One developer.
    <animate attributeName="opacity" from="0" to="1"
             begin="1.45s" dur="0.5s" fill="freeze"/>
  </text>

  <!-- right: chart -->
  <g clip-path="url(#chartReveal)">
    <path d="M 420.00 259.73 C 421.53 259.69 426.10 259.58 429.15 259.50 C 432.20 259.42 435.25 259.30 438.31 259.25 C 441.36 259.20 444.41 259.35 447.46 259.22 C 450.51 259.08 453.56 258.73 456.61 258.45 C 459.66 258.17 462.71 257.70 465.76 257.53 C 468.81 257.37 471.86 257.81 474.92 257.48 C 477.97 257.14 481.02 255.92 484.07 255.50 C 487.12 255.09 490.17 255.31 493.22 254.99 C 496.27 254.66 499.32 254.25 502.37 253.54 C 505.42 252.84 508.47 251.38 511.53 250.73 C 514.58 250.08 517.63 250.46 520.68 249.63 C 523.73 248.81 526.78 246.43 529.83 245.78 C 532.88 245.14 535.93 245.82 538.98 245.77 C 542.03 245.72 545.08 245.83 548.14 245.49 C 551.19 245.14 554.24 244.20 557.29 243.70 C 560.34 243.21 563.39 242.94 566.44 242.50 C 569.49 242.06 572.54 241.43 575.59 241.09 C 578.64 240.74 581.69 240.63 584.75 240.40 C 587.80 240.17 590.85 240.15 593.90 239.72 C 596.95 239.28 600.00 238.13 603.05 237.80 C 606.10 237.47 609.15 238.03 612.20 237.73 C 615.25 237.44 618.31 236.93 621.36 236.03 C 624.41 235.13 627.46 233.08 630.51 232.32 C 633.56 231.55 636.61 231.77 639.66 231.44 C 642.71 231.10 645.76 230.80 648.81 230.32 C 651.86 229.84 654.92 229.12 657.97 228.56 C 661.02 228.00 664.07 227.32 667.12 226.96 C 670.17 226.60 673.22 228.21 676.27 226.41 C 679.32 224.61 682.37 218.57 685.42 216.14 C 688.47 213.72 691.53 213.55 694.58 211.86 C 697.63 210.17 700.68 208.27 703.73 206.00 C 706.78 203.72 709.83 199.52 712.88 198.22 C 715.93 196.92 718.98 198.93 722.03 198.20 C 725.08 197.47 728.14 196.12 731.19 193.84 C 734.24 191.55 737.29 188.00 740.34 184.49 C 743.39 180.98 746.44 174.96 749.49 172.78 C 752.54 170.59 755.59 171.70 758.64 171.38 C 761.69 171.07 764.75 172.30 767.80 170.88 C 770.85 169.45 773.90 166.50 776.95 162.82 C 780.00 159.15 783.05 151.39 786.10 148.82 C 789.15 146.26 792.20 147.82 795.25 147.44 C 798.31 147.06 801.36 146.82 804.41 146.54 C 807.46 146.26 810.51 146.36 813.56 145.75 C 816.61 145.14 819.66 144.30 822.71 142.87 C 825.76 141.44 828.81 140.33 831.86 137.19 C 834.92 134.05 837.97 127.11 841.02 124.04 C 844.07 120.97 847.12 122.28 850.17 118.77 C 853.22 115.26 856.27 105.62 859.32 102.95 C 862.37 100.29 865.42 102.82 868.47 102.79 C 871.53 102.76 874.58 103.02 877.63 102.77 C 880.68 102.53 883.73 102.42 886.78 101.31 C 889.83 100.20 892.88 97.38 895.93 96.11 C 898.98 94.84 902.03 94.17 905.08 93.69 C 908.14 93.21 911.19 94.58 914.24 93.22 C 917.29 91.85 920.34 86.93 923.39 85.51 C 926.44 84.08 929.49 84.86 932.54 84.67 C 935.59 84.49 938.64 88.74 941.69 84.39 C 944.75 80.04 947.80 63.65 950.85 58.59 C 953.90 53.52 958.47 54.76 960.00 54.00 L 960.00 260.00 L 420.00 260.00 Z" fill="url(#areaGrad)"/>
    <path d="M 420.00 259.73 C 421.53 259.69 426.10 259.58 429.15 259.50 C 432.20 259.42 435.25 259.30 438.31 259.25 C 441.36 259.20 444.41 259.35 447.46 259.22 C 450.51 259.08 453.56 258.73 456.61 258.45 C 459.66 258.17 462.71 257.70 465.76 257.53 C 468.81 257.37 471.86 257.81 474.92 257.48 C 477.97 257.14 481.02 255.92 484.07 255.50 C 487.12 255.09 490.17 255.31 493.22 254.99 C 496.27 254.66 499.32 254.25 502.37 253.54 C 505.42 252.84 508.47 251.38 511.53 250.73 C 514.58 250.08 517.63 250.46 520.68 249.63 C 523.73 248.81 526.78 246.43 529.83 245.78 C 532.88 245.14 535.93 245.82 538.98 245.77 C 542.03 245.72 545.08 245.83 548.14 245.49 C 551.19 245.14 554.24 244.20 557.29 243.70 C 560.34 243.21 563.39 242.94 566.44 242.50 C 569.49 242.06 572.54 241.43 575.59 241.09 C 578.64 240.74 581.69 240.63 584.75 240.40 C 587.80 240.17 590.85 240.15 593.90 239.72 C 596.95 239.28 600.00 238.13 603.05 237.80 C 606.10 237.47 609.15 238.03 612.20 237.73 C 615.25 237.44 618.31 236.93 621.36 236.03 C 624.41 235.13 627.46 233.08 630.51 232.32 C 633.56 231.55 636.61 231.77 639.66 231.44 C 642.71 231.10 645.76 230.80 648.81 230.32 C 651.86 229.84 654.92 229.12 657.97 228.56 C 661.02 228.00 664.07 227.32 667.12 226.96 C 670.17 226.60 673.22 228.21 676.27 226.41 C 679.32 224.61 682.37 218.57 685.42 216.14 C 688.47 213.72 691.53 213.55 694.58 211.86 C 697.63 210.17 700.68 208.27 703.73 206.00 C 706.78 203.72 709.83 199.52 712.88 198.22 C 715.93 196.92 718.98 198.93 722.03 198.20 C 725.08 197.47 728.14 196.12 731.19 193.84 C 734.24 191.55 737.29 188.00 740.34 184.49 C 743.39 180.98 746.44 174.96 749.49 172.78 C 752.54 170.59 755.59 171.70 758.64 171.38 C 761.69 171.07 764.75 172.30 767.80 170.88 C 770.85 169.45 773.90 166.50 776.95 162.82 C 780.00 159.15 783.05 151.39 786.10 148.82 C 789.15 146.26 792.20 147.82 795.25 147.44 C 798.31 147.06 801.36 146.82 804.41 146.54 C 807.46 146.26 810.51 146.36 813.56 145.75 C 816.61 145.14 819.66 144.30 822.71 142.87 C 825.76 141.44 828.81 140.33 831.86 137.19 C 834.92 134.05 837.97 127.11 841.02 124.04 C 844.07 120.97 847.12 122.28 850.17 118.77 C 853.22 115.26 856.27 105.62 859.32 102.95 C 862.37 100.29 865.42 102.82 868.47 102.79 C 871.53 102.76 874.58 103.02 877.63 102.77 C 880.68 102.53 883.73 102.42 886.78 101.31 C 889.83 100.20 892.88 97.38 895.93 96.11 C 898.98 94.84 902.03 94.17 905.08 93.69 C 908.14 93.21 911.19 94.58 914.24 93.22 C 917.29 91.85 920.34 86.93 923.39 85.51 C 926.44 84.08 929.49 84.86 932.54 84.67 C 935.59 84.49 938.64 88.74 941.69 84.39 C 944.75 80.04 947.80 63.65 950.85 58.59 C 953.90 53.52 958.47 54.76 960.00 54.00" fill="none" stroke="#FFFFFF"
          stroke-width="1.6" stroke-linecap="round" stroke-linejoin="round"/>
  </g>

  <!-- right: baseline hairline -->
  <line x1="420" y1="260" x2="960" y2="260"
        stroke="#8B949E" stroke-opacity="0.25" stroke-width="0.5"/>

  <!-- right: peak annotation -->
  <circle cx="960.00" cy="54.00" r="0" fill="#FFFFFF">
    <animate attributeName="r" from="0" to="3.5"
             begin="1.90s" dur="0.35s" fill="freeze"/>
  </circle>
  <text x="952.00" y="44.00" text-anchor="end"
        font-family='ui-monospace, "SF Mono", Menlo, Consolas, monospace' font-size="10" font-weight="500"
        fill="#FFFFFF" opacity="0">
    3,441,801,718
    <animate attributeName="opacity" from="0" to="0.85"
             begin="2.10s" dur="0.4s" fill="freeze"/>
  </text>
</svg>
