<svg xmlns="http://www.w3.org/2000/svg" viewBox="0 0 1000 300" width="1000" height="300" shape-rendering="geometricPrecision" text-rendering="optimizeLegibility" font-rendering="optimizeLegibility">
  <defs>
    <linearGradient id="areaGrad" x1="0" y1="0" x2="0" y2="1">
      <stop offset="0%"  stop-color="#FFFFFF" stop-opacity="0.38"/>
      <stop offset="60%" stop-color="#FFFFFF" stop-opacity="0.08"/>
      <stop offset="100%" stop-color="#0D1117" stop-opacity="0"/>
    </linearGradient>
    <clipPath id="chartReveal">
      <rect x="420" y="0" width="0" height="300">
        <animate attributeName="width" from="0" to="560"
                 begin="0.2s" dur="1.8s" fill="freeze"/>
      </rect>
    </clipPath>
  </defs>

  <!-- background -->
  <rect width="1000" height="300" fill="#0D1117"/>

  <!-- left: small label -->
  <text x="210" y="95" text-anchor="middle"
        font-family='ui-monospace, "SF Mono", Menlo, Consolas, monospace' font-size="10.5" font-weight="500"
        fill="#8B949E" letter-spacing="2.4" opacity="0">
    TOKENS PROCESSED · LAST 60 DAYS
    <animate attributeName="opacity" from="0" to="1"
             begin="0.05s" dur="0.5s" fill="freeze"/>
  </text>

  <!-- left: count-up frames -->
  <g>
    <text x="210" y="160" text-anchor="middle" font-family='ui-monospace, "SF Mono", Menlo, Consolas, monospace' font-size="46" font-weight="700" fill="#FFFFFF" opacity="0" letter-spacing="-0.01em">610,206,235<set attributeName="opacity" to="1" begin="0.000s" fill="freeze"/><set attributeName="opacity" to="0" begin="0.044s" fill="freeze"/></text>
    <text x="210" y="160" text-anchor="middle" font-family='ui-monospace, "SF Mono", Menlo, Consolas, monospace' font-size="46" font-weight="700" fill="#FFFFFF" opacity="0" letter-spacing="-0.01em">1,113,541,314<set attributeName="opacity" to="1" begin="0.044s" fill="freeze"/><set attributeName="opacity" to="0" begin="0.089s" fill="freeze"/></text>
    <text x="210" y="160" text-anchor="middle" font-family='ui-monospace, "SF Mono", Menlo, Consolas, monospace' font-size="46" font-weight="700" fill="#FFFFFF" opacity="0" letter-spacing="-0.01em">1,528,722,585<set attributeName="opacity" to="1" begin="0.089s" fill="freeze"/><set attributeName="opacity" to="0" begin="0.133s" fill="freeze"/></text>
    <text x="210" y="160" text-anchor="middle" font-family='ui-monospace, "SF Mono", Menlo, Consolas, monospace' font-size="46" font-weight="700" fill="#FFFFFF" opacity="0" letter-spacing="-0.01em">1,871,189,256<set attributeName="opacity" to="1" begin="0.133s" fill="freeze"/><set attributeName="opacity" to="0" begin="0.178s" fill="freeze"/></text>
    <text x="210" y="160" text-anchor="middle" font-family='ui-monospace, "SF Mono", Menlo, Consolas, monospace' font-size="46" font-weight="700" fill="#FFFFFF" opacity="0" letter-spacing="-0.01em">2,153,676,517<set attributeName="opacity" to="1" begin="0.178s" fill="freeze"/><set attributeName="opacity" to="0" begin="0.222s" fill="freeze"/></text>
    <text x="210" y="160" text-anchor="middle" font-family='ui-monospace, "SF Mono", Menlo, Consolas, monospace' font-size="46" font-weight="700" fill="#FFFFFF" opacity="0" letter-spacing="-0.01em">2,386,689,127<set attributeName="opacity" to="1" begin="0.222s" fill="freeze"/><set attributeName="opacity" to="0" begin="0.267s" fill="freeze"/></text>
    <text x="210" y="160" text-anchor="middle" font-family='ui-monospace, "SF Mono", Menlo, Consolas, monospace' font-size="46" font-weight="700" fill="#FFFFFF" opacity="0" letter-spacing="-0.01em">2,578,892,047<set attributeName="opacity" to="1" begin="0.267s" fill="freeze"/><set attributeName="opacity" to="0" begin="0.311s" fill="freeze"/></text>
    <text x="210" y="160" text-anchor="middle" font-family='ui-monospace, "SF Mono", Menlo, Consolas, monospace' font-size="46" font-weight="700" fill="#FFFFFF" opacity="0" letter-spacing="-0.01em">2,737,432,662<set attributeName="opacity" to="1" begin="0.311s" fill="freeze"/><set attributeName="opacity" to="0" begin="0.356s" fill="freeze"/></text>
    <text x="210" y="160" text-anchor="middle" font-family='ui-monospace, "SF Mono", Menlo, Consolas, monospace' font-size="46" font-weight="700" fill="#FFFFFF" opacity="0" letter-spacing="-0.01em">2,868,206,568<set attributeName="opacity" to="1" begin="0.356s" fill="freeze"/><set attributeName="opacity" to="0" begin="0.400s" fill="freeze"/></text>
    <text x="210" y="160" text-anchor="middle" font-family='ui-monospace, "SF Mono", Menlo, Consolas, monospace' font-size="46" font-weight="700" fill="#FFFFFF" opacity="0" letter-spacing="-0.01em">2,976,076,810<set attributeName="opacity" to="1" begin="0.400s" fill="freeze"/><set attributeName="opacity" to="0" begin="0.444s" fill="freeze"/></text>
    <text x="210" y="160" text-anchor="middle" font-family='ui-monospace, "SF Mono", Menlo, Consolas, monospace' font-size="46" font-weight="700" fill="#FFFFFF" opacity="0" letter-spacing="-0.01em">3,065,054,722<set attributeName="opacity" to="1" begin="0.444s" fill="freeze"/><set attributeName="opacity" to="0" begin="0.489s" fill="freeze"/></text>
    <text x="210" y="160" text-anchor="middle" font-family='ui-monospace, "SF Mono", Menlo, Consolas, monospace' font-size="46" font-weight="700" fill="#FFFFFF" opacity="0" letter-spacing="-0.01em">3,138,449,095<set attributeName="opacity" to="1" begin="0.489s" fill="freeze"/><set attributeName="opacity" to="0" begin="0.533s" fill="freeze"/></text>
    <text x="210" y="160" text-anchor="middle" font-family='ui-monospace, "SF Mono", Menlo, Consolas, monospace' font-size="46" font-weight="700" fill="#FFFFFF" opacity="0" letter-spacing="-0.01em">3,198,989,221<set attributeName="opacity" to="1" begin="0.533s" fill="freeze"/><set attributeName="opacity" to="0" begin="0.578s" fill="freeze"/></text>
    <text x="210" y="160" text-anchor="middle" font-family='ui-monospace, "SF Mono", Menlo, Consolas, monospace' font-size="46" font-weight="700" fill="#FFFFFF" opacity="0" letter-spacing="-0.01em">3,248,926,386<set attributeName="opacity" to="1" begin="0.578s" fill="freeze"/><set attributeName="opacity" to="0" begin="0.622s" fill="freeze"/></text>
    <text x="210" y="160" text-anchor="middle" font-family='ui-monospace, "SF Mono", Menlo, Consolas, monospace' font-size="46" font-weight="700" fill="#FFFFFF" opacity="0" letter-spacing="-0.01em">3,290,117,585<set attributeName="opacity" to="1" begin="0.622s" fill="freeze"/><set attributeName="opacity" to="0" begin="0.667s" fill="freeze"/></text>
    <text x="210" y="160" text-anchor="middle" font-family='ui-monospace, "SF Mono", Menlo, Consolas, monospace' font-size="46" font-weight="700" fill="#FFFFFF" opacity="0" letter-spacing="-0.01em">3,324,094,582<set attributeName="opacity" to="1" begin="0.667s" fill="freeze"/><set attributeName="opacity" to="0" begin="0.711s" fill="freeze"/></text>
    <text x="210" y="160" text-anchor="middle" font-family='ui-monospace, "SF Mono", Menlo, Consolas, monospace' font-size="46" font-weight="700" fill="#FFFFFF" opacity="0" letter-spacing="-0.01em">3,352,120,868<set attributeName="opacity" to="1" begin="0.711s" fill="freeze"/><set attributeName="opacity" to="0" begin="0.756s" fill="freeze"/></text>
    <text x="210" y="160" text-anchor="middle" font-family='ui-monospace, "SF Mono", Menlo, Consolas, monospace' font-size="46" font-weight="700" fill="#FFFFFF" opacity="0" letter-spacing="-0.01em">3,375,238,647<set attributeName="opacity" to="1" begin="0.756s" fill="freeze"/><set attributeName="opacity" to="0" begin="0.800s" fill="freeze"/></text>
    <text x="210" y="160" text-anchor="middle" font-family='ui-monospace, "SF Mono", Menlo, Consolas, monospace' font-size="46" font-weight="700" fill="#FFFFFF" opacity="0" letter-spacing="-0.01em">3,394,307,592<set attributeName="opacity" to="1" begin="0.800s" fill="freeze"/><set attributeName="opacity" to="0" begin="0.844s" fill="freeze"/></text>
    <text x="210" y="160" text-anchor="middle" font-family='ui-monospace, "SF Mono", Menlo, Consolas, monospace' font-size="46" font-weight="700" fill="#FFFFFF" opacity="0" letter-spacing="-0.01em">3,410,036,813<set attributeName="opacity" to="1" begin="0.844s" fill="freeze"/><set attributeName="opacity" to="0" begin="0.889s" fill="freeze"/></text>
    <text x="210" y="160" text-anchor="middle" font-family='ui-monospace, "SF Mono", Menlo, Consolas, monospace' font-size="46" font-weight="700" fill="#FFFFFF" opacity="0" letter-spacing="-0.01em">3,423,011,228<set attributeName="opacity" to="1" begin="0.889s" fill="freeze"/><set attributeName="opacity" to="0" begin="0.933s" fill="freeze"/></text>
    <text x="210" y="160" text-anchor="middle" font-family='ui-monospace, "SF Mono", Menlo, Consolas, monospace' font-size="46" font-weight="700" fill="#FFFFFF" opacity="0" letter-spacing="-0.01em">3,433,713,311<set attributeName="opacity" to="1" begin="0.933s" fill="freeze"/><set attributeName="opacity" to="0" begin="0.978s" fill="freeze"/></text>
    <text x="210" y="160" text-anchor="middle" font-family='ui-monospace, "SF Mono", Menlo, Consolas, monospace' font-size="46" font-weight="700" fill="#FFFFFF" opacity="0" letter-spacing="-0.01em">3,442,541,038<set attributeName="opacity" to="1" begin="0.978s" fill="freeze"/><set attributeName="opacity" to="0" begin="1.022s" fill="freeze"/></text>
    <text x="210" y="160" text-anchor="middle" font-family='ui-monospace, "SF Mono", Menlo, Consolas, monospace' font-size="46" font-weight="700" fill="#FFFFFF" opacity="0" letter-spacing="-0.01em">3,449,822,682<set attributeName="opacity" to="1" begin="1.022s" fill="freeze"/><set attributeName="opacity" to="0" begin="1.067s" fill="freeze"/></text>
    <text x="210" y="160" text-anchor="middle" font-family='ui-monospace, "SF Mono", Menlo, Consolas, monospace' font-size="46" font-weight="700" fill="#FFFFFF" opacity="0" letter-spacing="-0.01em">3,455,829,023<set attributeName="opacity" to="1" begin="1.067s" fill="freeze"/><set attributeName="opacity" to="0" begin="1.111s" fill="freeze"/></text>
    <text x="210" y="160" text-anchor="middle" font-family='ui-monospace, "SF Mono", Menlo, Consolas, monospace' font-size="46" font-weight="700" fill="#FFFFFF" opacity="0" letter-spacing="-0.01em">3,460,783,418<set attributeName="opacity" to="1" begin="1.111s" fill="freeze"/><set attributeName="opacity" to="0" begin="1.156s" fill="freeze"/></text>
    <text x="210" y="160" text-anchor="middle" font-family='ui-monospace, "SF Mono", Menlo, Consolas, monospace' font-size="46" font-weight="700" fill="#FFFFFF" opacity="0" letter-spacing="-0.01em">3,464,870,102<set attributeName="opacity" to="1" begin="1.156s" fill="freeze"/><set attributeName="opacity" to="0" begin="1.200s" fill="freeze"/></text>
    <text x="210" y="160" text-anchor="middle" font-family='ui-monospace, "SF Mono", Menlo, Consolas, monospace' font-size="46" font-weight="700" fill="#FFFFFF" opacity="0" letter-spacing="-0.01em">3,468,241,047<set attributeName="opacity" to="1" begin="1.200s" fill="freeze"/><set attributeName="opacity" to="0" begin="1.244s" fill="freeze"/></text>
    <text x="210" y="160" text-anchor="middle" font-family='ui-monospace, "SF Mono", Menlo, Consolas, monospace' font-size="46" font-weight="700" fill="#FFFFFF" opacity="0" letter-spacing="-0.01em">3,471,021,607<set attributeName="opacity" to="1" begin="1.244s" fill="freeze"/><set attributeName="opacity" to="0" begin="1.289s" fill="freeze"/></text>
    <text x="210" y="160" text-anchor="middle" font-family='ui-monospace, "SF Mono", Menlo, Consolas, monospace' font-size="46" font-weight="700" fill="#FFFFFF" opacity="0" letter-spacing="-0.01em">3,473,315,181<set attributeName="opacity" to="1" begin="1.289s" fill="freeze"/><set attributeName="opacity" to="0" begin="1.333s" fill="freeze"/></text>
    <text x="210" y="160" text-anchor="middle" font-family='ui-monospace, "SF Mono", Menlo, Consolas, monospace' font-size="46" font-weight="700" fill="#FFFFFF" opacity="0" letter-spacing="-0.01em">3,475,207,060<set attributeName="opacity" to="1" begin="1.333s" fill="freeze"/><set attributeName="opacity" to="0" begin="1.378s" fill="freeze"/></text>
    <text x="210" y="160" text-anchor="middle" font-family='ui-monospace, "SF Mono", Menlo, Consolas, monospace' font-size="46" font-weight="700" fill="#FFFFFF" opacity="0" letter-spacing="-0.01em">3,476,767,597<set attributeName="opacity" to="1" begin="1.378s" fill="freeze"/><set attributeName="opacity" to="0" begin="1.422s" fill="freeze"/></text>
    <text x="210" y="160" text-anchor="middle" font-family='ui-monospace, "SF Mono", Menlo, Consolas, monospace' font-size="46" font-weight="700" fill="#FFFFFF" opacity="0" letter-spacing="-0.01em">3,478,054,821<set attributeName="opacity" to="1" begin="1.422s" fill="freeze"/><set attributeName="opacity" to="0" begin="1.467s" fill="freeze"/></text>
    <text x="210" y="160" text-anchor="middle" font-family='ui-monospace, "SF Mono", Menlo, Consolas, monospace' font-size="46" font-weight="700" fill="#FFFFFF" opacity="0" letter-spacing="-0.01em">3,479,116,603<set attributeName="opacity" to="1" begin="1.467s" fill="freeze"/><set attributeName="opacity" to="0" begin="1.511s" fill="freeze"/></text>
    <text x="210" y="160" text-anchor="middle" font-family='ui-monospace, "SF Mono", Menlo, Consolas, monospace' font-size="46" font-weight="700" fill="#FFFFFF" opacity="0" letter-spacing="-0.01em">3,479,992,424<set attributeName="opacity" to="1" begin="1.511s" fill="freeze"/><set attributeName="opacity" to="0" begin="1.556s" fill="freeze"/></text>
    <text x="210" y="160" text-anchor="middle" font-family='ui-monospace, "SF Mono", Menlo, Consolas, monospace' font-size="46" font-weight="700" fill="#FFFFFF" opacity="0" letter-spacing="-0.01em">3,484,117,313<set attributeName="opacity" to="1" begin="1.556s" fill="freeze"/></text>
  </g>

  <!-- left: caption -->
  <text x="210" y="212" text-anchor="middle"
        font-family='ui-monospace, "SF Mono", Menlo, Consolas, monospace' font-size="13" font-weight="400"
        fill="#8B949E" letter-spacing="0.02em" opacity="0">
    60 days. One developer.
    <animate attributeName="opacity" from="0" to="1"
             begin="1.45s" dur="0.5s" fill="freeze"/>
  </text>

  <!-- right: chart -->
  <g clip-path="url(#chartReveal)">
    <path d="M 420.00 259.97 C 421.53 259.84 426.10 259.49 429.15 259.21 C 432.20 258.93 435.25 258.47 438.31 258.31 C 441.36 258.15 444.41 258.58 447.46 258.25 C 450.51 257.91 453.56 256.71 456.61 256.30 C 459.66 255.89 462.71 256.11 465.76 255.79 C 468.81 255.47 471.86 255.07 474.92 254.37 C 477.97 253.66 481.02 252.23 484.07 251.59 C 487.12 250.94 490.17 251.32 493.22 250.50 C 496.27 249.69 499.32 247.34 502.37 246.70 C 505.42 246.06 508.47 246.73 511.53 246.68 C 514.58 246.64 517.63 246.75 520.68 246.41 C 523.73 246.07 526.78 245.14 529.83 244.64 C 532.88 244.15 535.93 243.89 538.98 243.45 C 542.03 243.02 545.08 242.40 548.14 242.06 C 551.19 241.71 554.24 241.61 557.29 241.38 C 560.34 241.16 563.39 241.13 566.44 240.71 C 569.49 240.28 572.54 239.14 575.59 238.82 C 578.64 238.49 581.69 239.04 584.75 238.75 C 587.80 238.45 590.85 237.96 593.90 237.06 C 596.95 236.17 600.00 234.15 603.05 233.40 C 606.10 232.64 609.15 232.85 612.20 232.52 C 615.25 232.20 618.31 231.89 621.36 231.42 C 624.41 230.95 627.46 230.06 630.51 229.68 C 633.56 229.30 636.61 230.61 639.66 229.14 C 642.71 227.67 645.76 222.31 648.81 220.85 C 651.86 219.39 654.92 220.49 657.97 220.38 C 661.02 220.26 664.07 221.20 667.12 220.16 C 670.17 219.13 673.22 215.21 676.27 214.17 C 679.32 213.12 682.37 214.02 685.42 213.89 C 688.47 213.76 691.53 214.79 694.58 213.38 C 697.63 211.97 700.68 209.06 703.73 205.43 C 706.78 201.80 709.83 194.13 712.88 191.60 C 715.93 189.07 718.98 190.61 722.03 190.23 C 725.08 189.86 728.14 189.62 731.19 189.34 C 734.24 189.07 737.29 189.17 740.34 188.57 C 743.39 187.96 746.44 187.13 749.49 185.72 C 752.54 184.31 755.59 183.21 758.64 180.11 C 761.69 177.01 764.75 170.15 767.80 167.11 C 770.85 164.08 773.90 165.38 776.95 161.91 C 780.00 158.44 783.05 148.92 786.10 146.29 C 789.15 143.66 792.20 146.15 795.25 146.12 C 798.31 146.09 801.36 146.35 804.41 146.11 C 807.46 145.87 810.51 145.76 813.56 144.66 C 816.61 143.57 819.66 140.78 822.71 139.52 C 825.76 138.27 828.81 137.61 831.86 137.13 C 834.92 136.66 837.97 138.02 841.02 136.67 C 844.07 135.32 847.12 130.46 850.17 129.05 C 853.22 127.65 856.27 128.41 859.32 128.23 C 862.37 128.04 865.42 132.24 868.47 127.95 C 871.53 123.65 874.58 108.71 877.63 102.46 C 880.68 96.20 883.73 93.48 886.78 90.42 C 889.83 87.35 892.88 85.81 895.93 84.09 C 898.98 82.37 902.03 80.91 905.08 80.11 C 908.14 79.32 911.19 79.89 914.24 79.33 C 917.29 78.76 920.34 79.03 923.39 76.74 C 926.44 74.46 929.49 69.05 932.54 65.61 C 935.59 62.17 938.64 57.89 941.69 56.10 C 944.75 54.32 947.80 55.24 950.85 54.89 C 953.90 54.54 958.47 54.15 960.00 54.00 L 960.00 260.00 L 420.00 260.00 Z" fill="url(#areaGrad)"/>
    <path d="M 420.00 259.97 C 421.53 259.84 426.10 259.49 429.15 259.21 C 432.20 258.93 435.25 258.47 438.31 258.31 C 441.36 258.15 444.41 258.58 447.46 258.25 C 450.51 257.91 453.56 256.71 456.61 256.30 C 459.66 255.89 462.71 256.11 465.76 255.79 C 468.81 255.47 471.86 255.07 474.92 254.37 C 477.97 253.66 481.02 252.23 484.07 251.59 C 487.12 250.94 490.17 251.32 493.22 250.50 C 496.27 249.69 499.32 247.34 502.37 246.70 C 505.42 246.06 508.47 246.73 511.53 246.68 C 514.58 246.64 517.63 246.75 520.68 246.41 C 523.73 246.07 526.78 245.14 529.83 244.64 C 532.88 244.15 535.93 243.89 538.98 243.45 C 542.03 243.02 545.08 242.40 548.14 242.06 C 551.19 241.71 554.24 241.61 557.29 241.38 C 560.34 241.16 563.39 241.13 566.44 240.71 C 569.49 240.28 572.54 239.14 575.59 238.82 C 578.64 238.49 581.69 239.04 584.75 238.75 C 587.80 238.45 590.85 237.96 593.90 237.06 C 596.95 236.17 600.00 234.15 603.05 233.40 C 606.10 232.64 609.15 232.85 612.20 232.52 C 615.25 232.20 618.31 231.89 621.36 231.42 C 624.41 230.95 627.46 230.06 630.51 229.68 C 633.56 229.30 636.61 230.61 639.66 229.14 C 642.71 227.67 645.76 222.31 648.81 220.85 C 651.86 219.39 654.92 220.49 657.97 220.38 C 661.02 220.26 664.07 221.20 667.12 220.16 C 670.17 219.13 673.22 215.21 676.27 214.17 C 679.32 213.12 682.37 214.02 685.42 213.89 C 688.47 213.76 691.53 214.79 694.58 213.38 C 697.63 211.97 700.68 209.06 703.73 205.43 C 706.78 201.80 709.83 194.13 712.88 191.60 C 715.93 189.07 718.98 190.61 722.03 190.23 C 725.08 189.86 728.14 189.62 731.19 189.34 C 734.24 189.07 737.29 189.17 740.34 188.57 C 743.39 187.96 746.44 187.13 749.49 185.72 C 752.54 184.31 755.59 183.21 758.64 180.11 C 761.69 177.01 764.75 170.15 767.80 167.11 C 770.85 164.08 773.90 165.38 776.95 161.91 C 780.00 158.44 783.05 148.92 786.10 146.29 C 789.15 143.66 792.20 146.15 795.25 146.12 C 798.31 146.09 801.36 146.35 804.41 146.11 C 807.46 145.87 810.51 145.76 813.56 144.66 C 816.61 143.57 819.66 140.78 822.71 139.52 C 825.76 138.27 828.81 137.61 831.86 137.13 C 834.92 136.66 837.97 138.02 841.02 136.67 C 844.07 135.32 847.12 130.46 850.17 129.05 C 853.22 127.65 856.27 128.41 859.32 128.23 C 862.37 128.04 865.42 132.24 868.47 127.95 C 871.53 123.65 874.58 108.71 877.63 102.46 C 880.68 96.20 883.73 93.48 886.78 90.42 C 889.83 87.35 892.88 85.81 895.93 84.09 C 898.98 82.37 902.03 80.91 905.08 80.11 C 908.14 79.32 911.19 79.89 914.24 79.33 C 917.29 78.76 920.34 79.03 923.39 76.74 C 926.44 74.46 929.49 69.05 932.54 65.61 C 935.59 62.17 938.64 57.89 941.69 56.10 C 944.75 54.32 947.80 55.24 950.85 54.89 C 953.90 54.54 958.47 54.15 960.00 54.00" fill="none" stroke="#FFFFFF"
          stroke-width="1.6" stroke-linecap="round" stroke-linejoin="round"/>
  </g>

  <!-- right: baseline hairline -->
  <line x1="420" y1="260" x2="960" y2="260"
        stroke="#8B949E" stroke-opacity="0.25" stroke-width="0.5"/>

  <!-- right: peak annotation -->
  <circle cx="960.00" cy="54.00" r="0" fill="#FFFFFF">
    <animate attributeName="r" from="0" to="3.5"
             begin="1.90s" dur="0.35s" fill="freeze"/>
  </circle>
  <text x="952.00" y="44.00" text-anchor="end"
        font-family='ui-monospace, "SF Mono", Menlo, Consolas, monospace' font-size="10" font-weight="500"
        fill="#FFFFFF" opacity="0">
    3,484,117,313
    <animate attributeName="opacity" from="0" to="0.85"
             begin="2.10s" dur="0.4s" fill="freeze"/>
  </text>
</svg>
