<svg xmlns="http://www.w3.org/2000/svg" viewBox="0 0 1000 300" width="1000" height="300" shape-rendering="geometricPrecision" text-rendering="optimizeLegibility" font-rendering="optimizeLegibility">
  <defs>
    <linearGradient id="areaGrad" x1="0" y1="0" x2="0" y2="1">
      <stop offset="0%"  stop-color="#FFFFFF" stop-opacity="0.38"/>
      <stop offset="60%" stop-color="#FFFFFF" stop-opacity="0.08"/>
      <stop offset="100%" stop-color="#0D1117" stop-opacity="0"/>
    </linearGradient>
    <clipPath id="chartReveal">
      <rect x="420" y="0" width="0" height="300">
        <animate attributeName="width" from="0" to="560"
                 begin="0.2s" dur="1.8s" fill="freeze"/>
      </rect>
    </clipPath>
  </defs>

  <!-- background -->
  <rect width="1000" height="300" fill="#0D1117"/>

  <!-- left: small label -->
  <text x="210" y="95" text-anchor="middle"
        font-family='ui-monospace, "SF Mono", Menlo, Consolas, monospace' font-size="10.5" font-weight="500"
        fill="#8B949E" letter-spacing="2.4" opacity="0">
    TOKENS PROCESSED · LAST 60 DAYS
    <animate attributeName="opacity" from="0" to="1"
             begin="0.05s" dur="0.5s" fill="freeze"/>
  </text>

  <!-- left: count-up frames -->
  <g>
    <text x="210" y="160" text-anchor="middle" font-family='ui-monospace, "SF Mono", Menlo, Consolas, monospace' font-size="46" font-weight="700" fill="#FFFFFF" opacity="0" letter-spacing="-0.01em">622,772,924<set attributeName="opacity" to="1" begin="0.000s" fill="freeze"/><set attributeName="opacity" to="0" begin="0.044s" fill="freeze"/></text>
    <text x="210" y="160" text-anchor="middle" font-family='ui-monospace, "SF Mono", Menlo, Consolas, monospace' font-size="46" font-weight="700" fill="#FFFFFF" opacity="0" letter-spacing="-0.01em">1,136,473,768<set attributeName="opacity" to="1" begin="0.044s" fill="freeze"/><set attributeName="opacity" to="0" begin="0.089s" fill="freeze"/></text>
    <text x="210" y="160" text-anchor="middle" font-family='ui-monospace, "SF Mono", Menlo, Consolas, monospace' font-size="46" font-weight="700" fill="#FFFFFF" opacity="0" letter-spacing="-0.01em">1,560,205,351<set attributeName="opacity" to="1" begin="0.089s" fill="freeze"/><set attributeName="opacity" to="0" begin="0.133s" fill="freeze"/></text>
    <text x="210" y="160" text-anchor="middle" font-family='ui-monospace, "SF Mono", Menlo, Consolas, monospace' font-size="46" font-weight="700" fill="#FFFFFF" opacity="0" letter-spacing="-0.01em">1,909,724,837<set attributeName="opacity" to="1" begin="0.133s" fill="freeze"/><set attributeName="opacity" to="0" begin="0.178s" fill="freeze"/></text>
    <text x="210" y="160" text-anchor="middle" font-family='ui-monospace, "SF Mono", Menlo, Consolas, monospace' font-size="46" font-weight="700" fill="#FFFFFF" opacity="0" letter-spacing="-0.01em">2,198,029,688<set attributeName="opacity" to="1" begin="0.178s" fill="freeze"/><set attributeName="opacity" to="0" begin="0.222s" fill="freeze"/></text>
    <text x="210" y="160" text-anchor="middle" font-family='ui-monospace, "SF Mono", Menlo, Consolas, monospace' font-size="46" font-weight="700" fill="#FFFFFF" opacity="0" letter-spacing="-0.01em">2,435,840,998<set attributeName="opacity" to="1" begin="0.222s" fill="freeze"/><set attributeName="opacity" to="0" begin="0.267s" fill="freeze"/></text>
    <text x="210" y="160" text-anchor="middle" font-family='ui-monospace, "SF Mono", Menlo, Consolas, monospace' font-size="46" font-weight="700" fill="#FFFFFF" opacity="0" letter-spacing="-0.01em">2,632,002,177<set attributeName="opacity" to="1" begin="0.267s" fill="freeze"/><set attributeName="opacity" to="0" begin="0.311s" fill="freeze"/></text>
    <text x="210" y="160" text-anchor="middle" font-family='ui-monospace, "SF Mono", Menlo, Consolas, monospace' font-size="46" font-weight="700" fill="#FFFFFF" opacity="0" letter-spacing="-0.01em">2,793,807,804<set attributeName="opacity" to="1" begin="0.311s" fill="freeze"/><set attributeName="opacity" to="0" begin="0.356s" fill="freeze"/></text>
    <text x="210" y="160" text-anchor="middle" font-family='ui-monospace, "SF Mono", Menlo, Consolas, monospace' font-size="46" font-weight="700" fill="#FFFFFF" opacity="0" letter-spacing="-0.01em">2,927,274,889<set attributeName="opacity" to="1" begin="0.356s" fill="freeze"/><set attributeName="opacity" to="0" begin="0.400s" fill="freeze"/></text>
    <text x="210" y="160" text-anchor="middle" font-family='ui-monospace, "SF Mono", Menlo, Consolas, monospace' font-size="46" font-weight="700" fill="#FFFFFF" opacity="0" letter-spacing="-0.01em">3,037,366,629<set attributeName="opacity" to="1" begin="0.400s" fill="freeze"/><set attributeName="opacity" to="0" begin="0.444s" fill="freeze"/></text>
    <text x="210" y="160" text-anchor="middle" font-family='ui-monospace, "SF Mono", Menlo, Consolas, monospace' font-size="46" font-weight="700" fill="#FFFFFF" opacity="0" letter-spacing="-0.01em">3,128,176,966<set attributeName="opacity" to="1" begin="0.444s" fill="freeze"/><set attributeName="opacity" to="0" begin="0.489s" fill="freeze"/></text>
    <text x="210" y="160" text-anchor="middle" font-family='ui-monospace, "SF Mono", Menlo, Consolas, monospace' font-size="46" font-weight="700" fill="#FFFFFF" opacity="0" letter-spacing="-0.01em">3,203,082,835<set attributeName="opacity" to="1" begin="0.489s" fill="freeze"/><set attributeName="opacity" to="0" begin="0.533s" fill="freeze"/></text>
    <text x="210" y="160" text-anchor="middle" font-family='ui-monospace, "SF Mono", Menlo, Consolas, monospace' font-size="46" font-weight="700" fill="#FFFFFF" opacity="0" letter-spacing="-0.01em">3,264,869,735<set attributeName="opacity" to="1" begin="0.533s" fill="freeze"/><set attributeName="opacity" to="0" begin="0.578s" fill="freeze"/></text>
    <text x="210" y="160" text-anchor="middle" font-family='ui-monospace, "SF Mono", Menlo, Consolas, monospace' font-size="46" font-weight="700" fill="#FFFFFF" opacity="0" letter-spacing="-0.01em">3,315,835,314<set attributeName="opacity" to="1" begin="0.578s" fill="freeze"/><set attributeName="opacity" to="0" begin="0.622s" fill="freeze"/></text>
    <text x="210" y="160" text-anchor="middle" font-family='ui-monospace, "SF Mono", Menlo, Consolas, monospace' font-size="46" font-weight="700" fill="#FFFFFF" opacity="0" letter-spacing="-0.01em">3,357,874,811<set attributeName="opacity" to="1" begin="0.622s" fill="freeze"/><set attributeName="opacity" to="0" begin="0.667s" fill="freeze"/></text>
    <text x="210" y="160" text-anchor="middle" font-family='ui-monospace, "SF Mono", Menlo, Consolas, monospace' font-size="46" font-weight="700" fill="#FFFFFF" opacity="0" letter-spacing="-0.01em">3,392,551,536<set attributeName="opacity" to="1" begin="0.667s" fill="freeze"/><set attributeName="opacity" to="0" begin="0.711s" fill="freeze"/></text>
    <text x="210" y="160" text-anchor="middle" font-family='ui-monospace, "SF Mono", Menlo, Consolas, monospace' font-size="46" font-weight="700" fill="#FFFFFF" opacity="0" letter-spacing="-0.01em">3,421,155,000<set attributeName="opacity" to="1" begin="0.711s" fill="freeze"/><set attributeName="opacity" to="0" begin="0.756s" fill="freeze"/></text>
    <text x="210" y="160" text-anchor="middle" font-family='ui-monospace, "SF Mono", Menlo, Consolas, monospace' font-size="46" font-weight="700" fill="#FFFFFF" opacity="0" letter-spacing="-0.01em">3,444,748,871<set attributeName="opacity" to="1" begin="0.756s" fill="freeze"/><set attributeName="opacity" to="0" begin="0.800s" fill="freeze"/></text>
    <text x="210" y="160" text-anchor="middle" font-family='ui-monospace, "SF Mono", Menlo, Consolas, monospace' font-size="46" font-weight="700" fill="#FFFFFF" opacity="0" letter-spacing="-0.01em">3,464,210,525<set attributeName="opacity" to="1" begin="0.800s" fill="freeze"/><set attributeName="opacity" to="0" begin="0.844s" fill="freeze"/></text>
    <text x="210" y="160" text-anchor="middle" font-family='ui-monospace, "SF Mono", Menlo, Consolas, monospace' font-size="46" font-weight="700" fill="#FFFFFF" opacity="0" letter-spacing="-0.01em">3,480,263,676<set attributeName="opacity" to="1" begin="0.844s" fill="freeze"/><set attributeName="opacity" to="0" begin="0.889s" fill="freeze"/></text>
    <text x="210" y="160" text-anchor="middle" font-family='ui-monospace, "SF Mono", Menlo, Consolas, monospace' font-size="46" font-weight="700" fill="#FFFFFF" opacity="0" letter-spacing="-0.01em">3,493,505,288<set attributeName="opacity" to="1" begin="0.889s" fill="freeze"/><set attributeName="opacity" to="0" begin="0.933s" fill="freeze"/></text>
    <text x="210" y="160" text-anchor="middle" font-family='ui-monospace, "SF Mono", Menlo, Consolas, monospace' font-size="46" font-weight="700" fill="#FFFFFF" opacity="0" letter-spacing="-0.01em">3,504,427,772<set attributeName="opacity" to="1" begin="0.933s" fill="freeze"/><set attributeName="opacity" to="0" begin="0.978s" fill="freeze"/></text>
    <text x="210" y="160" text-anchor="middle" font-family='ui-monospace, "SF Mono", Menlo, Consolas, monospace' font-size="46" font-weight="700" fill="#FFFFFF" opacity="0" letter-spacing="-0.01em">3,513,437,298<set attributeName="opacity" to="1" begin="0.978s" fill="freeze"/><set attributeName="opacity" to="0" begin="1.022s" fill="freeze"/></text>
    <text x="210" y="160" text-anchor="middle" font-family='ui-monospace, "SF Mono", Menlo, Consolas, monospace' font-size="46" font-weight="700" fill="#FFFFFF" opacity="0" letter-spacing="-0.01em">3,520,868,902<set attributeName="opacity" to="1" begin="1.022s" fill="freeze"/><set attributeName="opacity" to="0" begin="1.067s" fill="freeze"/></text>
    <text x="210" y="160" text-anchor="middle" font-family='ui-monospace, "SF Mono", Menlo, Consolas, monospace' font-size="46" font-weight="700" fill="#FFFFFF" opacity="0" letter-spacing="-0.01em">3,526,998,939<set attributeName="opacity" to="1" begin="1.067s" fill="freeze"/><set attributeName="opacity" to="0" begin="1.111s" fill="freeze"/></text>
    <text x="210" y="160" text-anchor="middle" font-family='ui-monospace, "SF Mono", Menlo, Consolas, monospace' font-size="46" font-weight="700" fill="#FFFFFF" opacity="0" letter-spacing="-0.01em">3,532,055,365<set attributeName="opacity" to="1" begin="1.111s" fill="freeze"/><set attributeName="opacity" to="0" begin="1.156s" fill="freeze"/></text>
    <text x="210" y="160" text-anchor="middle" font-family='ui-monospace, "SF Mono", Menlo, Consolas, monospace' font-size="46" font-weight="700" fill="#FFFFFF" opacity="0" letter-spacing="-0.01em">3,536,226,211<set attributeName="opacity" to="1" begin="1.156s" fill="freeze"/><set attributeName="opacity" to="0" begin="1.200s" fill="freeze"/></text>
    <text x="210" y="160" text-anchor="middle" font-family='ui-monospace, "SF Mono", Menlo, Consolas, monospace' font-size="46" font-weight="700" fill="#FFFFFF" opacity="0" letter-spacing="-0.01em">3,539,666,578<set attributeName="opacity" to="1" begin="1.200s" fill="freeze"/><set attributeName="opacity" to="0" begin="1.244s" fill="freeze"/></text>
    <text x="210" y="160" text-anchor="middle" font-family='ui-monospace, "SF Mono", Menlo, Consolas, monospace' font-size="46" font-weight="700" fill="#FFFFFF" opacity="0" letter-spacing="-0.01em">3,542,504,401<set attributeName="opacity" to="1" begin="1.244s" fill="freeze"/><set attributeName="opacity" to="0" begin="1.289s" fill="freeze"/></text>
    <text x="210" y="160" text-anchor="middle" font-family='ui-monospace, "SF Mono", Menlo, Consolas, monospace' font-size="46" font-weight="700" fill="#FFFFFF" opacity="0" letter-spacing="-0.01em">3,544,845,209<set attributeName="opacity" to="1" begin="1.289s" fill="freeze"/><set attributeName="opacity" to="0" begin="1.333s" fill="freeze"/></text>
    <text x="210" y="160" text-anchor="middle" font-family='ui-monospace, "SF Mono", Menlo, Consolas, monospace' font-size="46" font-weight="700" fill="#FFFFFF" opacity="0" letter-spacing="-0.01em">3,546,776,050<set attributeName="opacity" to="1" begin="1.333s" fill="freeze"/><set attributeName="opacity" to="0" begin="1.378s" fill="freeze"/></text>
    <text x="210" y="160" text-anchor="middle" font-family='ui-monospace, "SF Mono", Menlo, Consolas, monospace' font-size="46" font-weight="700" fill="#FFFFFF" opacity="0" letter-spacing="-0.01em">3,548,368,724<set attributeName="opacity" to="1" begin="1.378s" fill="freeze"/><set attributeName="opacity" to="0" begin="1.422s" fill="freeze"/></text>
    <text x="210" y="160" text-anchor="middle" font-family='ui-monospace, "SF Mono", Menlo, Consolas, monospace' font-size="46" font-weight="700" fill="#FFFFFF" opacity="0" letter-spacing="-0.01em">3,549,682,459<set attributeName="opacity" to="1" begin="1.422s" fill="freeze"/><set attributeName="opacity" to="0" begin="1.467s" fill="freeze"/></text>
    <text x="210" y="160" text-anchor="middle" font-family='ui-monospace, "SF Mono", Menlo, Consolas, monospace' font-size="46" font-weight="700" fill="#FFFFFF" opacity="0" letter-spacing="-0.01em">3,550,766,106<set attributeName="opacity" to="1" begin="1.467s" fill="freeze"/><set attributeName="opacity" to="0" begin="1.511s" fill="freeze"/></text>
    <text x="210" y="160" text-anchor="middle" font-family='ui-monospace, "SF Mono", Menlo, Consolas, monospace' font-size="46" font-weight="700" fill="#FFFFFF" opacity="0" letter-spacing="-0.01em">3,551,659,964<set attributeName="opacity" to="1" begin="1.511s" fill="freeze"/><set attributeName="opacity" to="0" begin="1.556s" fill="freeze"/></text>
    <text x="210" y="160" text-anchor="middle" font-family='ui-monospace, "SF Mono", Menlo, Consolas, monospace' font-size="46" font-weight="700" fill="#FFFFFF" opacity="0" letter-spacing="-0.01em">3,555,869,802<set attributeName="opacity" to="1" begin="1.556s" fill="freeze"/></text>
  </g>

  <!-- left: caption -->
  <text x="210" y="212" text-anchor="middle"
        font-family='ui-monospace, "SF Mono", Menlo, Consolas, monospace' font-size="13" font-weight="400"
        fill="#8B949E" letter-spacing="0.02em" opacity="0">
    60 days. One developer.
    <animate attributeName="opacity" from="0" to="1"
             begin="1.45s" dur="0.5s" fill="freeze"/>
  </text>

  <!-- right: chart -->
  <g clip-path="url(#chartReveal)">
    <path d="M 420.00 259.74 C 421.53 259.70 426.10 259.59 429.15 259.52 C 432.20 259.44 435.25 259.32 438.31 259.27 C 441.36 259.23 444.41 259.37 447.46 259.24 C 450.51 259.11 453.56 258.77 456.61 258.50 C 459.66 258.22 462.71 257.77 465.76 257.61 C 468.81 257.46 471.86 257.88 474.92 257.56 C 477.97 257.23 481.02 256.05 484.07 255.65 C 487.12 255.25 490.17 255.46 493.22 255.15 C 496.27 254.83 499.32 254.44 502.37 253.75 C 505.42 253.07 508.47 251.66 511.53 251.03 C 514.58 250.40 517.63 250.76 520.68 249.97 C 523.73 249.17 526.78 246.86 529.83 246.24 C 532.88 245.62 535.93 246.27 538.98 246.23 C 542.03 246.18 545.08 246.29 548.14 245.95 C 551.19 245.62 554.24 244.71 557.29 244.23 C 560.34 243.74 563.39 243.48 566.44 243.06 C 569.49 242.64 572.54 242.03 575.59 241.69 C 578.64 241.35 581.69 241.25 584.75 241.03 C 587.80 240.81 590.85 240.79 593.90 240.37 C 596.95 239.95 600.00 238.84 603.05 238.52 C 606.10 238.20 609.15 238.73 612.20 238.45 C 615.25 238.16 618.31 237.67 621.36 236.80 C 624.41 235.93 627.46 233.95 630.51 233.21 C 633.56 232.46 636.61 232.67 639.66 232.35 C 642.71 232.03 645.76 231.73 648.81 231.27 C 651.86 230.81 654.92 229.94 657.97 229.57 C 661.02 229.19 664.07 230.48 667.12 229.03 C 670.17 227.59 673.22 222.36 676.27 220.91 C 679.32 219.47 682.37 221.40 685.42 220.36 C 688.47 219.32 691.53 216.88 694.58 214.68 C 697.63 212.48 700.68 208.41 703.73 207.15 C 706.78 205.90 709.83 207.84 712.88 207.14 C 715.93 206.43 718.98 205.12 722.03 202.91 C 725.08 200.70 728.14 197.26 731.19 193.86 C 734.24 190.46 737.29 184.64 740.34 182.53 C 743.39 180.41 746.44 181.49 749.49 181.18 C 752.54 180.87 755.59 182.07 758.64 180.69 C 761.69 179.31 764.75 176.45 767.80 172.89 C 770.85 169.34 773.90 161.83 776.95 159.34 C 780.00 156.86 783.05 158.37 786.10 158.00 C 789.15 157.63 792.20 157.40 795.25 157.13 C 798.31 156.86 801.36 156.96 804.41 156.37 C 807.46 155.78 810.51 154.96 813.56 153.58 C 816.61 152.20 819.66 151.12 822.71 148.08 C 825.76 145.05 828.81 138.32 831.86 135.35 C 834.92 132.38 837.97 133.65 841.02 130.25 C 844.07 126.85 847.12 117.52 850.17 114.94 C 853.22 112.37 856.27 114.81 859.32 114.78 C 862.37 114.75 865.42 115.01 868.47 114.77 C 871.53 114.53 874.58 114.43 877.63 113.35 C 880.68 112.28 883.73 109.55 886.78 108.32 C 889.83 107.09 892.88 106.44 895.93 105.98 C 898.98 105.51 902.03 106.84 905.08 105.52 C 908.14 104.20 911.19 99.44 914.24 98.06 C 917.29 96.68 920.34 97.43 923.39 97.25 C 926.44 97.07 929.49 101.18 932.54 96.98 C 935.59 92.77 938.64 78.13 941.69 72.00 C 944.75 65.87 947.80 63.20 950.85 60.20 C 953.90 57.20 958.47 55.03 960.00 54.00 L 960.00 260.00 L 420.00 260.00 Z" fill="url(#areaGrad)"/>
    <path d="M 420.00 259.74 C 421.53 259.70 426.10 259.59 429.15 259.52 C 432.20 259.44 435.25 259.32 438.31 259.27 C 441.36 259.23 444.41 259.37 447.46 259.24 C 450.51 259.11 453.56 258.77 456.61 258.50 C 459.66 258.22 462.71 257.77 465.76 257.61 C 468.81 257.46 471.86 257.88 474.92 257.56 C 477.97 257.23 481.02 256.05 484.07 255.65 C 487.12 255.25 490.17 255.46 493.22 255.15 C 496.27 254.83 499.32 254.44 502.37 253.75 C 505.42 253.07 508.47 251.66 511.53 251.03 C 514.58 250.40 517.63 250.76 520.68 249.97 C 523.73 249.17 526.78 246.86 529.83 246.24 C 532.88 245.62 535.93 246.27 538.98 246.23 C 542.03 246.18 545.08 246.29 548.14 245.95 C 551.19 245.62 554.24 244.71 557.29 244.23 C 560.34 243.74 563.39 243.48 566.44 243.06 C 569.49 242.64 572.54 242.03 575.59 241.69 C 578.64 241.35 581.69 241.25 584.75 241.03 C 587.80 240.81 590.85 240.79 593.90 240.37 C 596.95 239.95 600.00 238.84 603.05 238.52 C 606.10 238.20 609.15 238.73 612.20 238.45 C 615.25 238.16 618.31 237.67 621.36 236.80 C 624.41 235.93 627.46 233.95 630.51 233.21 C 633.56 232.46 636.61 232.67 639.66 232.35 C 642.71 232.03 645.76 231.73 648.81 231.27 C 651.86 230.81 654.92 229.94 657.97 229.57 C 661.02 229.19 664.07 230.48 667.12 229.03 C 670.17 227.59 673.22 222.36 676.27 220.91 C 679.32 219.47 682.37 221.40 685.42 220.36 C 688.47 219.32 691.53 216.88 694.58 214.68 C 697.63 212.48 700.68 208.41 703.73 207.15 C 706.78 205.90 709.83 207.84 712.88 207.14 C 715.93 206.43 718.98 205.12 722.03 202.91 C 725.08 200.70 728.14 197.26 731.19 193.86 C 734.24 190.46 737.29 184.64 740.34 182.53 C 743.39 180.41 746.44 181.49 749.49 181.18 C 752.54 180.87 755.59 182.07 758.64 180.69 C 761.69 179.31 764.75 176.45 767.80 172.89 C 770.85 169.34 773.90 161.83 776.95 159.34 C 780.00 156.86 783.05 158.37 786.10 158.00 C 789.15 157.63 792.20 157.40 795.25 157.13 C 798.31 156.86 801.36 156.96 804.41 156.37 C 807.46 155.78 810.51 154.96 813.56 153.58 C 816.61 152.20 819.66 151.12 822.71 148.08 C 825.76 145.05 828.81 138.32 831.86 135.35 C 834.92 132.38 837.97 133.65 841.02 130.25 C 844.07 126.85 847.12 117.52 850.17 114.94 C 853.22 112.37 856.27 114.81 859.32 114.78 C 862.37 114.75 865.42 115.01 868.47 114.77 C 871.53 114.53 874.58 114.43 877.63 113.35 C 880.68 112.28 883.73 109.55 886.78 108.32 C 889.83 107.09 892.88 106.44 895.93 105.98 C 898.98 105.51 902.03 106.84 905.08 105.52 C 908.14 104.20 911.19 99.44 914.24 98.06 C 917.29 96.68 920.34 97.43 923.39 97.25 C 926.44 97.07 929.49 101.18 932.54 96.98 C 935.59 92.77 938.64 78.13 941.69 72.00 C 944.75 65.87 947.80 63.20 950.85 60.20 C 953.90 57.20 958.47 55.03 960.00 54.00" fill="none" stroke="#FFFFFF"
          stroke-width="1.6" stroke-linecap="round" stroke-linejoin="round"/>
  </g>

  <!-- right: baseline hairline -->
  <line x1="420" y1="260" x2="960" y2="260"
        stroke="#8B949E" stroke-opacity="0.25" stroke-width="0.5"/>

  <!-- right: peak annotation -->
  <circle cx="960.00" cy="54.00" r="0" fill="#FFFFFF">
    <animate attributeName="r" from="0" to="3.5"
             begin="1.90s" dur="0.35s" fill="freeze"/>
  </circle>
  <text x="952.00" y="44.00" text-anchor="end"
        font-family='ui-monospace, "SF Mono", Menlo, Consolas, monospace' font-size="10" font-weight="500"
        fill="#FFFFFF" opacity="0">
    3,555,869,802
    <animate attributeName="opacity" from="0" to="0.85"
             begin="2.10s" dur="0.4s" fill="freeze"/>
  </text>
</svg>
