<svg xmlns="http://www.w3.org/2000/svg" viewBox="0 0 1000 300" width="1000" height="300" shape-rendering="geometricPrecision" text-rendering="optimizeLegibility" font-rendering="optimizeLegibility">
  <defs>
    <linearGradient id="areaGrad" x1="0" y1="0" x2="0" y2="1">
      <stop offset="0%"  stop-color="#FFFFFF" stop-opacity="0.38"/>
      <stop offset="60%" stop-color="#FFFFFF" stop-opacity="0.08"/>
      <stop offset="100%" stop-color="#0D1117" stop-opacity="0"/>
    </linearGradient>
    <clipPath id="chartReveal">
      <rect x="420" y="0" width="0" height="300">
        <animate attributeName="width" from="0" to="560"
                 begin="0.2s" dur="1.8s" fill="freeze"/>
      </rect>
    </clipPath>
  </defs>

  <!-- background -->
  <rect width="1000" height="300" fill="#0D1117"/>

  <!-- left: small label -->
  <text x="210" y="95" text-anchor="middle"
        font-family='ui-monospace, "SF Mono", Menlo, Consolas, monospace' font-size="10.5" font-weight="500"
        fill="#8B949E" letter-spacing="2.4" opacity="0">
    TOKENS PROCESSED · LAST 60 DAYS
    <animate attributeName="opacity" from="0" to="1"
             begin="0.05s" dur="0.5s" fill="freeze"/>
  </text>

  <!-- left: count-up frames -->
  <g>
    <text x="210" y="160" text-anchor="middle" font-family='ui-monospace, "SF Mono", Menlo, Consolas, monospace' font-size="46" font-weight="700" fill="#FFFFFF" opacity="0" letter-spacing="-0.01em">614,823,070<set attributeName="opacity" to="1" begin="0.000s" fill="freeze"/><set attributeName="opacity" to="0" begin="0.044s" fill="freeze"/></text>
    <text x="210" y="160" text-anchor="middle" font-family='ui-monospace, "SF Mono", Menlo, Consolas, monospace' font-size="46" font-weight="700" fill="#FFFFFF" opacity="0" letter-spacing="-0.01em">1,121,966,392<set attributeName="opacity" to="1" begin="0.044s" fill="freeze"/><set attributeName="opacity" to="0" begin="0.089s" fill="freeze"/></text>
    <text x="210" y="160" text-anchor="middle" font-family='ui-monospace, "SF Mono", Menlo, Consolas, monospace' font-size="46" font-weight="700" fill="#FFFFFF" opacity="0" letter-spacing="-0.01em">1,540,288,935<set attributeName="opacity" to="1" begin="0.089s" fill="freeze"/><set attributeName="opacity" to="0" begin="0.133s" fill="freeze"/></text>
    <text x="210" y="160" text-anchor="middle" font-family='ui-monospace, "SF Mono", Menlo, Consolas, monospace' font-size="46" font-weight="700" fill="#FFFFFF" opacity="0" letter-spacing="-0.01em">1,885,346,716<set attributeName="opacity" to="1" begin="0.133s" fill="freeze"/><set attributeName="opacity" to="0" begin="0.178s" fill="freeze"/></text>
    <text x="210" y="160" text-anchor="middle" font-family='ui-monospace, "SF Mono", Menlo, Consolas, monospace' font-size="46" font-weight="700" fill="#FFFFFF" opacity="0" letter-spacing="-0.01em">2,169,971,282<set attributeName="opacity" to="1" begin="0.178s" fill="freeze"/><set attributeName="opacity" to="0" begin="0.222s" fill="freeze"/></text>
    <text x="210" y="160" text-anchor="middle" font-family='ui-monospace, "SF Mono", Menlo, Consolas, monospace' font-size="46" font-weight="700" fill="#FFFFFF" opacity="0" letter-spacing="-0.01em">2,404,746,871<set attributeName="opacity" to="1" begin="0.222s" fill="freeze"/><set attributeName="opacity" to="0" begin="0.267s" fill="freeze"/></text>
    <text x="210" y="160" text-anchor="middle" font-family='ui-monospace, "SF Mono", Menlo, Consolas, monospace' font-size="46" font-weight="700" fill="#FFFFFF" opacity="0" letter-spacing="-0.01em">2,598,404,003<set attributeName="opacity" to="1" begin="0.267s" fill="freeze"/><set attributeName="opacity" to="0" begin="0.311s" fill="freeze"/></text>
    <text x="210" y="160" text-anchor="middle" font-family='ui-monospace, "SF Mono", Menlo, Consolas, monospace' font-size="46" font-weight="700" fill="#FFFFFF" opacity="0" letter-spacing="-0.01em">2,758,144,140<set attributeName="opacity" to="1" begin="0.311s" fill="freeze"/><set attributeName="opacity" to="0" begin="0.356s" fill="freeze"/></text>
    <text x="210" y="160" text-anchor="middle" font-family='ui-monospace, "SF Mono", Menlo, Consolas, monospace' font-size="46" font-weight="700" fill="#FFFFFF" opacity="0" letter-spacing="-0.01em">2,889,907,484<set attributeName="opacity" to="1" begin="0.356s" fill="freeze"/><set attributeName="opacity" to="0" begin="0.400s" fill="freeze"/></text>
    <text x="210" y="160" text-anchor="middle" font-family='ui-monospace, "SF Mono", Menlo, Consolas, monospace' font-size="46" font-weight="700" fill="#FFFFFF" opacity="0" letter-spacing="-0.01em">2,998,593,874<set attributeName="opacity" to="1" begin="0.400s" fill="freeze"/><set attributeName="opacity" to="0" begin="0.444s" fill="freeze"/></text>
    <text x="210" y="160" text-anchor="middle" font-family='ui-monospace, "SF Mono", Menlo, Consolas, monospace' font-size="46" font-weight="700" fill="#FFFFFF" opacity="0" letter-spacing="-0.01em">3,088,244,995<set attributeName="opacity" to="1" begin="0.444s" fill="freeze"/><set attributeName="opacity" to="0" begin="0.489s" fill="freeze"/></text>
    <text x="210" y="160" text-anchor="middle" font-family='ui-monospace, "SF Mono", Menlo, Consolas, monospace' font-size="46" font-weight="700" fill="#FFFFFF" opacity="0" letter-spacing="-0.01em">3,162,194,671<set attributeName="opacity" to="1" begin="0.489s" fill="freeze"/><set attributeName="opacity" to="0" begin="0.533s" fill="freeze"/></text>
    <text x="210" y="160" text-anchor="middle" font-family='ui-monospace, "SF Mono", Menlo, Consolas, monospace' font-size="46" font-weight="700" fill="#FFFFFF" opacity="0" letter-spacing="-0.01em">3,223,192,846<set attributeName="opacity" to="1" begin="0.533s" fill="freeze"/><set attributeName="opacity" to="0" begin="0.578s" fill="freeze"/></text>
    <text x="210" y="160" text-anchor="middle" font-family='ui-monospace, "SF Mono", Menlo, Consolas, monospace' font-size="46" font-weight="700" fill="#FFFFFF" opacity="0" letter-spacing="-0.01em">3,273,507,836<set attributeName="opacity" to="1" begin="0.578s" fill="freeze"/><set attributeName="opacity" to="0" begin="0.622s" fill="freeze"/></text>
    <text x="210" y="160" text-anchor="middle" font-family='ui-monospace, "SF Mono", Menlo, Consolas, monospace' font-size="46" font-weight="700" fill="#FFFFFF" opacity="0" letter-spacing="-0.01em">3,315,010,689<set attributeName="opacity" to="1" begin="0.622s" fill="freeze"/><set attributeName="opacity" to="0" begin="0.667s" fill="freeze"/></text>
    <text x="210" y="160" text-anchor="middle" font-family='ui-monospace, "SF Mono", Menlo, Consolas, monospace' font-size="46" font-weight="700" fill="#FFFFFF" opacity="0" letter-spacing="-0.01em">3,349,244,756<set attributeName="opacity" to="1" begin="0.667s" fill="freeze"/><set attributeName="opacity" to="0" begin="0.711s" fill="freeze"/></text>
    <text x="210" y="160" text-anchor="middle" font-family='ui-monospace, "SF Mono", Menlo, Consolas, monospace' font-size="46" font-weight="700" fill="#FFFFFF" opacity="0" letter-spacing="-0.01em">3,377,483,090<set attributeName="opacity" to="1" begin="0.711s" fill="freeze"/><set attributeName="opacity" to="0" begin="0.756s" fill="freeze"/></text>
    <text x="210" y="160" text-anchor="middle" font-family='ui-monospace, "SF Mono", Menlo, Consolas, monospace' font-size="46" font-weight="700" fill="#FFFFFF" opacity="0" letter-spacing="-0.01em">3,400,775,779<set attributeName="opacity" to="1" begin="0.756s" fill="freeze"/><set attributeName="opacity" to="0" begin="0.800s" fill="freeze"/></text>
    <text x="210" y="160" text-anchor="middle" font-family='ui-monospace, "SF Mono", Menlo, Consolas, monospace' font-size="46" font-weight="700" fill="#FFFFFF" opacity="0" letter-spacing="-0.01em">3,419,988,999<set attributeName="opacity" to="1" begin="0.800s" fill="freeze"/><set attributeName="opacity" to="0" begin="0.844s" fill="freeze"/></text>
    <text x="210" y="160" text-anchor="middle" font-family='ui-monospace, "SF Mono", Menlo, Consolas, monospace' font-size="46" font-weight="700" fill="#FFFFFF" opacity="0" letter-spacing="-0.01em">3,435,837,228<set attributeName="opacity" to="1" begin="0.844s" fill="freeze"/><set attributeName="opacity" to="0" begin="0.889s" fill="freeze"/></text>
    <text x="210" y="160" text-anchor="middle" font-family='ui-monospace, "SF Mono", Menlo, Consolas, monospace' font-size="46" font-weight="700" fill="#FFFFFF" opacity="0" letter-spacing="-0.01em">3,448,909,808<set attributeName="opacity" to="1" begin="0.889s" fill="freeze"/><set attributeName="opacity" to="0" begin="0.933s" fill="freeze"/></text>
    <text x="210" y="160" text-anchor="middle" font-family='ui-monospace, "SF Mono", Menlo, Consolas, monospace' font-size="46" font-weight="700" fill="#FFFFFF" opacity="0" letter-spacing="-0.01em">3,459,692,863<set attributeName="opacity" to="1" begin="0.933s" fill="freeze"/><set attributeName="opacity" to="0" begin="0.978s" fill="freeze"/></text>
    <text x="210" y="160" text-anchor="middle" font-family='ui-monospace, "SF Mono", Menlo, Consolas, monospace' font-size="46" font-weight="700" fill="#FFFFFF" opacity="0" letter-spacing="-0.01em">3,468,587,381<set attributeName="opacity" to="1" begin="0.978s" fill="freeze"/><set attributeName="opacity" to="0" begin="1.022s" fill="freeze"/></text>
    <text x="210" y="160" text-anchor="middle" font-family='ui-monospace, "SF Mono", Menlo, Consolas, monospace' font-size="46" font-weight="700" fill="#FFFFFF" opacity="0" letter-spacing="-0.01em">3,475,924,118<set attributeName="opacity" to="1" begin="1.022s" fill="freeze"/><set attributeName="opacity" to="0" begin="1.067s" fill="freeze"/></text>
    <text x="210" y="160" text-anchor="middle" font-family='ui-monospace, "SF Mono", Menlo, Consolas, monospace' font-size="46" font-weight="700" fill="#FFFFFF" opacity="0" letter-spacing="-0.01em">3,481,975,904<set attributeName="opacity" to="1" begin="1.067s" fill="freeze"/><set attributeName="opacity" to="0" begin="1.111s" fill="freeze"/></text>
    <text x="210" y="160" text-anchor="middle" font-family='ui-monospace, "SF Mono", Menlo, Consolas, monospace' font-size="46" font-weight="700" fill="#FFFFFF" opacity="0" letter-spacing="-0.01em">3,486,967,783<set attributeName="opacity" to="1" begin="1.111s" fill="freeze"/><set attributeName="opacity" to="0" begin="1.156s" fill="freeze"/></text>
    <text x="210" y="160" text-anchor="middle" font-family='ui-monospace, "SF Mono", Menlo, Consolas, monospace' font-size="46" font-weight="700" fill="#FFFFFF" opacity="0" letter-spacing="-0.01em">3,491,085,387<set attributeName="opacity" to="1" begin="1.156s" fill="freeze"/><set attributeName="opacity" to="0" begin="1.200s" fill="freeze"/></text>
    <text x="210" y="160" text-anchor="middle" font-family='ui-monospace, "SF Mono", Menlo, Consolas, monospace' font-size="46" font-weight="700" fill="#FFFFFF" opacity="0" letter-spacing="-0.01em">3,494,481,837<set attributeName="opacity" to="1" begin="1.200s" fill="freeze"/><set attributeName="opacity" to="0" begin="1.244s" fill="freeze"/></text>
    <text x="210" y="160" text-anchor="middle" font-family='ui-monospace, "SF Mono", Menlo, Consolas, monospace' font-size="46" font-weight="700" fill="#FFFFFF" opacity="0" letter-spacing="-0.01em">3,497,283,435<set attributeName="opacity" to="1" begin="1.244s" fill="freeze"/><set attributeName="opacity" to="0" begin="1.289s" fill="freeze"/></text>
    <text x="210" y="160" text-anchor="middle" font-family='ui-monospace, "SF Mono", Menlo, Consolas, monospace' font-size="46" font-weight="700" fill="#FFFFFF" opacity="0" letter-spacing="-0.01em">3,499,594,362<set attributeName="opacity" to="1" begin="1.289s" fill="freeze"/><set attributeName="opacity" to="0" begin="1.333s" fill="freeze"/></text>
    <text x="210" y="160" text-anchor="middle" font-family='ui-monospace, "SF Mono", Menlo, Consolas, monospace' font-size="46" font-weight="700" fill="#FFFFFF" opacity="0" letter-spacing="-0.01em">3,501,500,555<set attributeName="opacity" to="1" begin="1.333s" fill="freeze"/><set attributeName="opacity" to="0" begin="1.378s" fill="freeze"/></text>
    <text x="210" y="160" text-anchor="middle" font-family='ui-monospace, "SF Mono", Menlo, Consolas, monospace' font-size="46" font-weight="700" fill="#FFFFFF" opacity="0" letter-spacing="-0.01em">3,503,072,898<set attributeName="opacity" to="1" begin="1.378s" fill="freeze"/><set attributeName="opacity" to="0" begin="1.422s" fill="freeze"/></text>
    <text x="210" y="160" text-anchor="middle" font-family='ui-monospace, "SF Mono", Menlo, Consolas, monospace' font-size="46" font-weight="700" fill="#FFFFFF" opacity="0" letter-spacing="-0.01em">3,504,369,863<set attributeName="opacity" to="1" begin="1.422s" fill="freeze"/><set attributeName="opacity" to="0" begin="1.467s" fill="freeze"/></text>
    <text x="210" y="160" text-anchor="middle" font-family='ui-monospace, "SF Mono", Menlo, Consolas, monospace' font-size="46" font-weight="700" fill="#FFFFFF" opacity="0" letter-spacing="-0.01em">3,505,439,677<set attributeName="opacity" to="1" begin="1.467s" fill="freeze"/><set attributeName="opacity" to="0" begin="1.511s" fill="freeze"/></text>
    <text x="210" y="160" text-anchor="middle" font-family='ui-monospace, "SF Mono", Menlo, Consolas, monospace' font-size="46" font-weight="700" fill="#FFFFFF" opacity="0" letter-spacing="-0.01em">3,506,322,125<set attributeName="opacity" to="1" begin="1.511s" fill="freeze"/><set attributeName="opacity" to="0" begin="1.556s" fill="freeze"/></text>
    <text x="210" y="160" text-anchor="middle" font-family='ui-monospace, "SF Mono", Menlo, Consolas, monospace' font-size="46" font-weight="700" fill="#FFFFFF" opacity="0" letter-spacing="-0.01em">3,510,478,223<set attributeName="opacity" to="1" begin="1.556s" fill="freeze"/></text>
  </g>

  <!-- left: caption -->
  <text x="210" y="212" text-anchor="middle"
        font-family='ui-monospace, "SF Mono", Menlo, Consolas, monospace' font-size="13" font-weight="400"
        fill="#8B949E" letter-spacing="0.02em" opacity="0">
    60 days. One developer.
    <animate attributeName="opacity" from="0" to="1"
             begin="1.45s" dur="0.5s" fill="freeze"/>
  </text>

  <!-- right: chart -->
  <g clip-path="url(#chartReveal)">
    <path d="M 420.00 259.99 C 421.53 259.99 426.10 260.00 429.15 259.94 C 432.20 259.89 435.25 259.76 438.31 259.68 C 441.36 259.60 444.41 259.53 447.46 259.46 C 450.51 259.38 453.56 259.25 456.61 259.21 C 459.66 259.16 462.71 259.31 465.76 259.18 C 468.81 259.05 471.86 258.70 474.92 258.42 C 477.97 258.15 481.02 257.69 484.07 257.53 C 487.12 257.37 490.17 257.80 493.22 257.47 C 496.27 257.14 499.32 255.94 502.37 255.54 C 505.42 255.13 508.47 255.35 511.53 255.03 C 514.58 254.71 517.63 254.31 520.68 253.62 C 523.73 252.92 526.78 251.50 529.83 250.86 C 532.88 250.22 535.93 250.59 538.98 249.78 C 542.03 248.97 545.08 246.64 548.14 246.01 C 551.19 245.38 554.24 246.04 557.29 245.99 C 560.34 245.94 563.39 246.05 566.44 245.72 C 569.49 245.38 572.54 244.46 575.59 243.97 C 578.64 243.48 581.69 243.21 584.75 242.79 C 587.80 242.36 590.85 241.74 593.90 241.40 C 596.95 241.06 600.00 240.95 603.05 240.73 C 606.10 240.51 609.15 240.48 612.20 240.06 C 615.25 239.63 618.31 238.51 621.36 238.18 C 624.41 237.86 627.46 238.40 630.51 238.11 C 633.56 237.82 636.61 237.33 639.66 236.44 C 642.71 235.56 645.76 233.55 648.81 232.80 C 651.86 232.05 654.92 232.27 657.97 231.94 C 661.02 231.61 664.07 231.31 667.12 230.84 C 670.17 230.37 673.22 229.41 676.27 229.12 C 679.32 228.83 682.37 230.42 685.42 229.10 C 688.47 227.79 691.53 224.81 694.58 221.21 C 697.63 217.61 700.68 210.00 703.73 207.48 C 706.78 204.97 709.83 206.50 712.88 206.13 C 715.93 205.75 718.98 205.52 722.03 205.24 C 725.08 204.97 728.14 205.07 731.19 204.47 C 734.24 203.87 737.29 203.04 740.34 201.65 C 743.39 200.25 746.44 199.16 749.49 196.08 C 752.54 193.00 755.59 186.19 758.64 183.18 C 761.69 180.17 764.75 181.46 767.80 178.02 C 770.85 174.57 773.90 165.12 776.95 162.51 C 780.00 159.90 783.05 162.38 786.10 162.35 C 789.15 162.32 792.20 162.58 795.25 162.34 C 798.31 162.09 801.36 161.99 804.41 160.90 C 807.46 159.81 810.51 157.04 813.56 155.80 C 816.61 154.55 819.66 153.90 822.71 153.43 C 825.76 152.95 828.81 154.30 831.86 152.97 C 834.92 151.63 837.97 146.80 841.02 145.41 C 844.07 144.01 847.12 144.77 850.17 144.59 C 853.22 144.41 856.27 148.57 859.32 144.31 C 862.37 140.05 865.42 125.22 868.47 119.01 C 871.53 112.80 874.58 110.10 877.63 107.06 C 880.68 104.02 883.73 102.48 886.78 100.78 C 889.83 99.07 892.88 97.62 895.93 96.83 C 898.98 96.05 902.03 96.61 905.08 96.05 C 908.14 95.49 911.19 95.76 914.24 93.49 C 917.29 91.22 920.34 85.85 923.39 82.44 C 926.44 79.02 929.49 74.78 932.54 73.00 C 935.59 71.23 938.64 72.15 941.69 71.80 C 944.75 71.45 947.80 73.88 950.85 70.92 C 953.90 67.95 958.47 56.82 960.00 54.00 L 960.00 260.00 L 420.00 260.00 Z" fill="url(#areaGrad)"/>
    <path d="M 420.00 259.99 C 421.53 259.99 426.10 260.00 429.15 259.94 C 432.20 259.89 435.25 259.76 438.31 259.68 C 441.36 259.60 444.41 259.53 447.46 259.46 C 450.51 259.38 453.56 259.25 456.61 259.21 C 459.66 259.16 462.71 259.31 465.76 259.18 C 468.81 259.05 471.86 258.70 474.92 258.42 C 477.97 258.15 481.02 257.69 484.07 257.53 C 487.12 257.37 490.17 257.80 493.22 257.47 C 496.27 257.14 499.32 255.94 502.37 255.54 C 505.42 255.13 508.47 255.35 511.53 255.03 C 514.58 254.71 517.63 254.31 520.68 253.62 C 523.73 252.92 526.78 251.50 529.83 250.86 C 532.88 250.22 535.93 250.59 538.98 249.78 C 542.03 248.97 545.08 246.64 548.14 246.01 C 551.19 245.38 554.24 246.04 557.29 245.99 C 560.34 245.94 563.39 246.05 566.44 245.72 C 569.49 245.38 572.54 244.46 575.59 243.97 C 578.64 243.48 581.69 243.21 584.75 242.79 C 587.80 242.36 590.85 241.74 593.90 241.40 C 596.95 241.06 600.00 240.95 603.05 240.73 C 606.10 240.51 609.15 240.48 612.20 240.06 C 615.25 239.63 618.31 238.51 621.36 238.18 C 624.41 237.86 627.46 238.40 630.51 238.11 C 633.56 237.82 636.61 237.33 639.66 236.44 C 642.71 235.56 645.76 233.55 648.81 232.80 C 651.86 232.05 654.92 232.27 657.97 231.94 C 661.02 231.61 664.07 231.31 667.12 230.84 C 670.17 230.37 673.22 229.41 676.27 229.12 C 679.32 228.83 682.37 230.42 685.42 229.10 C 688.47 227.79 691.53 224.81 694.58 221.21 C 697.63 217.61 700.68 210.00 703.73 207.48 C 706.78 204.97 709.83 206.50 712.88 206.13 C 715.93 205.75 718.98 205.52 722.03 205.24 C 725.08 204.97 728.14 205.07 731.19 204.47 C 734.24 203.87 737.29 203.04 740.34 201.65 C 743.39 200.25 746.44 199.16 749.49 196.08 C 752.54 193.00 755.59 186.19 758.64 183.18 C 761.69 180.17 764.75 181.46 767.80 178.02 C 770.85 174.57 773.90 165.12 776.95 162.51 C 780.00 159.90 783.05 162.38 786.10 162.35 C 789.15 162.32 792.20 162.58 795.25 162.34 C 798.31 162.09 801.36 161.99 804.41 160.90 C 807.46 159.81 810.51 157.04 813.56 155.80 C 816.61 154.55 819.66 153.90 822.71 153.43 C 825.76 152.95 828.81 154.30 831.86 152.97 C 834.92 151.63 837.97 146.80 841.02 145.41 C 844.07 144.01 847.12 144.77 850.17 144.59 C 853.22 144.41 856.27 148.57 859.32 144.31 C 862.37 140.05 865.42 125.22 868.47 119.01 C 871.53 112.80 874.58 110.10 877.63 107.06 C 880.68 104.02 883.73 102.48 886.78 100.78 C 889.83 99.07 892.88 97.62 895.93 96.83 C 898.98 96.05 902.03 96.61 905.08 96.05 C 908.14 95.49 911.19 95.76 914.24 93.49 C 917.29 91.22 920.34 85.85 923.39 82.44 C 926.44 79.02 929.49 74.78 932.54 73.00 C 935.59 71.23 938.64 72.15 941.69 71.80 C 944.75 71.45 947.80 73.88 950.85 70.92 C 953.90 67.95 958.47 56.82 960.00 54.00" fill="none" stroke="#FFFFFF"
          stroke-width="1.6" stroke-linecap="round" stroke-linejoin="round"/>
  </g>

  <!-- right: baseline hairline -->
  <line x1="420" y1="260" x2="960" y2="260"
        stroke="#8B949E" stroke-opacity="0.25" stroke-width="0.5"/>

  <!-- right: peak annotation -->
  <circle cx="960.00" cy="54.00" r="0" fill="#FFFFFF">
    <animate attributeName="r" from="0" to="3.5"
             begin="1.90s" dur="0.35s" fill="freeze"/>
  </circle>
  <text x="952.00" y="44.00" text-anchor="end"
        font-family='ui-monospace, "SF Mono", Menlo, Consolas, monospace' font-size="10" font-weight="500"
        fill="#FFFFFF" opacity="0">
    3,510,478,223
    <animate attributeName="opacity" from="0" to="0.85"
             begin="2.10s" dur="0.4s" fill="freeze"/>
  </text>
</svg>
