<svg xmlns="http://www.w3.org/2000/svg" viewBox="0 0 1000 300" width="1000" height="300" shape-rendering="geometricPrecision" text-rendering="optimizeLegibility" font-rendering="optimizeLegibility">
  <defs>
    <linearGradient id="areaGrad" x1="0" y1="0" x2="0" y2="1">
      <stop offset="0%"  stop-color="#FFFFFF" stop-opacity="0.38"/>
      <stop offset="60%" stop-color="#FFFFFF" stop-opacity="0.08"/>
      <stop offset="100%" stop-color="#0D1117" stop-opacity="0"/>
    </linearGradient>
    <clipPath id="chartReveal">
      <rect x="420" y="0" width="0" height="300">
        <animate attributeName="width" from="0" to="560"
                 begin="0.2s" dur="1.8s" fill="freeze"/>
      </rect>
    </clipPath>
  </defs>

  <!-- background -->
  <rect width="1000" height="300" fill="#0D1117"/>

  <!-- left: small label -->
  <text x="210" y="95" text-anchor="middle"
        font-family='ui-monospace, "SF Mono", Menlo, Consolas, monospace' font-size="10.5" font-weight="500"
        fill="#8B949E" letter-spacing="2.4" opacity="0">
    TOKENS PROCESSED · LAST 60 DAYS
    <animate attributeName="opacity" from="0" to="1"
             begin="0.05s" dur="0.5s" fill="freeze"/>
  </text>

  <!-- left: count-up frames -->
  <g>
    <text x="210" y="160" text-anchor="middle" font-family='ui-monospace, "SF Mono", Menlo, Consolas, monospace' font-size="46" font-weight="700" fill="#FFFFFF" opacity="0" letter-spacing="-0.01em">624,596,188<set attributeName="opacity" to="1" begin="0.000s" fill="freeze"/><set attributeName="opacity" to="0" begin="0.044s" fill="freeze"/></text>
    <text x="210" y="160" text-anchor="middle" font-family='ui-monospace, "SF Mono", Menlo, Consolas, monospace' font-size="46" font-weight="700" fill="#FFFFFF" opacity="0" letter-spacing="-0.01em">1,139,800,970<set attributeName="opacity" to="1" begin="0.044s" fill="freeze"/><set attributeName="opacity" to="0" begin="0.089s" fill="freeze"/></text>
    <text x="210" y="160" text-anchor="middle" font-family='ui-monospace, "SF Mono", Menlo, Consolas, monospace' font-size="46" font-weight="700" fill="#FFFFFF" opacity="0" letter-spacing="-0.01em">1,564,773,093<set attributeName="opacity" to="1" begin="0.089s" fill="freeze"/><set attributeName="opacity" to="0" begin="0.133s" fill="freeze"/></text>
    <text x="210" y="160" text-anchor="middle" font-family='ui-monospace, "SF Mono", Menlo, Consolas, monospace' font-size="46" font-weight="700" fill="#FFFFFF" opacity="0" letter-spacing="-0.01em">1,915,315,851<set attributeName="opacity" to="1" begin="0.133s" fill="freeze"/><set attributeName="opacity" to="0" begin="0.178s" fill="freeze"/></text>
    <text x="210" y="160" text-anchor="middle" font-family='ui-monospace, "SF Mono", Menlo, Consolas, monospace' font-size="46" font-weight="700" fill="#FFFFFF" opacity="0" letter-spacing="-0.01em">2,204,464,759<set attributeName="opacity" to="1" begin="0.178s" fill="freeze"/><set attributeName="opacity" to="0" begin="0.222s" fill="freeze"/></text>
    <text x="210" y="160" text-anchor="middle" font-family='ui-monospace, "SF Mono", Menlo, Consolas, monospace' font-size="46" font-weight="700" fill="#FFFFFF" opacity="0" letter-spacing="-0.01em">2,442,972,299<set attributeName="opacity" to="1" begin="0.222s" fill="freeze"/><set attributeName="opacity" to="0" begin="0.267s" fill="freeze"/></text>
    <text x="210" y="160" text-anchor="middle" font-family='ui-monospace, "SF Mono", Menlo, Consolas, monospace' font-size="46" font-weight="700" fill="#FFFFFF" opacity="0" letter-spacing="-0.01em">2,639,707,770<set attributeName="opacity" to="1" begin="0.267s" fill="freeze"/><set attributeName="opacity" to="0" begin="0.311s" fill="freeze"/></text>
    <text x="210" y="160" text-anchor="middle" font-family='ui-monospace, "SF Mono", Menlo, Consolas, monospace' font-size="46" font-weight="700" fill="#FFFFFF" opacity="0" letter-spacing="-0.01em">2,801,987,108<set attributeName="opacity" to="1" begin="0.311s" fill="freeze"/><set attributeName="opacity" to="0" begin="0.356s" fill="freeze"/></text>
    <text x="210" y="160" text-anchor="middle" font-family='ui-monospace, "SF Mono", Menlo, Consolas, monospace' font-size="46" font-weight="700" fill="#FFFFFF" opacity="0" letter-spacing="-0.01em">2,935,844,939<set attributeName="opacity" to="1" begin="0.356s" fill="freeze"/><set attributeName="opacity" to="0" begin="0.400s" fill="freeze"/></text>
    <text x="210" y="160" text-anchor="middle" font-family='ui-monospace, "SF Mono", Menlo, Consolas, monospace' font-size="46" font-weight="700" fill="#FFFFFF" opacity="0" letter-spacing="-0.01em">3,046,258,989<set attributeName="opacity" to="1" begin="0.400s" fill="freeze"/><set attributeName="opacity" to="0" begin="0.444s" fill="freeze"/></text>
    <text x="210" y="160" text-anchor="middle" font-family='ui-monospace, "SF Mono", Menlo, Consolas, monospace' font-size="46" font-weight="700" fill="#FFFFFF" opacity="0" letter-spacing="-0.01em">3,137,335,188<set attributeName="opacity" to="1" begin="0.444s" fill="freeze"/><set attributeName="opacity" to="0" begin="0.489s" fill="freeze"/></text>
    <text x="210" y="160" text-anchor="middle" font-family='ui-monospace, "SF Mono", Menlo, Consolas, monospace' font-size="46" font-weight="700" fill="#FFFFFF" opacity="0" letter-spacing="-0.01em">3,212,460,355<set attributeName="opacity" to="1" begin="0.489s" fill="freeze"/><set attributeName="opacity" to="0" begin="0.533s" fill="freeze"/></text>
    <text x="210" y="160" text-anchor="middle" font-family='ui-monospace, "SF Mono", Menlo, Consolas, monospace' font-size="46" font-weight="700" fill="#FFFFFF" opacity="0" letter-spacing="-0.01em">3,274,428,145<set attributeName="opacity" to="1" begin="0.533s" fill="freeze"/><set attributeName="opacity" to="0" begin="0.578s" fill="freeze"/></text>
    <text x="210" y="160" text-anchor="middle" font-family='ui-monospace, "SF Mono", Menlo, Consolas, monospace' font-size="46" font-weight="700" fill="#FFFFFF" opacity="0" letter-spacing="-0.01em">3,325,542,934<set attributeName="opacity" to="1" begin="0.578s" fill="freeze"/><set attributeName="opacity" to="0" begin="0.622s" fill="freeze"/></text>
    <text x="210" y="160" text-anchor="middle" font-family='ui-monospace, "SF Mono", Menlo, Consolas, monospace' font-size="46" font-weight="700" fill="#FFFFFF" opacity="0" letter-spacing="-0.01em">3,367,705,509<set attributeName="opacity" to="1" begin="0.622s" fill="freeze"/><set attributeName="opacity" to="0" begin="0.667s" fill="freeze"/></text>
    <text x="210" y="160" text-anchor="middle" font-family='ui-monospace, "SF Mono", Menlo, Consolas, monospace' font-size="46" font-weight="700" fill="#FFFFFF" opacity="0" letter-spacing="-0.01em">3,402,483,755<set attributeName="opacity" to="1" begin="0.667s" fill="freeze"/><set attributeName="opacity" to="0" begin="0.711s" fill="freeze"/></text>
    <text x="210" y="160" text-anchor="middle" font-family='ui-monospace, "SF Mono", Menlo, Consolas, monospace' font-size="46" font-weight="700" fill="#FFFFFF" opacity="0" letter-spacing="-0.01em">3,431,170,960<set attributeName="opacity" to="1" begin="0.711s" fill="freeze"/><set attributeName="opacity" to="0" begin="0.756s" fill="freeze"/></text>
    <text x="210" y="160" text-anchor="middle" font-family='ui-monospace, "SF Mono", Menlo, Consolas, monospace' font-size="46" font-weight="700" fill="#FFFFFF" opacity="0" letter-spacing="-0.01em">3,454,833,905<set attributeName="opacity" to="1" begin="0.756s" fill="freeze"/><set attributeName="opacity" to="0" begin="0.800s" fill="freeze"/></text>
    <text x="210" y="160" text-anchor="middle" font-family='ui-monospace, "SF Mono", Menlo, Consolas, monospace' font-size="46" font-weight="700" fill="#FFFFFF" opacity="0" letter-spacing="-0.01em">3,474,352,536<set attributeName="opacity" to="1" begin="0.800s" fill="freeze"/><set attributeName="opacity" to="0" begin="0.844s" fill="freeze"/></text>
    <text x="210" y="160" text-anchor="middle" font-family='ui-monospace, "SF Mono", Menlo, Consolas, monospace' font-size="46" font-weight="700" fill="#FFFFFF" opacity="0" letter-spacing="-0.01em">3,490,452,685<set attributeName="opacity" to="1" begin="0.844s" fill="freeze"/><set attributeName="opacity" to="0" begin="0.889s" fill="freeze"/></text>
    <text x="210" y="160" text-anchor="middle" font-family='ui-monospace, "SF Mono", Menlo, Consolas, monospace' font-size="46" font-weight="700" fill="#FFFFFF" opacity="0" letter-spacing="-0.01em">3,503,733,064<set attributeName="opacity" to="1" begin="0.889s" fill="freeze"/><set attributeName="opacity" to="0" begin="0.933s" fill="freeze"/></text>
    <text x="210" y="160" text-anchor="middle" font-family='ui-monospace, "SF Mono", Menlo, Consolas, monospace' font-size="46" font-weight="700" fill="#FFFFFF" opacity="0" letter-spacing="-0.01em">3,514,687,525<set attributeName="opacity" to="1" begin="0.933s" fill="freeze"/><set attributeName="opacity" to="0" begin="0.978s" fill="freeze"/></text>
    <text x="210" y="160" text-anchor="middle" font-family='ui-monospace, "SF Mono", Menlo, Consolas, monospace' font-size="46" font-weight="700" fill="#FFFFFF" opacity="0" letter-spacing="-0.01em">3,523,723,429<set attributeName="opacity" to="1" begin="0.978s" fill="freeze"/><set attributeName="opacity" to="0" begin="1.022s" fill="freeze"/></text>
    <text x="210" y="160" text-anchor="middle" font-family='ui-monospace, "SF Mono", Menlo, Consolas, monospace' font-size="46" font-weight="700" fill="#FFFFFF" opacity="0" letter-spacing="-0.01em">3,531,176,789<set attributeName="opacity" to="1" begin="1.022s" fill="freeze"/><set attributeName="opacity" to="0" begin="1.067s" fill="freeze"/></text>
    <text x="210" y="160" text-anchor="middle" font-family='ui-monospace, "SF Mono", Menlo, Consolas, monospace' font-size="46" font-weight="700" fill="#FFFFFF" opacity="0" letter-spacing="-0.01em">3,537,324,773<set attributeName="opacity" to="1" begin="1.067s" fill="freeze"/><set attributeName="opacity" to="0" begin="1.111s" fill="freeze"/></text>
    <text x="210" y="160" text-anchor="middle" font-family='ui-monospace, "SF Mono", Menlo, Consolas, monospace' font-size="46" font-weight="700" fill="#FFFFFF" opacity="0" letter-spacing="-0.01em">3,542,396,002<set attributeName="opacity" to="1" begin="1.111s" fill="freeze"/><set attributeName="opacity" to="0" begin="1.156s" fill="freeze"/></text>
    <text x="210" y="160" text-anchor="middle" font-family='ui-monospace, "SF Mono", Menlo, Consolas, monospace' font-size="46" font-weight="700" fill="#FFFFFF" opacity="0" letter-spacing="-0.01em">3,546,579,059<set attributeName="opacity" to="1" begin="1.156s" fill="freeze"/><set attributeName="opacity" to="0" begin="1.200s" fill="freeze"/></text>
    <text x="210" y="160" text-anchor="middle" font-family='ui-monospace, "SF Mono", Menlo, Consolas, monospace' font-size="46" font-weight="700" fill="#FFFFFF" opacity="0" letter-spacing="-0.01em">3,550,029,498<set attributeName="opacity" to="1" begin="1.200s" fill="freeze"/><set attributeName="opacity" to="0" begin="1.244s" fill="freeze"/></text>
    <text x="210" y="160" text-anchor="middle" font-family='ui-monospace, "SF Mono", Menlo, Consolas, monospace' font-size="46" font-weight="700" fill="#FFFFFF" opacity="0" letter-spacing="-0.01em">3,552,875,630<set attributeName="opacity" to="1" begin="1.244s" fill="freeze"/><set attributeName="opacity" to="0" begin="1.289s" fill="freeze"/></text>
    <text x="210" y="160" text-anchor="middle" font-family='ui-monospace, "SF Mono", Menlo, Consolas, monospace' font-size="46" font-weight="700" fill="#FFFFFF" opacity="0" letter-spacing="-0.01em">3,555,223,291<set attributeName="opacity" to="1" begin="1.289s" fill="freeze"/><set attributeName="opacity" to="0" begin="1.333s" fill="freeze"/></text>
    <text x="210" y="160" text-anchor="middle" font-family='ui-monospace, "SF Mono", Menlo, Consolas, monospace' font-size="46" font-weight="700" fill="#FFFFFF" opacity="0" letter-spacing="-0.01em">3,557,159,785<set attributeName="opacity" to="1" begin="1.333s" fill="freeze"/><set attributeName="opacity" to="0" begin="1.378s" fill="freeze"/></text>
    <text x="210" y="160" text-anchor="middle" font-family='ui-monospace, "SF Mono", Menlo, Consolas, monospace' font-size="46" font-weight="700" fill="#FFFFFF" opacity="0" letter-spacing="-0.01em">3,558,757,122<set attributeName="opacity" to="1" begin="1.378s" fill="freeze"/><set attributeName="opacity" to="0" begin="1.422s" fill="freeze"/></text>
    <text x="210" y="160" text-anchor="middle" font-family='ui-monospace, "SF Mono", Menlo, Consolas, monospace' font-size="46" font-weight="700" fill="#FFFFFF" opacity="0" letter-spacing="-0.01em">3,560,074,702<set attributeName="opacity" to="1" begin="1.422s" fill="freeze"/><set attributeName="opacity" to="0" begin="1.467s" fill="freeze"/></text>
    <text x="210" y="160" text-anchor="middle" font-family='ui-monospace, "SF Mono", Menlo, Consolas, monospace' font-size="46" font-weight="700" fill="#FFFFFF" opacity="0" letter-spacing="-0.01em">3,561,161,522<set attributeName="opacity" to="1" begin="1.467s" fill="freeze"/><set attributeName="opacity" to="0" begin="1.511s" fill="freeze"/></text>
    <text x="210" y="160" text-anchor="middle" font-family='ui-monospace, "SF Mono", Menlo, Consolas, monospace' font-size="46" font-weight="700" fill="#FFFFFF" opacity="0" letter-spacing="-0.01em">3,562,057,998<set attributeName="opacity" to="1" begin="1.511s" fill="freeze"/><set attributeName="opacity" to="0" begin="1.556s" fill="freeze"/></text>
    <text x="210" y="160" text-anchor="middle" font-family='ui-monospace, "SF Mono", Menlo, Consolas, monospace' font-size="46" font-weight="700" fill="#FFFFFF" opacity="0" letter-spacing="-0.01em">3,566,280,160<set attributeName="opacity" to="1" begin="1.556s" fill="freeze"/></text>
  </g>

  <!-- left: caption -->
  <text x="210" y="212" text-anchor="middle"
        font-family='ui-monospace, "SF Mono", Menlo, Consolas, monospace' font-size="13" font-weight="400"
        fill="#8B949E" letter-spacing="0.02em" opacity="0">
    60 days. One developer.
    <animate attributeName="opacity" from="0" to="1"
             begin="1.45s" dur="0.5s" fill="freeze"/>
  </text>

  <!-- right: chart -->
  <g clip-path="url(#chartReveal)">
    <path d="M 420.00 259.76 C 421.53 259.75 426.10 259.86 429.15 259.73 C 432.20 259.60 435.25 259.25 438.31 258.98 C 441.36 258.71 444.41 258.26 447.46 258.10 C 450.51 257.95 453.56 258.37 456.61 258.05 C 459.66 257.72 462.71 256.54 465.76 256.14 C 468.81 255.74 471.86 255.96 474.92 255.64 C 477.97 255.33 481.02 254.94 484.07 254.25 C 487.12 253.57 490.17 252.17 493.22 251.54 C 496.27 250.91 499.32 251.27 502.37 250.48 C 505.42 249.68 508.47 247.38 511.53 246.76 C 514.58 246.14 517.63 246.80 520.68 246.75 C 523.73 246.70 526.78 246.81 529.83 246.48 C 532.88 246.14 535.93 245.24 538.98 244.75 C 542.03 244.27 545.08 244.01 548.14 243.59 C 551.19 243.17 554.24 242.56 557.29 242.23 C 560.34 241.89 563.39 241.79 566.44 241.57 C 569.49 241.35 572.54 241.32 575.59 240.91 C 578.64 240.49 581.69 239.38 584.75 239.06 C 587.80 238.74 590.85 239.28 593.90 238.99 C 596.95 238.71 600.00 238.22 603.05 237.35 C 606.10 236.48 609.15 234.50 612.20 233.77 C 615.25 233.03 618.31 233.24 621.36 232.91 C 624.41 232.59 627.46 232.30 630.51 231.84 C 633.56 231.37 636.61 230.51 639.66 230.14 C 642.71 229.77 645.76 231.04 648.81 229.61 C 651.86 228.17 654.92 222.95 657.97 221.51 C 661.02 220.07 664.07 221.40 667.12 220.96 C 670.17 220.52 673.22 220.47 676.27 218.87 C 679.32 217.27 682.37 212.62 685.42 211.36 C 688.47 210.11 691.53 212.05 694.58 211.34 C 697.63 210.64 700.68 209.34 703.73 207.13 C 706.78 204.93 709.83 201.49 712.88 198.11 C 715.93 194.72 718.98 188.91 722.03 186.81 C 725.08 184.70 728.14 185.77 731.19 185.46 C 734.24 185.15 737.29 186.35 740.34 184.97 C 743.39 183.59 746.44 180.75 749.49 177.20 C 752.54 173.65 755.59 166.16 758.64 163.69 C 761.69 161.21 764.75 162.72 767.80 162.35 C 770.85 161.98 773.90 161.76 776.95 161.48 C 780.00 161.21 783.05 161.31 786.10 160.72 C 789.15 160.13 792.20 159.32 795.25 157.94 C 798.31 156.56 801.36 155.49 804.41 152.46 C 807.46 149.43 810.51 142.73 813.56 139.77 C 816.61 136.80 819.66 138.07 822.71 134.68 C 825.76 131.29 828.81 121.99 831.86 119.42 C 834.92 116.85 837.97 119.29 841.02 119.26 C 844.07 119.23 847.12 119.48 850.17 119.25 C 853.22 119.01 856.27 118.90 859.32 117.83 C 862.37 116.76 865.42 114.04 868.47 112.81 C 871.53 111.59 874.58 110.94 877.63 110.48 C 880.68 110.01 883.73 111.34 886.78 110.02 C 889.83 108.71 892.88 103.96 895.93 102.58 C 898.98 101.21 902.03 101.96 905.08 101.78 C 908.14 101.60 911.19 105.70 914.24 101.50 C 917.29 97.31 920.34 82.71 923.39 76.60 C 926.44 70.49 929.49 67.83 932.54 64.84 C 935.59 61.84 938.64 60.33 941.69 58.65 C 944.75 56.98 947.80 55.54 950.85 54.77 C 953.90 53.99 958.47 54.13 960.00 54.00 L 960.00 260.00 L 420.00 260.00 Z" fill="url(#areaGrad)"/>
    <path d="M 420.00 259.76 C 421.53 259.75 426.10 259.86 429.15 259.73 C 432.20 259.60 435.25 259.25 438.31 258.98 C 441.36 258.71 444.41 258.26 447.46 258.10 C 450.51 257.95 453.56 258.37 456.61 258.05 C 459.66 257.72 462.71 256.54 465.76 256.14 C 468.81 255.74 471.86 255.96 474.92 255.64 C 477.97 255.33 481.02 254.94 484.07 254.25 C 487.12 253.57 490.17 252.17 493.22 251.54 C 496.27 250.91 499.32 251.27 502.37 250.48 C 505.42 249.68 508.47 247.38 511.53 246.76 C 514.58 246.14 517.63 246.80 520.68 246.75 C 523.73 246.70 526.78 246.81 529.83 246.48 C 532.88 246.14 535.93 245.24 538.98 244.75 C 542.03 244.27 545.08 244.01 548.14 243.59 C 551.19 243.17 554.24 242.56 557.29 242.23 C 560.34 241.89 563.39 241.79 566.44 241.57 C 569.49 241.35 572.54 241.32 575.59 240.91 C 578.64 240.49 581.69 239.38 584.75 239.06 C 587.80 238.74 590.85 239.28 593.90 238.99 C 596.95 238.71 600.00 238.22 603.05 237.35 C 606.10 236.48 609.15 234.50 612.20 233.77 C 615.25 233.03 618.31 233.24 621.36 232.91 C 624.41 232.59 627.46 232.30 630.51 231.84 C 633.56 231.37 636.61 230.51 639.66 230.14 C 642.71 229.77 645.76 231.04 648.81 229.61 C 651.86 228.17 654.92 222.95 657.97 221.51 C 661.02 220.07 664.07 221.40 667.12 220.96 C 670.17 220.52 673.22 220.47 676.27 218.87 C 679.32 217.27 682.37 212.62 685.42 211.36 C 688.47 210.11 691.53 212.05 694.58 211.34 C 697.63 210.64 700.68 209.34 703.73 207.13 C 706.78 204.93 709.83 201.49 712.88 198.11 C 715.93 194.72 718.98 188.91 722.03 186.81 C 725.08 184.70 728.14 185.77 731.19 185.46 C 734.24 185.15 737.29 186.35 740.34 184.97 C 743.39 183.59 746.44 180.75 749.49 177.20 C 752.54 173.65 755.59 166.16 758.64 163.69 C 761.69 161.21 764.75 162.72 767.80 162.35 C 770.85 161.98 773.90 161.76 776.95 161.48 C 780.00 161.21 783.05 161.31 786.10 160.72 C 789.15 160.13 792.20 159.32 795.25 157.94 C 798.31 156.56 801.36 155.49 804.41 152.46 C 807.46 149.43 810.51 142.73 813.56 139.77 C 816.61 136.80 819.66 138.07 822.71 134.68 C 825.76 131.29 828.81 121.99 831.86 119.42 C 834.92 116.85 837.97 119.29 841.02 119.26 C 844.07 119.23 847.12 119.48 850.17 119.25 C 853.22 119.01 856.27 118.90 859.32 117.83 C 862.37 116.76 865.42 114.04 868.47 112.81 C 871.53 111.59 874.58 110.94 877.63 110.48 C 880.68 110.01 883.73 111.34 886.78 110.02 C 889.83 108.71 892.88 103.96 895.93 102.58 C 898.98 101.21 902.03 101.96 905.08 101.78 C 908.14 101.60 911.19 105.70 914.24 101.50 C 917.29 97.31 920.34 82.71 923.39 76.60 C 926.44 70.49 929.49 67.83 932.54 64.84 C 935.59 61.84 938.64 60.33 941.69 58.65 C 944.75 56.98 947.80 55.54 950.85 54.77 C 953.90 53.99 958.47 54.13 960.00 54.00" fill="none" stroke="#FFFFFF"
          stroke-width="1.6" stroke-linecap="round" stroke-linejoin="round"/>
  </g>

  <!-- right: baseline hairline -->
  <line x1="420" y1="260" x2="960" y2="260"
        stroke="#8B949E" stroke-opacity="0.25" stroke-width="0.5"/>

  <!-- right: peak annotation -->
  <circle cx="960.00" cy="54.00" r="0" fill="#FFFFFF">
    <animate attributeName="r" from="0" to="3.5"
             begin="1.90s" dur="0.35s" fill="freeze"/>
  </circle>
  <text x="952.00" y="44.00" text-anchor="end"
        font-family='ui-monospace, "SF Mono", Menlo, Consolas, monospace' font-size="10" font-weight="500"
        fill="#FFFFFF" opacity="0">
    3,566,280,160
    <animate attributeName="opacity" from="0" to="0.85"
             begin="2.10s" dur="0.4s" fill="freeze"/>
  </text>
</svg>
