<svg xmlns="http://www.w3.org/2000/svg" viewBox="0 0 1000 300" width="1000" height="300" shape-rendering="geometricPrecision" text-rendering="optimizeLegibility" font-rendering="optimizeLegibility">
  <defs>
    <linearGradient id="areaGrad" x1="0" y1="0" x2="0" y2="1">
      <stop offset="0%"  stop-color="#FFFFFF" stop-opacity="0.38"/>
      <stop offset="60%" stop-color="#FFFFFF" stop-opacity="0.08"/>
      <stop offset="100%" stop-color="#0D1117" stop-opacity="0"/>
    </linearGradient>
    <clipPath id="chartReveal">
      <rect x="420" y="0" width="0" height="300">
        <animate attributeName="width" from="0" to="560"
                 begin="0.2s" dur="1.8s" fill="freeze"/>
      </rect>
    </clipPath>
  </defs>

  <!-- background -->
  <rect width="1000" height="300" fill="#0D1117"/>

  <!-- left: small label -->
  <text x="210" y="95" text-anchor="middle"
        font-family='ui-monospace, "SF Mono", Menlo, Consolas, monospace' font-size="10.5" font-weight="500"
        fill="#8B949E" letter-spacing="2.4" opacity="0">
    TOKENS PROCESSED · LAST 60 DAYS
    <animate attributeName="opacity" from="0" to="1"
             begin="0.05s" dur="0.5s" fill="freeze"/>
  </text>

  <!-- left: count-up frames -->
  <g>
    <text x="210" y="160" text-anchor="middle" font-family='ui-monospace, "SF Mono", Menlo, Consolas, monospace' font-size="46" font-weight="700" fill="#FFFFFF" opacity="0" letter-spacing="-0.01em">767,435,081<set attributeName="opacity" to="1" begin="0.000s" fill="freeze"/><set attributeName="opacity" to="0" begin="0.044s" fill="freeze"/></text>
    <text x="210" y="160" text-anchor="middle" font-family='ui-monospace, "SF Mono", Menlo, Consolas, monospace' font-size="46" font-weight="700" fill="#FFFFFF" opacity="0" letter-spacing="-0.01em">1,400,462,038<set attributeName="opacity" to="1" begin="0.044s" fill="freeze"/><set attributeName="opacity" to="0" begin="0.089s" fill="freeze"/></text>
    <text x="210" y="160" text-anchor="middle" font-family='ui-monospace, "SF Mono", Menlo, Consolas, monospace' font-size="46" font-weight="700" fill="#FFFFFF" opacity="0" letter-spacing="-0.01em">1,922,621,030<set attributeName="opacity" to="1" begin="0.089s" fill="freeze"/><set attributeName="opacity" to="0" begin="0.133s" fill="freeze"/></text>
    <text x="210" y="160" text-anchor="middle" font-family='ui-monospace, "SF Mono", Menlo, Consolas, monospace' font-size="46" font-weight="700" fill="#FFFFFF" opacity="0" letter-spacing="-0.01em">2,353,329,407<set attributeName="opacity" to="1" begin="0.133s" fill="freeze"/><set attributeName="opacity" to="0" begin="0.178s" fill="freeze"/></text>
    <text x="210" y="160" text-anchor="middle" font-family='ui-monospace, "SF Mono", Menlo, Consolas, monospace' font-size="46" font-weight="700" fill="#FFFFFF" opacity="0" letter-spacing="-0.01em">2,708,603,774<set attributeName="opacity" to="1" begin="0.178s" fill="freeze"/><set attributeName="opacity" to="0" begin="0.222s" fill="freeze"/></text>
    <text x="210" y="160" text-anchor="middle" font-family='ui-monospace, "SF Mono", Menlo, Consolas, monospace' font-size="46" font-weight="700" fill="#FFFFFF" opacity="0" letter-spacing="-0.01em">3,001,655,600<set attributeName="opacity" to="1" begin="0.222s" fill="freeze"/><set attributeName="opacity" to="0" begin="0.267s" fill="freeze"/></text>
    <text x="210" y="160" text-anchor="middle" font-family='ui-monospace, "SF Mono", Menlo, Consolas, monospace' font-size="46" font-weight="700" fill="#FFFFFF" opacity="0" letter-spacing="-0.01em">3,243,382,503<set attributeName="opacity" to="1" begin="0.267s" fill="freeze"/><set attributeName="opacity" to="0" begin="0.311s" fill="freeze"/></text>
    <text x="210" y="160" text-anchor="middle" font-family='ui-monospace, "SF Mono", Menlo, Consolas, monospace' font-size="46" font-weight="700" fill="#FFFFFF" opacity="0" letter-spacing="-0.01em">3,442,773,501<set attributeName="opacity" to="1" begin="0.311s" fill="freeze"/><set attributeName="opacity" to="0" begin="0.356s" fill="freeze"/></text>
    <text x="210" y="160" text-anchor="middle" font-family='ui-monospace, "SF Mono", Menlo, Consolas, monospace' font-size="46" font-weight="700" fill="#FFFFFF" opacity="0" letter-spacing="-0.01em">3,607,243,277<set attributeName="opacity" to="1" begin="0.356s" fill="freeze"/><set attributeName="opacity" to="0" begin="0.400s" fill="freeze"/></text>
    <text x="210" y="160" text-anchor="middle" font-family='ui-monospace, "SF Mono", Menlo, Consolas, monospace' font-size="46" font-weight="700" fill="#FFFFFF" opacity="0" letter-spacing="-0.01em">3,742,907,914<set attributeName="opacity" to="1" begin="0.400s" fill="freeze"/><set attributeName="opacity" to="0" begin="0.444s" fill="freeze"/></text>
    <text x="210" y="160" text-anchor="middle" font-family='ui-monospace, "SF Mono", Menlo, Consolas, monospace' font-size="46" font-weight="700" fill="#FFFFFF" opacity="0" letter-spacing="-0.01em">3,854,812,328<set attributeName="opacity" to="1" begin="0.444s" fill="freeze"/><set attributeName="opacity" to="0" begin="0.489s" fill="freeze"/></text>
    <text x="210" y="160" text-anchor="middle" font-family='ui-monospace, "SF Mono", Menlo, Consolas, monospace' font-size="46" font-weight="700" fill="#FFFFFF" opacity="0" letter-spacing="-0.01em">3,947,117,869<set attributeName="opacity" to="1" begin="0.489s" fill="freeze"/><set attributeName="opacity" to="0" begin="0.533s" fill="freeze"/></text>
    <text x="210" y="160" text-anchor="middle" font-family='ui-monospace, "SF Mono", Menlo, Consolas, monospace' font-size="46" font-weight="700" fill="#FFFFFF" opacity="0" letter-spacing="-0.01em">4,023,257,072<set attributeName="opacity" to="1" begin="0.533s" fill="freeze"/><set attributeName="opacity" to="0" begin="0.578s" fill="freeze"/></text>
    <text x="210" y="160" text-anchor="middle" font-family='ui-monospace, "SF Mono", Menlo, Consolas, monospace' font-size="46" font-weight="700" fill="#FFFFFF" opacity="0" letter-spacing="-0.01em">4,086,061,301<set attributeName="opacity" to="1" begin="0.578s" fill="freeze"/><set attributeName="opacity" to="0" begin="0.622s" fill="freeze"/></text>
    <text x="210" y="160" text-anchor="middle" font-family='ui-monospace, "SF Mono", Menlo, Consolas, monospace' font-size="46" font-weight="700" fill="#FFFFFF" opacity="0" letter-spacing="-0.01em">4,137,866,034<set attributeName="opacity" to="1" begin="0.622s" fill="freeze"/><set attributeName="opacity" to="0" begin="0.667s" fill="freeze"/></text>
    <text x="210" y="160" text-anchor="middle" font-family='ui-monospace, "SF Mono", Menlo, Consolas, monospace' font-size="46" font-weight="700" fill="#FFFFFF" opacity="0" letter-spacing="-0.01em">4,180,597,717<set attributeName="opacity" to="1" begin="0.667s" fill="freeze"/><set attributeName="opacity" to="0" begin="0.711s" fill="freeze"/></text>
    <text x="210" y="160" text-anchor="middle" font-family='ui-monospace, "SF Mono", Menlo, Consolas, monospace' font-size="46" font-weight="700" fill="#FFFFFF" opacity="0" letter-spacing="-0.01em">4,215,845,399<set attributeName="opacity" to="1" begin="0.711s" fill="freeze"/><set attributeName="opacity" to="0" begin="0.756s" fill="freeze"/></text>
    <text x="210" y="160" text-anchor="middle" font-family='ui-monospace, "SF Mono", Menlo, Consolas, monospace' font-size="46" font-weight="700" fill="#FFFFFF" opacity="0" letter-spacing="-0.01em">4,244,919,822<set attributeName="opacity" to="1" begin="0.756s" fill="freeze"/><set attributeName="opacity" to="0" begin="0.800s" fill="freeze"/></text>
    <text x="210" y="160" text-anchor="middle" font-family='ui-monospace, "SF Mono", Menlo, Consolas, monospace' font-size="46" font-weight="700" fill="#FFFFFF" opacity="0" letter-spacing="-0.01em">4,268,902,169<set attributeName="opacity" to="1" begin="0.800s" fill="freeze"/><set attributeName="opacity" to="0" begin="0.844s" fill="freeze"/></text>
    <text x="210" y="160" text-anchor="middle" font-family='ui-monospace, "SF Mono", Menlo, Consolas, monospace' font-size="46" font-weight="700" fill="#FFFFFF" opacity="0" letter-spacing="-0.01em">4,288,684,261<set attributeName="opacity" to="1" begin="0.844s" fill="freeze"/><set attributeName="opacity" to="0" begin="0.889s" fill="freeze"/></text>
    <text x="210" y="160" text-anchor="middle" font-family='ui-monospace, "SF Mono", Menlo, Consolas, monospace' font-size="46" font-weight="700" fill="#FFFFFF" opacity="0" letter-spacing="-0.01em">4,305,001,730<set attributeName="opacity" to="1" begin="0.889s" fill="freeze"/><set attributeName="opacity" to="0" begin="0.933s" fill="freeze"/></text>
    <text x="210" y="160" text-anchor="middle" font-family='ui-monospace, "SF Mono", Menlo, Consolas, monospace' font-size="46" font-weight="700" fill="#FFFFFF" opacity="0" letter-spacing="-0.01em">4,318,461,366<set attributeName="opacity" to="1" begin="0.933s" fill="freeze"/><set attributeName="opacity" to="0" begin="0.978s" fill="freeze"/></text>
    <text x="210" y="160" text-anchor="middle" font-family='ui-monospace, "SF Mono", Menlo, Consolas, monospace' font-size="46" font-weight="700" fill="#FFFFFF" opacity="0" letter-spacing="-0.01em">4,329,563,690<set attributeName="opacity" to="1" begin="0.978s" fill="freeze"/><set attributeName="opacity" to="0" begin="1.022s" fill="freeze"/></text>
    <text x="210" y="160" text-anchor="middle" font-family='ui-monospace, "SF Mono", Menlo, Consolas, monospace' font-size="46" font-weight="700" fill="#FFFFFF" opacity="0" letter-spacing="-0.01em">4,338,721,560<set attributeName="opacity" to="1" begin="1.022s" fill="freeze"/><set attributeName="opacity" to="0" begin="1.067s" fill="freeze"/></text>
    <text x="210" y="160" text-anchor="middle" font-family='ui-monospace, "SF Mono", Menlo, Consolas, monospace' font-size="46" font-weight="700" fill="#FFFFFF" opacity="0" letter-spacing="-0.01em">4,346,275,526<set attributeName="opacity" to="1" begin="1.067s" fill="freeze"/><set attributeName="opacity" to="0" begin="1.111s" fill="freeze"/></text>
    <text x="210" y="160" text-anchor="middle" font-family='ui-monospace, "SF Mono", Menlo, Consolas, monospace' font-size="46" font-weight="700" fill="#FFFFFF" opacity="0" letter-spacing="-0.01em">4,352,506,494<set attributeName="opacity" to="1" begin="1.111s" fill="freeze"/><set attributeName="opacity" to="0" begin="1.156s" fill="freeze"/></text>
    <text x="210" y="160" text-anchor="middle" font-family='ui-monospace, "SF Mono", Menlo, Consolas, monospace' font-size="46" font-weight="700" fill="#FFFFFF" opacity="0" letter-spacing="-0.01em">4,357,646,175<set attributeName="opacity" to="1" begin="1.156s" fill="freeze"/><set attributeName="opacity" to="0" begin="1.200s" fill="freeze"/></text>
    <text x="210" y="160" text-anchor="middle" font-family='ui-monospace, "SF Mono", Menlo, Consolas, monospace' font-size="46" font-weight="700" fill="#FFFFFF" opacity="0" letter-spacing="-0.01em">4,361,885,695<set attributeName="opacity" to="1" begin="1.200s" fill="freeze"/><set attributeName="opacity" to="0" begin="1.244s" fill="freeze"/></text>
    <text x="210" y="160" text-anchor="middle" font-family='ui-monospace, "SF Mono", Menlo, Consolas, monospace' font-size="46" font-weight="700" fill="#FFFFFF" opacity="0" letter-spacing="-0.01em">4,365,382,708<set attributeName="opacity" to="1" begin="1.244s" fill="freeze"/><set attributeName="opacity" to="0" begin="1.289s" fill="freeze"/></text>
    <text x="210" y="160" text-anchor="middle" font-family='ui-monospace, "SF Mono", Menlo, Consolas, monospace' font-size="46" font-weight="700" fill="#FFFFFF" opacity="0" letter-spacing="-0.01em">4,368,267,256<set attributeName="opacity" to="1" begin="1.289s" fill="freeze"/><set attributeName="opacity" to="0" begin="1.333s" fill="freeze"/></text>
    <text x="210" y="160" text-anchor="middle" font-family='ui-monospace, "SF Mono", Menlo, Consolas, monospace' font-size="46" font-weight="700" fill="#FFFFFF" opacity="0" letter-spacing="-0.01em">4,370,646,606<set attributeName="opacity" to="1" begin="1.333s" fill="freeze"/><set attributeName="opacity" to="0" begin="1.378s" fill="freeze"/></text>
    <text x="210" y="160" text-anchor="middle" font-family='ui-monospace, "SF Mono", Menlo, Consolas, monospace' font-size="46" font-weight="700" fill="#FFFFFF" opacity="0" letter-spacing="-0.01em">4,372,609,238<set attributeName="opacity" to="1" begin="1.378s" fill="freeze"/><set attributeName="opacity" to="0" begin="1.422s" fill="freeze"/></text>
    <text x="210" y="160" text-anchor="middle" font-family='ui-monospace, "SF Mono", Menlo, Consolas, monospace' font-size="46" font-weight="700" fill="#FFFFFF" opacity="0" letter-spacing="-0.01em">4,374,228,136<set attributeName="opacity" to="1" begin="1.422s" fill="freeze"/><set attributeName="opacity" to="0" begin="1.467s" fill="freeze"/></text>
    <text x="210" y="160" text-anchor="middle" font-family='ui-monospace, "SF Mono", Menlo, Consolas, monospace' font-size="46" font-weight="700" fill="#FFFFFF" opacity="0" letter-spacing="-0.01em">4,375,563,501<set attributeName="opacity" to="1" begin="1.467s" fill="freeze"/><set attributeName="opacity" to="0" begin="1.511s" fill="freeze"/></text>
    <text x="210" y="160" text-anchor="middle" font-family='ui-monospace, "SF Mono", Menlo, Consolas, monospace' font-size="46" font-weight="700" fill="#FFFFFF" opacity="0" letter-spacing="-0.01em">4,376,664,991<set attributeName="opacity" to="1" begin="1.511s" fill="freeze"/><set attributeName="opacity" to="0" begin="1.556s" fill="freeze"/></text>
    <text x="210" y="160" text-anchor="middle" font-family='ui-monospace, "SF Mono", Menlo, Consolas, monospace' font-size="46" font-weight="700" fill="#FFFFFF" opacity="0" letter-spacing="-0.01em">4,381,852,720<set attributeName="opacity" to="1" begin="1.556s" fill="freeze"/></text>
  </g>

  <!-- left: caption -->
  <text x="210" y="212" text-anchor="middle"
        font-family='ui-monospace, "SF Mono", Menlo, Consolas, monospace' font-size="13" font-weight="400"
        fill="#8B949E" letter-spacing="0.02em" opacity="0">
    60 days. One developer.
    <animate attributeName="opacity" from="0" to="1"
             begin="1.45s" dur="0.5s" fill="freeze"/>
  </text>

  <!-- right: chart -->
  <g clip-path="url(#chartReveal)">
    <path d="M 420.00 259.80 C 421.53 259.80 426.10 259.88 429.15 259.78 C 432.20 259.67 435.25 259.39 438.31 259.17 C 441.36 258.95 444.41 258.58 447.46 258.45 C 450.51 258.33 453.56 258.68 456.61 258.41 C 459.66 258.14 462.71 257.19 465.76 256.86 C 468.81 256.54 471.86 256.71 474.92 256.46 C 477.97 256.20 481.02 255.88 484.07 255.32 C 487.12 254.76 490.17 253.63 493.22 253.11 C 496.27 252.60 499.32 252.90 502.37 252.25 C 505.42 251.60 508.47 249.73 511.53 249.23 C 514.58 248.72 517.63 249.25 520.68 249.21 C 523.73 249.18 526.78 249.26 529.83 248.99 C 532.88 248.72 535.93 247.98 538.98 247.59 C 542.03 247.20 545.08 246.99 548.14 246.65 C 551.19 246.30 554.24 245.81 557.29 245.54 C 560.34 245.26 563.39 245.18 566.44 245.00 C 569.49 244.82 572.54 244.80 575.59 244.46 C 578.64 244.12 581.69 243.22 584.75 242.96 C 587.80 242.70 590.85 243.13 593.90 242.90 C 596.95 242.67 600.00 242.27 603.05 241.57 C 606.10 240.86 609.15 239.25 612.20 238.65 C 615.25 238.05 618.31 238.22 621.36 237.96 C 624.41 237.69 627.46 237.45 630.51 237.08 C 633.56 236.70 636.61 235.93 639.66 235.70 C 642.71 235.46 645.76 236.57 648.81 235.64 C 651.86 234.72 654.92 231.08 657.97 230.14 C 661.02 229.19 664.07 230.33 667.12 229.97 C 670.17 229.61 673.22 229.04 676.27 227.96 C 679.32 226.89 682.37 225.97 685.42 223.50 C 688.47 221.04 691.53 215.58 694.58 213.17 C 697.63 210.76 700.68 211.79 703.73 209.03 C 706.78 206.27 709.83 198.70 712.88 196.61 C 715.93 194.52 718.98 196.50 722.03 196.48 C 725.08 196.46 728.14 196.66 731.19 196.47 C 734.24 196.28 737.29 196.19 740.34 195.32 C 743.39 194.45 746.44 192.23 749.49 191.23 C 752.54 190.24 755.59 189.71 758.64 189.33 C 761.69 188.95 764.75 190.03 767.80 188.96 C 770.85 187.89 773.90 184.03 776.95 182.91 C 780.00 181.79 783.05 182.40 786.10 182.25 C 789.15 182.11 792.20 185.44 795.25 182.03 C 798.31 178.61 801.36 166.73 804.41 161.76 C 807.46 156.79 810.51 154.62 813.56 152.19 C 816.61 149.75 819.66 148.52 822.71 147.15 C 825.76 145.79 828.81 144.62 831.86 143.99 C 834.92 143.36 837.97 143.81 841.02 143.37 C 844.07 142.92 847.12 143.13 850.17 141.31 C 853.22 139.50 856.27 135.20 859.32 132.46 C 862.37 129.73 865.42 126.32 868.47 124.90 C 871.53 123.48 874.58 124.22 877.63 123.94 C 880.68 123.66 883.73 125.91 886.78 123.23 C 889.83 120.55 892.88 110.45 895.93 107.89 C 898.98 105.33 902.03 108.19 905.08 107.88 C 908.14 107.57 911.19 106.92 914.24 106.02 C 917.29 105.13 920.34 108.31 923.39 102.49 C 926.44 96.67 929.49 78.65 932.54 71.12 C 935.59 63.59 938.64 60.01 941.69 57.31 C 944.75 54.61 947.80 55.47 950.85 54.92 C 953.90 54.36 958.47 54.15 960.00 54.00 L 960.00 260.00 L 420.00 260.00 Z" fill="url(#areaGrad)"/>
    <path d="M 420.00 259.80 C 421.53 259.80 426.10 259.88 429.15 259.78 C 432.20 259.67 435.25 259.39 438.31 259.17 C 441.36 258.95 444.41 258.58 447.46 258.45 C 450.51 258.33 453.56 258.68 456.61 258.41 C 459.66 258.14 462.71 257.19 465.76 256.86 C 468.81 256.54 471.86 256.71 474.92 256.46 C 477.97 256.20 481.02 255.88 484.07 255.32 C 487.12 254.76 490.17 253.63 493.22 253.11 C 496.27 252.60 499.32 252.90 502.37 252.25 C 505.42 251.60 508.47 249.73 511.53 249.23 C 514.58 248.72 517.63 249.25 520.68 249.21 C 523.73 249.18 526.78 249.26 529.83 248.99 C 532.88 248.72 535.93 247.98 538.98 247.59 C 542.03 247.20 545.08 246.99 548.14 246.65 C 551.19 246.30 554.24 245.81 557.29 245.54 C 560.34 245.26 563.39 245.18 566.44 245.00 C 569.49 244.82 572.54 244.80 575.59 244.46 C 578.64 244.12 581.69 243.22 584.75 242.96 C 587.80 242.70 590.85 243.13 593.90 242.90 C 596.95 242.67 600.00 242.27 603.05 241.57 C 606.10 240.86 609.15 239.25 612.20 238.65 C 615.25 238.05 618.31 238.22 621.36 237.96 C 624.41 237.69 627.46 237.45 630.51 237.08 C 633.56 236.70 636.61 235.93 639.66 235.70 C 642.71 235.46 645.76 236.57 648.81 235.64 C 651.86 234.72 654.92 231.08 657.97 230.14 C 661.02 229.19 664.07 230.33 667.12 229.97 C 670.17 229.61 673.22 229.04 676.27 227.96 C 679.32 226.89 682.37 225.97 685.42 223.50 C 688.47 221.04 691.53 215.58 694.58 213.17 C 697.63 210.76 700.68 211.79 703.73 209.03 C 706.78 206.27 709.83 198.70 712.88 196.61 C 715.93 194.52 718.98 196.50 722.03 196.48 C 725.08 196.46 728.14 196.66 731.19 196.47 C 734.24 196.28 737.29 196.19 740.34 195.32 C 743.39 194.45 746.44 192.23 749.49 191.23 C 752.54 190.24 755.59 189.71 758.64 189.33 C 761.69 188.95 764.75 190.03 767.80 188.96 C 770.85 187.89 773.90 184.03 776.95 182.91 C 780.00 181.79 783.05 182.40 786.10 182.25 C 789.15 182.11 792.20 185.44 795.25 182.03 C 798.31 178.61 801.36 166.73 804.41 161.76 C 807.46 156.79 810.51 154.62 813.56 152.19 C 816.61 149.75 819.66 148.52 822.71 147.15 C 825.76 145.79 828.81 144.62 831.86 143.99 C 834.92 143.36 837.97 143.81 841.02 143.37 C 844.07 142.92 847.12 143.13 850.17 141.31 C 853.22 139.50 856.27 135.20 859.32 132.46 C 862.37 129.73 865.42 126.32 868.47 124.90 C 871.53 123.48 874.58 124.22 877.63 123.94 C 880.68 123.66 883.73 125.91 886.78 123.23 C 889.83 120.55 892.88 110.45 895.93 107.89 C 898.98 105.33 902.03 108.19 905.08 107.88 C 908.14 107.57 911.19 106.92 914.24 106.02 C 917.29 105.13 920.34 108.31 923.39 102.49 C 926.44 96.67 929.49 78.65 932.54 71.12 C 935.59 63.59 938.64 60.01 941.69 57.31 C 944.75 54.61 947.80 55.47 950.85 54.92 C 953.90 54.36 958.47 54.15 960.00 54.00" fill="none" stroke="#FFFFFF"
          stroke-width="1.6" stroke-linecap="round" stroke-linejoin="round"/>
  </g>

  <!-- right: baseline hairline -->
  <line x1="420" y1="260" x2="960" y2="260"
        stroke="#8B949E" stroke-opacity="0.25" stroke-width="0.5"/>

  <!-- right: peak annotation -->
  <circle cx="960.00" cy="54.00" r="0" fill="#FFFFFF">
    <animate attributeName="r" from="0" to="3.5"
             begin="1.90s" dur="0.35s" fill="freeze"/>
  </circle>
  <text x="952.00" y="44.00" text-anchor="end"
        font-family='ui-monospace, "SF Mono", Menlo, Consolas, monospace' font-size="10" font-weight="500"
        fill="#FFFFFF" opacity="0">
    4,381,852,720
    <animate attributeName="opacity" from="0" to="0.85"
             begin="2.10s" dur="0.4s" fill="freeze"/>
  </text>
</svg>
