<svg xmlns="http://www.w3.org/2000/svg" viewBox="0 0 1000 300" width="1000" height="300" shape-rendering="geometricPrecision" text-rendering="optimizeLegibility" font-rendering="optimizeLegibility">
  <defs>
    <linearGradient id="areaGrad" x1="0" y1="0" x2="0" y2="1">
      <stop offset="0%"  stop-color="#FFFFFF" stop-opacity="0.38"/>
      <stop offset="60%" stop-color="#FFFFFF" stop-opacity="0.08"/>
      <stop offset="100%" stop-color="#0D1117" stop-opacity="0"/>
    </linearGradient>
    <clipPath id="chartReveal">
      <rect x="420" y="0" width="0" height="300">
        <animate attributeName="width" from="0" to="560"
                 begin="0.2s" dur="1.8s" fill="freeze"/>
      </rect>
    </clipPath>
  </defs>

  <!-- background -->
  <rect width="1000" height="300" fill="#0D1117"/>

  <!-- left: small label -->
  <text x="210" y="95" text-anchor="middle"
        font-family='ui-monospace, "SF Mono", Menlo, Consolas, monospace' font-size="10.5" font-weight="500"
        fill="#8B949E" letter-spacing="2.4" opacity="0">
    TOKENS PROCESSED · LAST 60 DAYS
    <animate attributeName="opacity" from="0" to="1"
             begin="0.05s" dur="0.5s" fill="freeze"/>
  </text>

  <!-- left: count-up frames -->
  <g>
    <text x="210" y="160" text-anchor="middle" font-family='ui-monospace, "SF Mono", Menlo, Consolas, monospace' font-size="46" font-weight="700" fill="#FFFFFF" opacity="0" letter-spacing="-0.01em">559,699,334<set attributeName="opacity" to="1" begin="0.000s" fill="freeze"/><set attributeName="opacity" to="0" begin="0.044s" fill="freeze"/></text>
    <text x="210" y="160" text-anchor="middle" font-family='ui-monospace, "SF Mono", Menlo, Consolas, monospace' font-size="46" font-weight="700" fill="#FFFFFF" opacity="0" letter-spacing="-0.01em">1,021,373,259<set attributeName="opacity" to="1" begin="0.044s" fill="freeze"/><set attributeName="opacity" to="0" begin="0.089s" fill="freeze"/></text>
    <text x="210" y="160" text-anchor="middle" font-family='ui-monospace, "SF Mono", Menlo, Consolas, monospace' font-size="46" font-weight="700" fill="#FFFFFF" opacity="0" letter-spacing="-0.01em">1,402,189,887<set attributeName="opacity" to="1" begin="0.089s" fill="freeze"/><set attributeName="opacity" to="0" begin="0.133s" fill="freeze"/></text>
    <text x="210" y="160" text-anchor="middle" font-family='ui-monospace, "SF Mono", Menlo, Consolas, monospace' font-size="46" font-weight="700" fill="#FFFFFF" opacity="0" letter-spacing="-0.01em">1,716,310,517<set attributeName="opacity" to="1" begin="0.133s" fill="freeze"/><set attributeName="opacity" to="0" begin="0.178s" fill="freeze"/></text>
    <text x="210" y="160" text-anchor="middle" font-family='ui-monospace, "SF Mono", Menlo, Consolas, monospace' font-size="46" font-weight="700" fill="#FFFFFF" opacity="0" letter-spacing="-0.01em">1,975,416,247<set attributeName="opacity" to="1" begin="0.178s" fill="freeze"/><set attributeName="opacity" to="0" begin="0.222s" fill="freeze"/></text>
    <text x="210" y="160" text-anchor="middle" font-family='ui-monospace, "SF Mono", Menlo, Consolas, monospace' font-size="46" font-weight="700" fill="#FFFFFF" opacity="0" letter-spacing="-0.01em">2,189,142,353<set attributeName="opacity" to="1" begin="0.222s" fill="freeze"/><set attributeName="opacity" to="0" begin="0.267s" fill="freeze"/></text>
    <text x="210" y="160" text-anchor="middle" font-family='ui-monospace, "SF Mono", Menlo, Consolas, monospace' font-size="46" font-weight="700" fill="#FFFFFF" opacity="0" letter-spacing="-0.01em">2,365,436,596<set attributeName="opacity" to="1" begin="0.267s" fill="freeze"/><set attributeName="opacity" to="0" begin="0.311s" fill="freeze"/></text>
    <text x="210" y="160" text-anchor="middle" font-family='ui-monospace, "SF Mono", Menlo, Consolas, monospace' font-size="46" font-weight="700" fill="#FFFFFF" opacity="0" letter-spacing="-0.01em">2,510,854,770<set attributeName="opacity" to="1" begin="0.311s" fill="freeze"/><set attributeName="opacity" to="0" begin="0.356s" fill="freeze"/></text>
    <text x="210" y="160" text-anchor="middle" font-family='ui-monospace, "SF Mono", Menlo, Consolas, monospace' font-size="46" font-weight="700" fill="#FFFFFF" opacity="0" letter-spacing="-0.01em">2,630,804,492<set attributeName="opacity" to="1" begin="0.356s" fill="freeze"/><set attributeName="opacity" to="0" begin="0.400s" fill="freeze"/></text>
    <text x="210" y="160" text-anchor="middle" font-family='ui-monospace, "SF Mono", Menlo, Consolas, monospace' font-size="46" font-weight="700" fill="#FFFFFF" opacity="0" letter-spacing="-0.01em">2,729,746,290<set attributeName="opacity" to="1" begin="0.400s" fill="freeze"/><set attributeName="opacity" to="0" begin="0.444s" fill="freeze"/></text>
    <text x="210" y="160" text-anchor="middle" font-family='ui-monospace, "SF Mono", Menlo, Consolas, monospace' font-size="46" font-weight="700" fill="#FFFFFF" opacity="0" letter-spacing="-0.01em">2,811,359,481<set attributeName="opacity" to="1" begin="0.444s" fill="freeze"/><set attributeName="opacity" to="0" begin="0.489s" fill="freeze"/></text>
    <text x="210" y="160" text-anchor="middle" font-family='ui-monospace, "SF Mono", Menlo, Consolas, monospace' font-size="46" font-weight="700" fill="#FFFFFF" opacity="0" letter-spacing="-0.01em">2,878,678,986<set attributeName="opacity" to="1" begin="0.489s" fill="freeze"/><set attributeName="opacity" to="0" begin="0.533s" fill="freeze"/></text>
    <text x="210" y="160" text-anchor="middle" font-family='ui-monospace, "SF Mono", Menlo, Consolas, monospace' font-size="46" font-weight="700" fill="#FFFFFF" opacity="0" letter-spacing="-0.01em">2,934,208,193<set attributeName="opacity" to="1" begin="0.533s" fill="freeze"/><set attributeName="opacity" to="0" begin="0.578s" fill="freeze"/></text>
    <text x="210" y="160" text-anchor="middle" font-family='ui-monospace, "SF Mono", Menlo, Consolas, monospace' font-size="46" font-weight="700" fill="#FFFFFF" opacity="0" letter-spacing="-0.01em">2,980,012,048<set attributeName="opacity" to="1" begin="0.578s" fill="freeze"/><set attributeName="opacity" to="0" begin="0.622s" fill="freeze"/></text>
    <text x="210" y="160" text-anchor="middle" font-family='ui-monospace, "SF Mono", Menlo, Consolas, monospace' font-size="46" font-weight="700" fill="#FFFFFF" opacity="0" letter-spacing="-0.01em">3,017,793,842<set attributeName="opacity" to="1" begin="0.622s" fill="freeze"/><set attributeName="opacity" to="0" begin="0.667s" fill="freeze"/></text>
    <text x="210" y="160" text-anchor="middle" font-family='ui-monospace, "SF Mono", Menlo, Consolas, monospace' font-size="46" font-weight="700" fill="#FFFFFF" opacity="0" letter-spacing="-0.01em">3,048,958,556<set attributeName="opacity" to="1" begin="0.667s" fill="freeze"/><set attributeName="opacity" to="0" begin="0.711s" fill="freeze"/></text>
    <text x="210" y="160" text-anchor="middle" font-family='ui-monospace, "SF Mono", Menlo, Consolas, monospace' font-size="46" font-weight="700" fill="#FFFFFF" opacity="0" letter-spacing="-0.01em">3,074,665,100<set attributeName="opacity" to="1" begin="0.711s" fill="freeze"/><set attributeName="opacity" to="0" begin="0.756s" fill="freeze"/></text>
    <text x="210" y="160" text-anchor="middle" font-family='ui-monospace, "SF Mono", Menlo, Consolas, monospace' font-size="46" font-weight="700" fill="#FFFFFF" opacity="0" letter-spacing="-0.01em">3,095,869,416<set attributeName="opacity" to="1" begin="0.756s" fill="freeze"/><set attributeName="opacity" to="0" begin="0.800s" fill="freeze"/></text>
    <text x="210" y="160" text-anchor="middle" font-family='ui-monospace, "SF Mono", Menlo, Consolas, monospace' font-size="46" font-weight="700" fill="#FFFFFF" opacity="0" letter-spacing="-0.01em">3,113,360,020<set attributeName="opacity" to="1" begin="0.800s" fill="freeze"/><set attributeName="opacity" to="0" begin="0.844s" fill="freeze"/></text>
    <text x="210" y="160" text-anchor="middle" font-family='ui-monospace, "SF Mono", Menlo, Consolas, monospace' font-size="46" font-weight="700" fill="#FFFFFF" opacity="0" letter-spacing="-0.01em">3,127,787,330<set attributeName="opacity" to="1" begin="0.844s" fill="freeze"/><set attributeName="opacity" to="0" begin="0.889s" fill="freeze"/></text>
    <text x="210" y="160" text-anchor="middle" font-family='ui-monospace, "SF Mono", Menlo, Consolas, monospace' font-size="46" font-weight="700" fill="#FFFFFF" opacity="0" letter-spacing="-0.01em">3,139,687,850<set attributeName="opacity" to="1" begin="0.889s" fill="freeze"/><set attributeName="opacity" to="0" begin="0.933s" fill="freeze"/></text>
    <text x="210" y="160" text-anchor="middle" font-family='ui-monospace, "SF Mono", Menlo, Consolas, monospace' font-size="46" font-weight="700" fill="#FFFFFF" opacity="0" letter-spacing="-0.01em">3,149,504,119<set attributeName="opacity" to="1" begin="0.933s" fill="freeze"/><set attributeName="opacity" to="0" begin="0.978s" fill="freeze"/></text>
    <text x="210" y="160" text-anchor="middle" font-family='ui-monospace, "SF Mono", Menlo, Consolas, monospace' font-size="46" font-weight="700" fill="#FFFFFF" opacity="0" letter-spacing="-0.01em">3,157,601,173<set attributeName="opacity" to="1" begin="0.978s" fill="freeze"/><set attributeName="opacity" to="0" begin="1.022s" fill="freeze"/></text>
    <text x="210" y="160" text-anchor="middle" font-family='ui-monospace, "SF Mono", Menlo, Consolas, monospace' font-size="46" font-weight="700" fill="#FFFFFF" opacity="0" letter-spacing="-0.01em">3,164,280,114<set attributeName="opacity" to="1" begin="1.022s" fill="freeze"/><set attributeName="opacity" to="0" begin="1.067s" fill="freeze"/></text>
    <text x="210" y="160" text-anchor="middle" font-family='ui-monospace, "SF Mono", Menlo, Consolas, monospace' font-size="46" font-weight="700" fill="#FFFFFF" opacity="0" letter-spacing="-0.01em">3,169,789,309<set attributeName="opacity" to="1" begin="1.067s" fill="freeze"/><set attributeName="opacity" to="0" begin="1.111s" fill="freeze"/></text>
    <text x="210" y="160" text-anchor="middle" font-family='ui-monospace, "SF Mono", Menlo, Consolas, monospace' font-size="46" font-weight="700" fill="#FFFFFF" opacity="0" letter-spacing="-0.01em">3,174,333,627<set attributeName="opacity" to="1" begin="1.111s" fill="freeze"/><set attributeName="opacity" to="0" begin="1.156s" fill="freeze"/></text>
    <text x="210" y="160" text-anchor="middle" font-family='ui-monospace, "SF Mono", Menlo, Consolas, monospace' font-size="46" font-weight="700" fill="#FFFFFF" opacity="0" letter-spacing="-0.01em">3,178,082,056<set attributeName="opacity" to="1" begin="1.156s" fill="freeze"/><set attributeName="opacity" to="0" begin="1.200s" fill="freeze"/></text>
    <text x="210" y="160" text-anchor="middle" font-family='ui-monospace, "SF Mono", Menlo, Consolas, monospace' font-size="46" font-weight="700" fill="#FFFFFF" opacity="0" letter-spacing="-0.01em">3,181,173,987<set attributeName="opacity" to="1" begin="1.200s" fill="freeze"/><set attributeName="opacity" to="0" begin="1.244s" fill="freeze"/></text>
    <text x="210" y="160" text-anchor="middle" font-family='ui-monospace, "SF Mono", Menlo, Consolas, monospace' font-size="46" font-weight="700" fill="#FFFFFF" opacity="0" letter-spacing="-0.01em">3,183,724,399<set attributeName="opacity" to="1" begin="1.244s" fill="freeze"/><set attributeName="opacity" to="0" begin="1.289s" fill="freeze"/></text>
    <text x="210" y="160" text-anchor="middle" font-family='ui-monospace, "SF Mono", Menlo, Consolas, monospace' font-size="46" font-weight="700" fill="#FFFFFF" opacity="0" letter-spacing="-0.01em">3,185,828,134<set attributeName="opacity" to="1" begin="1.289s" fill="freeze"/><set attributeName="opacity" to="0" begin="1.333s" fill="freeze"/></text>
    <text x="210" y="160" text-anchor="middle" font-family='ui-monospace, "SF Mono", Menlo, Consolas, monospace' font-size="46" font-weight="700" fill="#FFFFFF" opacity="0" letter-spacing="-0.01em">3,187,563,422<set attributeName="opacity" to="1" begin="1.333s" fill="freeze"/><set attributeName="opacity" to="0" begin="1.378s" fill="freeze"/></text>
    <text x="210" y="160" text-anchor="middle" font-family='ui-monospace, "SF Mono", Menlo, Consolas, monospace' font-size="46" font-weight="700" fill="#FFFFFF" opacity="0" letter-spacing="-0.01em">3,188,994,792<set attributeName="opacity" to="1" begin="1.378s" fill="freeze"/><set attributeName="opacity" to="0" begin="1.422s" fill="freeze"/></text>
    <text x="210" y="160" text-anchor="middle" font-family='ui-monospace, "SF Mono", Menlo, Consolas, monospace' font-size="46" font-weight="700" fill="#FFFFFF" opacity="0" letter-spacing="-0.01em">3,190,175,473<set attributeName="opacity" to="1" begin="1.422s" fill="freeze"/><set attributeName="opacity" to="0" begin="1.467s" fill="freeze"/></text>
    <text x="210" y="160" text-anchor="middle" font-family='ui-monospace, "SF Mono", Menlo, Consolas, monospace' font-size="46" font-weight="700" fill="#FFFFFF" opacity="0" letter-spacing="-0.01em">3,191,149,371<set attributeName="opacity" to="1" begin="1.467s" fill="freeze"/><set attributeName="opacity" to="0" begin="1.511s" fill="freeze"/></text>
    <text x="210" y="160" text-anchor="middle" font-family='ui-monospace, "SF Mono", Menlo, Consolas, monospace' font-size="46" font-weight="700" fill="#FFFFFF" opacity="0" letter-spacing="-0.01em">3,191,952,700<set attributeName="opacity" to="1" begin="1.511s" fill="freeze"/><set attributeName="opacity" to="0" begin="1.556s" fill="freeze"/></text>
    <text x="210" y="160" text-anchor="middle" font-family='ui-monospace, "SF Mono", Menlo, Consolas, monospace' font-size="46" font-weight="700" fill="#FFFFFF" opacity="0" letter-spacing="-0.01em">3,195,736,171<set attributeName="opacity" to="1" begin="1.556s" fill="freeze"/></text>
  </g>

  <!-- left: caption -->
  <text x="210" y="212" text-anchor="middle"
        font-family='ui-monospace, "SF Mono", Menlo, Consolas, monospace' font-size="13" font-weight="400"
        fill="#8B949E" letter-spacing="0.02em" opacity="0">
    60 days. One developer.
    <animate attributeName="opacity" from="0" to="1"
             begin="1.45s" dur="0.5s" fill="freeze"/>
  </text>

  <!-- right: chart -->
  <g clip-path="url(#chartReveal)">
    <path d="M 420.00 259.76 C 421.53 259.71 426.10 259.53 429.15 259.48 C 432.20 259.43 435.25 259.60 438.31 259.45 C 441.36 259.31 444.41 258.92 447.46 258.62 C 450.51 258.32 453.56 257.81 456.61 257.64 C 459.66 257.46 462.71 257.94 465.76 257.57 C 468.81 257.21 471.86 255.90 474.92 255.45 C 477.97 255.00 481.02 255.25 484.07 254.90 C 487.12 254.54 490.17 254.10 493.22 253.34 C 496.27 252.58 499.32 251.01 502.37 250.31 C 505.42 249.61 508.47 250.02 511.53 249.13 C 514.58 248.24 517.63 245.68 520.68 244.98 C 523.73 244.29 526.78 245.02 529.83 244.97 C 532.88 244.91 535.93 245.03 538.98 244.66 C 542.03 244.29 545.08 243.28 548.14 242.74 C 551.19 242.21 554.24 241.91 557.29 241.44 C 560.34 240.97 563.39 240.30 566.44 239.92 C 569.49 239.55 572.54 239.43 575.59 239.18 C 578.64 238.94 581.69 238.91 584.75 238.45 C 587.80 237.98 590.85 236.74 593.90 236.39 C 596.95 236.03 600.00 236.63 603.05 236.31 C 606.10 235.99 609.15 235.45 612.20 234.48 C 615.25 233.51 618.31 231.30 621.36 230.48 C 624.41 229.65 627.46 229.89 630.51 229.53 C 633.56 229.17 636.61 228.84 639.66 228.32 C 642.71 227.81 645.76 226.81 648.81 226.43 C 651.86 226.05 654.92 226.69 657.97 226.06 C 661.02 225.42 664.07 223.30 667.12 222.60 C 670.17 221.91 673.22 224.29 676.27 221.90 C 679.32 219.51 682.37 210.75 685.42 208.25 C 688.47 205.76 691.53 207.30 694.58 206.92 C 697.63 206.53 700.68 207.41 703.73 205.93 C 706.78 204.45 709.83 199.46 712.88 198.04 C 715.93 196.63 718.98 199.39 722.03 197.45 C 725.08 195.51 728.14 189.00 731.19 186.39 C 734.24 183.78 737.29 183.60 740.34 181.78 C 743.39 179.96 746.44 177.91 749.49 175.46 C 752.54 173.01 755.59 168.49 758.64 167.09 C 761.69 165.69 764.75 167.85 767.80 167.07 C 770.85 166.28 773.90 164.83 776.95 162.37 C 780.00 159.91 783.05 156.08 786.10 152.30 C 789.15 148.52 792.20 142.04 795.25 139.68 C 798.31 137.33 801.36 138.53 804.41 138.18 C 807.46 137.84 810.51 139.17 813.56 137.64 C 816.61 136.10 819.66 132.92 822.71 128.96 C 825.76 125.01 828.81 116.65 831.86 113.89 C 834.92 111.13 837.97 112.81 841.02 112.40 C 844.07 111.98 847.12 111.73 850.17 111.43 C 853.22 111.12 856.27 111.24 859.32 110.58 C 862.37 109.92 865.42 109.01 868.47 107.47 C 871.53 105.94 874.58 104.74 877.63 101.36 C 880.68 97.98 883.73 90.50 886.78 87.19 C 889.83 83.88 892.88 85.30 895.93 81.52 C 898.98 77.73 902.03 67.35 905.08 64.48 C 908.14 61.62 911.19 64.34 914.24 64.31 C 917.29 64.27 920.34 64.56 923.39 64.29 C 926.44 64.03 929.49 63.91 932.54 62.71 C 935.59 61.52 938.64 58.48 941.69 57.11 C 944.75 55.74 947.80 55.02 950.85 54.51 C 953.90 53.99 958.47 54.08 960.00 54.00 L 960.00 260.00 L 420.00 260.00 Z" fill="url(#areaGrad)"/>
    <path d="M 420.00 259.76 C 421.53 259.71 426.10 259.53 429.15 259.48 C 432.20 259.43 435.25 259.60 438.31 259.45 C 441.36 259.31 444.41 258.92 447.46 258.62 C 450.51 258.32 453.56 257.81 456.61 257.64 C 459.66 257.46 462.71 257.94 465.76 257.57 C 468.81 257.21 471.86 255.90 474.92 255.45 C 477.97 255.00 481.02 255.25 484.07 254.90 C 487.12 254.54 490.17 254.10 493.22 253.34 C 496.27 252.58 499.32 251.01 502.37 250.31 C 505.42 249.61 508.47 250.02 511.53 249.13 C 514.58 248.24 517.63 245.68 520.68 244.98 C 523.73 244.29 526.78 245.02 529.83 244.97 C 532.88 244.91 535.93 245.03 538.98 244.66 C 542.03 244.29 545.08 243.28 548.14 242.74 C 551.19 242.21 554.24 241.91 557.29 241.44 C 560.34 240.97 563.39 240.30 566.44 239.92 C 569.49 239.55 572.54 239.43 575.59 239.18 C 578.64 238.94 581.69 238.91 584.75 238.45 C 587.80 237.98 590.85 236.74 593.90 236.39 C 596.95 236.03 600.00 236.63 603.05 236.31 C 606.10 235.99 609.15 235.45 612.20 234.48 C 615.25 233.51 618.31 231.30 621.36 230.48 C 624.41 229.65 627.46 229.89 630.51 229.53 C 633.56 229.17 636.61 228.84 639.66 228.32 C 642.71 227.81 645.76 226.81 648.81 226.43 C 651.86 226.05 654.92 226.69 657.97 226.06 C 661.02 225.42 664.07 223.30 667.12 222.60 C 670.17 221.91 673.22 224.29 676.27 221.90 C 679.32 219.51 682.37 210.75 685.42 208.25 C 688.47 205.76 691.53 207.30 694.58 206.92 C 697.63 206.53 700.68 207.41 703.73 205.93 C 706.78 204.45 709.83 199.46 712.88 198.04 C 715.93 196.63 718.98 199.39 722.03 197.45 C 725.08 195.51 728.14 189.00 731.19 186.39 C 734.24 183.78 737.29 183.60 740.34 181.78 C 743.39 179.96 746.44 177.91 749.49 175.46 C 752.54 173.01 755.59 168.49 758.64 167.09 C 761.69 165.69 764.75 167.85 767.80 167.07 C 770.85 166.28 773.90 164.83 776.95 162.37 C 780.00 159.91 783.05 156.08 786.10 152.30 C 789.15 148.52 792.20 142.04 795.25 139.68 C 798.31 137.33 801.36 138.53 804.41 138.18 C 807.46 137.84 810.51 139.17 813.56 137.64 C 816.61 136.10 819.66 132.92 822.71 128.96 C 825.76 125.01 828.81 116.65 831.86 113.89 C 834.92 111.13 837.97 112.81 841.02 112.40 C 844.07 111.98 847.12 111.73 850.17 111.43 C 853.22 111.12 856.27 111.24 859.32 110.58 C 862.37 109.92 865.42 109.01 868.47 107.47 C 871.53 105.94 874.58 104.74 877.63 101.36 C 880.68 97.98 883.73 90.50 886.78 87.19 C 889.83 83.88 892.88 85.30 895.93 81.52 C 898.98 77.73 902.03 67.35 905.08 64.48 C 908.14 61.62 911.19 64.34 914.24 64.31 C 917.29 64.27 920.34 64.56 923.39 64.29 C 926.44 64.03 929.49 63.91 932.54 62.71 C 935.59 61.52 938.64 58.48 941.69 57.11 C 944.75 55.74 947.80 55.02 950.85 54.51 C 953.90 53.99 958.47 54.08 960.00 54.00" fill="none" stroke="#FFFFFF"
          stroke-width="1.6" stroke-linecap="round" stroke-linejoin="round"/>
  </g>

  <!-- right: baseline hairline -->
  <line x1="420" y1="260" x2="960" y2="260"
        stroke="#8B949E" stroke-opacity="0.25" stroke-width="0.5"/>

  <!-- right: peak annotation -->
  <circle cx="960.00" cy="54.00" r="0" fill="#FFFFFF">
    <animate attributeName="r" from="0" to="3.5"
             begin="1.90s" dur="0.35s" fill="freeze"/>
  </circle>
  <text x="952.00" y="44.00" text-anchor="end"
        font-family='ui-monospace, "SF Mono", Menlo, Consolas, monospace' font-size="10" font-weight="500"
        fill="#FFFFFF" opacity="0">
    3,195,736,171
    <animate attributeName="opacity" from="0" to="0.85"
             begin="2.10s" dur="0.4s" fill="freeze"/>
  </text>
</svg>
